# Blender 4.5.1 LTS
# www.blender.org
o GEO_FeudalJapaneseHouse_Wall_C.001
v -1.000000 0.000000 -0.055242
v -1.000000 3.000000 -0.055242
v 1.000000 0.000000 -0.055242
v 1.000000 3.000000 -0.055242
v -1.000000 3.000000 0.055030
v -1.000000 0.000000 0.055030
v 1.000000 0.000000 0.055030
v 1.000000 3.000000 0.055030
v -0.773819 2.192121 -0.055242
v -0.773819 1.141994 -0.055242
v 0.773819 1.141994 -0.055242
v 0.773819 2.192121 -0.055242
v -0.773819 2.192121 0.055030
v -0.773819 1.141994 0.055030
v 0.773819 1.141994 0.055030
v 0.773819 2.192121 0.055030
v -0.773819 2.192121 -0.029879
v -0.773819 1.141994 -0.029879
v 0.773819 1.141994 -0.029879
v 0.773819 2.192121 -0.029879
v -0.773819 2.192121 0.029668
v -0.773819 1.141994 0.029668
v 0.773819 1.141994 0.029668
v 0.773819 2.192121 0.029668
v -0.718154 2.141431 -0.029879
v -0.718154 1.192684 -0.029879
v 0.718154 1.192684 -0.029879
v 0.718154 2.141431 -0.029879
v -0.718154 2.141431 0.029668
v -0.718154 1.192684 0.029668
v 0.718154 1.192684 0.029668
v 0.718154 2.141431 0.029668
v -0.022622 1.190621 -0.018863
v 0.022622 1.190621 -0.018863
v -0.022622 1.190621 0.018651
v 0.022622 1.190621 0.018651
v 0.022622 2.153681 -0.018863
v -0.022622 2.153681 -0.018863
v 0.022622 2.153681 0.018651
v -0.022622 2.153681 0.018651
v 0.529987 1.190621 -0.018863
v 0.575230 1.190621 -0.018863
v 0.529987 1.190621 0.018651
v 0.575230 1.190621 0.018651
v 0.575230 2.153681 -0.018863
v 0.529987 2.153681 -0.018863
v 0.575230 2.153681 0.018651
v 0.529987 2.153681 0.018651
v 0.342235 1.190621 -0.018863
v 0.387479 1.190621 -0.018863
v 0.342235 1.190621 0.018651
v 0.387479 1.190621 0.018651
v 0.387479 2.153681 -0.018863
v 0.342235 2.153681 -0.018863
v 0.387479 2.153681 0.018651
v 0.342235 2.153681 0.018651
v 0.159010 1.190621 -0.018863
v 0.204254 1.190621 -0.018863
v 0.159010 1.190621 0.018651
v 0.204254 1.190621 0.018651
v 0.204254 2.153681 -0.018863
v 0.159010 2.153681 -0.018863
v 0.204254 2.153681 0.018651
v 0.159010 2.153681 0.018651
v -0.575231 1.190621 -0.018863
v -0.529987 1.190621 -0.018863
v -0.575231 1.190621 0.018651
v -0.529987 1.190621 0.018651
v -0.529987 2.153681 -0.018863
v -0.575231 2.153681 -0.018863
v -0.529987 2.153681 0.018651
v -0.575231 2.153681 0.018651
v -0.387479 1.190621 -0.018863
v -0.342235 1.190621 -0.018863
v -0.387479 1.190621 0.018651
v -0.342235 1.190621 0.018651
v -0.342235 2.153681 -0.018863
v -0.387479 2.153681 -0.018863
v -0.342235 2.153681 0.018651
v -0.387479 2.153681 0.018651
v -0.204254 1.190621 -0.018863
v -0.159010 1.190621 -0.018863
v -0.204254 1.190621 0.018651
v -0.159010 1.190621 0.018651
v -0.159010 2.153681 -0.018863
v -0.204254 2.153681 -0.018863
v -0.159010 2.153681 0.018651
v -0.204254 2.153681 0.018651
v 0.722295 1.916131 -0.011360
v 0.722295 1.961375 -0.011360
v 0.722295 1.916131 0.011149
v 0.722295 1.961375 0.011149
v -0.722295 1.961375 -0.011360
v -0.722295 1.916131 -0.011360
v -0.722295 1.961375 0.011149
v -0.722295 1.916131 0.011149
v -0.718154 2.141431 -0.000451
v -0.718154 1.192684 -0.000451
v 0.718154 1.192684 -0.000451
v 0.718154 2.141431 -0.000451
v -0.718154 2.141431 0.001464
v -0.718154 1.192684 0.001464
v 0.718154 1.192684 0.001464
v 0.718154 2.141431 0.001464
vn -1.0000 -0.0000 -0.0000
vn -0.0000 1.0000 -0.0000
vn -0.0000 -0.0000 -1.0000
vn -0.0000 -0.0000 1.0000
vn -0.0000 -1.0000 -0.0000
vn 1.0000 -0.0000 -0.0000
vt 0.912565 0.418413
vt 0.912565 0.334069
vt 0.921423 0.334069
vt 0.921423 0.418413
vt 0.795915 0.664259
vt 0.671612 0.664259
vt 0.671612 0.655400
vt 0.795915 0.655400
vt 0.736499 0.476565
vt 0.820843 0.476565
vt 0.912565 0.494734
vt 0.671612 0.494734
vt 0.820843 0.352238
vt 0.912565 0.334068
vt 0.736499 0.352238
vt 0.671612 0.334069
vt 0.763335 0.637230
vt 0.847678 0.637230
vt 0.912565 0.655400
vt 0.671612 0.655400
vt 0.763335 0.512904
vt 0.671612 0.494734
vt 0.847678 0.512904
vt 0.912565 0.494734
vt 0.795915 0.655400
vt 0.920216 0.655400
vt 0.920216 0.664259
vt 0.921423 0.502757
vt 0.912565 0.502757
vt 0.028986 0.981054
vt 0.028986 0.826174
vt 0.038708 0.826174
vt 0.038708 0.981054
vt 0.245286 0.671264
vt 0.245287 0.905737
vt 0.235564 0.905737
vt 0.235563 0.671264
vt 0.255010 0.671264
vt 0.255010 0.905741
vt 0.245287 0.905741
vt 0.245287 0.671264
vt 0.028986 0.981052
vt 0.019263 0.981052
vt 0.019263 0.826174
vt 0.271724 0.923903
vt 0.271724 0.671264
vt 0.280000 0.680351
vt 0.280001 0.914816
vt 0.303053 0.842722
vt 0.303053 0.671264
vt 0.312141 0.679541
vt 0.312141 0.834446
vt 0.271724 0.671264
vt 0.271724 0.921654
vt 0.263367 0.912479
vt 0.263367 0.680439
vt 0.019263 0.826174
vt 0.019263 0.997643
vt 0.010176 0.989367
vt 0.010176 0.834451
vt 0.321228 0.671264
vt 0.321228 0.842732
vt 0.312141 0.834455
vt 0.312141 0.679542
vt 0.288277 0.671264
vt 0.288277 0.923907
vt 0.280001 0.914819
vt 0.280001 0.680350
vt 0.001089 0.997633
vt 0.001089 0.826174
vt 0.010176 0.834451
vt 0.010176 0.989357
vt 0.255010 0.921654
vt 0.263367 0.680439
vt 0.263367 0.912479
vt 0.090420 0.983391
vt 0.083032 0.983391
vt 0.083032 0.826174
vt 0.090420 0.826174
vt 0.215637 0.983387
vt 0.209512 0.983387
vt 0.209512 0.826174
vt 0.215637 0.826174
vt 0.172760 0.983389
vt 0.166634 0.983389
vt 0.166634 0.826174
vt 0.172760 0.826174
vt 0.142132 0.983392
vt 0.134745 0.983392
vt 0.134745 0.826174
vt 0.142132 0.826174
vt 0.197261 0.983386
vt 0.191136 0.983386
vt 0.191136 0.826174
vt 0.197261 0.826174
vt 0.105195 0.983391
vt 0.097807 0.983391
vt 0.097807 0.826174
vt 0.105195 0.826174
vt 0.148257 0.983391
vt 0.142132 0.983391
vt 0.142132 0.826174
vt 0.148257 0.826174
vt 0.060870 0.983394
vt 0.053483 0.983394
vt 0.053483 0.826174
vt 0.060870 0.826174
vt 0.046096 0.983394
vt 0.038708 0.983394
vt 0.038708 0.826174
vt 0.046096 0.826174
vt 0.209512 0.983392
vt 0.203387 0.983392
vt 0.203387 0.826174
vt 0.209512 0.826174
vt 0.160508 0.983393
vt 0.154383 0.983393
vt 0.154383 0.826174
vt 0.160508 0.826174
vt 0.068258 0.983392
vt 0.060870 0.983392
vt 0.068258 0.826174
vt 0.112582 0.983386
vt 0.105195 0.983386
vt 0.105195 0.826174
vt 0.112582 0.826174
vt 0.235563 0.983392
vt 0.229438 0.983392
vt 0.229438 0.826174
vt 0.235563 0.826174
vt 0.166634 0.983377
vt 0.160508 0.983377
vt 0.160508 0.826174
vt 0.166634 0.826174
vt 0.134744 0.983386
vt 0.127357 0.983386
vt 0.127357 0.826174
vt 0.134744 0.826174
vt 0.097807 0.983388
vt 0.090420 0.983388
vt 0.097807 0.826174
vt 0.178885 0.983391
vt 0.172760 0.983391
vt 0.172760 0.826174
vt 0.178885 0.826174
vt 0.229438 0.983399
vt 0.223313 0.983399
vt 0.223313 0.826174
vt 0.229438 0.826174
vt 0.075645 0.983392
vt 0.075645 0.826174
vt 0.083032 0.983392
vt 0.203387 0.983386
vt 0.203387 0.826174
vt 0.154383 0.983386
vt 0.148257 0.983386
vt 0.148257 0.826174
vt 0.154383 0.826174
vt 0.127357 0.983392
vt 0.119970 0.983392
vt 0.119970 0.826174
vt 0.053483 0.983391
vt 0.046096 0.983391
vt 0.185010 0.983394
vt 0.178885 0.983394
vt 0.178885 0.826174
vt 0.185010 0.826174
vt 0.191136 0.983390
vt 0.185010 0.983390
vt 0.185010 0.826174
vt 0.119970 0.983391
vt 0.112582 0.983391
vt 0.119970 0.826174
vt 0.324902 0.907099
vt 0.321227 0.907099
vt 0.321227 0.671264
vt 0.324902 0.671264
vt 0.303053 0.907089
vt 0.295666 0.907089
vt 0.295666 0.671264
vt 0.328577 0.671264
vt 0.328577 0.907098
vt 0.324902 0.907098
vt 0.288278 0.671264
vt 0.295665 0.671264
vt 0.295666 0.907091
vt 0.288278 0.907091
vt 0.314876 0.003145
vt 0.314876 0.158544
vt 0.012380 0.158544
vt 0.012380 0.003145
vt 0.012379 0.158544
vt 0.315029 0.158544
vt 0.315029 0.333145
vt 0.012379 0.333145
s 0
f 15/1/1 16/2/1 12/3/1 11/4/1
f 14/5/2 15/6/2 11/7/2 10/8/2
f 9/9/3 10/10/3 1/11/3 2/12/3
f 10/10/3 11/13/3 3/14/3 1/11/3
f 12/15/3 9/9/3 2/12/3 4/16/3
f 11/13/3 12/15/3 4/16/3 3/14/3
f 14/17/4 13/18/4 5/19/4 6/20/4
f 15/21/4 14/17/4 6/20/4 7/22/4
f 13/18/4 16/23/4 8/24/4 5/19/4
f 16/23/4 15/21/4 7/22/4 8/24/4
f 16/25/5 13/26/5 9/27/5 12/5/5
f 13/4/6 14/28/6 10/29/6 9/1/6
f 31/30/1 32/31/1 28/32/1 27/33/1
f 30/34/2 31/35/2 27/36/2 26/37/2
f 32/38/5 29/39/5 25/40/5 28/41/5
f 29/31/6 30/42/6 26/43/6 25/44/6
f 24/45/4 21/46/4 29/47/4 32/48/4
f 21/49/4 22/50/4 30/51/4 29/52/4
f 17/53/3 20/54/3 28/55/3 25/56/3
f 18/57/3 17/58/3 25/59/3 26/60/3
f 23/61/4 24/62/4 32/63/4 31/64/4
f 22/65/4 23/66/4 31/67/4 30/68/4
f 20/69/3 19/70/3 27/71/3 28/72/3
f 19/73/3 18/38/3 26/74/3 27/75/3
f 43/76/4 44/77/4 47/78/4 48/79/4
f 44/80/6 42/81/6 45/82/6 47/83/6
f 36/84/6 34/85/6 37/86/6 39/87/6
f 35/88/4 36/89/4 39/90/4 40/91/4
f 33/92/1 35/93/1 40/94/1 38/95/1
f 34/96/3 33/97/3 38/98/3 37/99/3
f 41/100/1 43/101/1 48/102/1 46/103/1
f 42/104/3 41/105/3 46/106/3 45/107/3
f 51/108/4 52/109/4 55/110/4 56/111/4
f 52/112/6 50/113/6 53/114/6 55/115/6
f 49/116/1 51/117/1 56/118/1 54/119/1
f 50/120/3 49/121/3 54/107/3 53/122/3
f 59/123/4 60/124/4 63/125/4 64/126/4
f 60/127/6 58/128/6 61/129/6 63/130/6
f 57/131/1 59/132/1 64/133/1 62/134/1
f 58/135/3 57/136/3 62/137/3 61/138/3
f 67/139/4 68/140/4 71/79/4 72/141/4
f 68/142/6 66/143/6 69/144/6 71/145/6
f 65/146/1 67/147/1 72/148/1 70/149/1
f 66/150/3 65/120/3 70/122/3 69/151/3
f 75/152/4 76/150/4 79/151/4 80/78/4
f 76/153/6 74/92/6 77/95/6 79/154/6
f 73/155/1 75/156/1 80/157/1 78/158/1
f 74/159/3 73/160/3 78/161/3 77/137/3
f 83/162/4 84/163/4 87/111/4 88/106/4
f 84/164/6 82/165/6 85/166/6 87/167/6
f 81/168/1 83/169/1 88/170/1 86/94/1
f 82/171/3 81/172/3 86/126/3 85/173/3
f 92/174/2 90/175/2 93/176/2 95/177/2
f 91/178/4 92/179/4 95/180/4 96/50/4
f 89/177/5 91/181/5 96/182/5 94/183/5
f 90/184/3 89/185/3 94/186/3 93/187/3
f 98/188/3 97/189/3 100/190/3 99/191/3
f 102/192/4 103/193/4 104/194/4 101/195/4
