# Blender 4.5.1 LTS
# www.blender.org
o GEO_FeudalJapaneseHouse_R_RoofHalfEdge
v 2.050000 0.000000 -0.055136
v 0.056893 1.201997 -0.055136
v 0.624786 0.803596 -0.055136
v 1.466548 0.338166 -0.055136
v 0.385304 1.085742 -0.052850
v 0.044190 1.359345 -0.052850
v 0.366832 1.069873 -0.011392
v 0.025308 1.343162 -0.011393
v 0.329405 1.038156 -0.011392
v -0.012907 1.310670 -0.011393
v 0.310449 1.022300 -0.052850
v -0.032238 1.294356 -0.052850
v 0.329405 1.038156 -0.094307
v -0.012907 1.310670 -0.094307
v 0.025309 1.343162 -0.094307
v 0.341800 1.035103 -0.081070
v -0.000969 1.307996 -0.081070
v 0.369969 1.058949 -0.081070
v 0.027763 1.332394 -0.081070
v -0.000969 1.307996 -0.345620
v 0.341800 1.035103 -0.345620
v 0.369969 1.058949 -0.345620
v 0.027763 1.332394 -0.345620
v 0.026041 1.323981 -0.269365
v 0.026041 1.323981 -0.170673
v -0.002754 1.299583 -0.170673
v -0.002754 1.299583 -0.269365
v 0.340573 1.026850 -0.269365
v 0.368801 1.050697 -0.269365
v 0.696170 0.848255 -0.052850
v 0.678527 0.831641 -0.011392
v 0.642795 0.798578 -0.011392
v 0.624699 0.782123 -0.052850
v 0.642795 0.798578 -0.094307
v 0.364862 1.070978 -0.094307
v 0.653298 0.797503 -0.081070
v 0.680214 0.822321 -0.081070
v 0.653298 0.797504 -0.345620
v 0.680214 0.822321 -0.345620
v 0.367045 1.052153 -0.170673
v 0.338811 1.028307 -0.170673
v 0.652669 0.789389 -0.269365
v 0.679629 0.814208 -0.170673
v 1.015144 0.642361 -0.052850
v 0.965401 0.589036 -0.011392
v 0.948571 0.571384 -0.052850
v 0.965401 0.589036 -0.094307
v 0.998685 0.624523 -0.094307
v 0.674133 0.833753 -0.094307
v 0.979384 0.587493 -0.081070
v 1.004466 0.614129 -0.081070
v 0.979384 0.587493 -0.345620
v 1.004466 0.614130 -0.345620
v 0.677735 0.815526 -0.269365
v 0.650766 0.790717 -0.170673
v 0.979197 0.579455 -0.269365
v 1.338639 0.461622 -0.052849
v 0.997919 0.624884 -0.011393
v 1.292669 0.404493 -0.011392
v 1.277113 0.385587 -0.052849
v 1.292669 0.404493 -0.094307
v 1.323432 0.442509 -0.094307
v 1.305578 0.404909 -0.081070
v 1.328762 0.433446 -0.081070
v 1.305578 0.404909 -0.345620
v 1.002384 0.607234 -0.269365
v 1.002384 0.607234 -0.170673
v 0.977263 0.580608 -0.170673
v 1.305726 0.396862 -0.269365
v 1.328935 0.425396 -0.269365
v 1.328935 0.425396 -0.170673
v 1.661882 0.303338 -0.052850
v 1.647780 0.282921 -0.011393
v 1.321985 0.443692 -0.011393
v 1.619183 0.242308 -0.011393
v 1.604693 0.222112 -0.052850
v 1.619183 0.242308 -0.094307
v 1.631171 0.244469 -0.081070
v 1.631170 0.244468 -0.345620
v 1.652715 0.274961 -0.345620
v 1.326856 0.434440 -0.345620
v 1.303808 0.397869 -0.170673
v 1.631692 0.236318 -0.269365
v 1.653273 0.266805 -0.170673
v 1.991798 0.159867 -0.052849
v 1.978605 0.138644 -0.011391
v 1.951771 0.096321 -0.011391
v 1.938132 0.075222 -0.052849
v 1.951771 0.096320 -0.094306
v 1.978605 0.138644 -0.094306
v 1.645532 0.284900 -0.094308
v 1.967181 0.097406 -0.081070
v 1.650785 0.275843 -0.081070
v 1.967182 0.097406 -0.345620
v 1.987395 0.129214 -0.345620
v 1.651340 0.267687 -0.269365
v 1.629751 0.237212 -0.170673
v 1.968187 0.089071 -0.269365
v 1.988448 0.120871 -0.170673
v 2.363205 0.003367 -0.052850
v 2.350844 -0.017948 -0.011393
v 2.325666 -0.060571 -0.011393
v 2.312848 -0.081876 -0.052850
v 2.325666 -0.060571 -0.094308
v 2.350844 -0.017947 -0.094308
v 2.319185 -0.051090 -0.081070
v 2.338153 -0.019028 -0.081070
v 1.985203 0.131411 -0.081070
v 2.319186 -0.051089 -0.345620
v 2.338153 -0.019028 -0.345620
v 1.986254 0.123070 -0.269365
v 1.965993 0.091273 -0.170673
v 2.320638 -0.059630 -0.170673
v 2.320638 -0.059630 -0.269365
v 2.339655 -0.027575 -0.269365
v 2.339655 -0.027575 -0.170673
v 2.350844 -0.017947 -0.422916
v 2.325666 -0.060571 -0.422916
v 2.312848 -0.081876 -0.381459
v 2.325666 -0.060571 -0.340002
v 2.350844 -0.017948 -0.340002
v 2.363205 0.003367 -0.381459
v 1.645532 0.284900 -0.422916
v 1.978605 0.138644 -0.422915
v 1.951771 0.096320 -0.422915
v 1.938132 0.075222 -0.381458
v 1.951771 0.096321 -0.340000
v 1.978605 0.138644 -0.340000
v 1.991798 0.159867 -0.381458
v 1.619183 0.242308 -0.422916
v 1.604693 0.222112 -0.381459
v 1.619183 0.242308 -0.340001
v 1.321985 0.443692 -0.340002
v 1.647780 0.282921 -0.340001
v 1.661882 0.303338 -0.381459
v 1.323432 0.442509 -0.422916
v 1.292669 0.404493 -0.422916
v 1.277113 0.385587 -0.381458
v 1.292669 0.404493 -0.340001
v 0.997919 0.624884 -0.340002
v 1.338639 0.461622 -0.381458
v 0.674133 0.833753 -0.422916
v 0.998685 0.624523 -0.422916
v 0.965401 0.589036 -0.422916
v 0.948571 0.571384 -0.381458
v 0.965401 0.589036 -0.340001
v 1.015144 0.642361 -0.381458
v 0.364862 1.070978 -0.422916
v 0.642795 0.798578 -0.422916
v 0.624699 0.782123 -0.381459
v 0.642795 0.798578 -0.340001
v 0.678527 0.831641 -0.340001
v 0.696170 0.848255 -0.381459
v 0.025309 1.343162 -0.422916
v -0.012907 1.310670 -0.422916
v 0.329405 1.038156 -0.422916
v -0.032238 1.294356 -0.381459
v 0.310449 1.022300 -0.381459
v -0.012907 1.310670 -0.340001
v 0.329405 1.038156 -0.340001
v 0.025308 1.343162 -0.340001
v 0.366832 1.069873 -0.340001
v 0.044190 1.359345 -0.381459
v 0.385304 1.085742 -0.381459
v 0.000000 0.000000 -0.055136
v 0.000000 1.201997 -0.055136
v 0.000000 0.803596 -0.055136
v 0.000000 0.338166 -0.055136
v 2.050000 0.000000 0.055136
v 0.056893 1.201997 0.055136
v 0.624786 0.803596 0.055136
v 1.466548 0.338166 0.055136
v 0.000000 0.000000 0.055136
v 0.000000 1.201997 0.055136
v 0.000000 0.803596 0.055136
v 0.000000 0.338166 0.055136
v 2.223035 -0.143940 -0.148449
v 2.223035 -0.143940 -0.291589
v 2.299619 -0.019554 -0.291589
v 2.299619 -0.019554 -0.148449
v 0.000411 1.152615 -0.148448
v 0.000411 1.152615 -0.291589
v 0.001354 1.294907 -0.291589
v 0.001354 1.294907 -0.148448
v 0.383447 1.029144 -0.148448
v 1.998528 0.108464 -0.148449
v 0.774785 0.741081 -0.148448
v 1.179840 0.497225 -0.148448
v 1.582849 0.291288 -0.148448
v 1.998528 0.108464 -0.291589
v 0.383447 1.029144 -0.291589
v 1.582849 0.291288 -0.291589
v 1.179840 0.497225 -0.291589
v 0.774785 0.741081 -0.291589
v 0.271743 0.936484 -0.291589
v 1.917946 -0.014522 -0.291589
v 0.670096 0.643333 -0.291589
v 1.084789 0.390652 -0.291589
v 1.496200 0.175498 -0.291589
v 1.917946 -0.014521 -0.148449
v 0.271744 0.936484 -0.148448
v 1.496200 0.175497 -0.148448
v 1.084789 0.390652 -0.148448
v 0.670096 0.643333 -0.148448
vn -0.0000 -0.0000 -1.0000
vn 0.5401 0.6741 0.5039
vn -0.0000 -0.0000 1.0000
vn -0.5357 -0.6739 0.5088
vn -0.5357 -0.6739 -0.5088
vn 0.5393 0.6726 -0.5068
vn 0.6217 0.7789 -0.0822
vn -0.6457 0.7613 -0.0588
vn -0.6203 -0.7800 0.0827
vn -0.6195 -0.7790 -0.0974
vn -0.6453 0.7608 0.0691
vn 0.6234 0.7819 -0.0002
vn -0.6220 -0.7830 0.0002
vn -0.6465 0.7630 -0.0000
vn 0.6209 0.7779 0.0968
vn 0.5262 0.6886 0.4990
vn -0.5251 -0.6870 0.5023
vn -0.5251 -0.6870 -0.5024
vn 0.5231 0.6834 -0.5092
vn 0.6042 0.7930 -0.0778
vn -0.6043 -0.7929 0.0787
vn -0.6034 -0.7921 -0.0924
vn 0.6057 0.7957 -0.0010
vn -0.6057 -0.7957 -0.0000
vn 0.6035 0.7920 0.0926
vn 0.4709 0.7285 0.4976
vn -0.4726 -0.7270 0.4981
vn -0.4726 -0.7270 -0.4981
vn 0.4690 0.7271 -0.5014
vn 0.5384 0.8390 -0.0783
vn -0.5397 -0.8383 0.0780
vn -0.5389 -0.8374 -0.0916
vn 0.5399 0.8417 0.0004
vn -0.5410 -0.8410 0.0001
vn 0.5379 0.8381 0.0913
vn 0.4235 0.7577 0.4966
vn -0.4261 -0.7545 0.4991
vn -0.4261 -0.7545 -0.4991
vn 0.4233 0.7564 -0.4987
vn 0.4851 0.8710 -0.0778
vn -0.4869 -0.8700 0.0782
vn -0.4862 -0.8690 -0.0918
vn 0.4865 0.8737 -0.0000
vn -0.4882 -0.8727 -0.0000
vn 0.4847 0.8700 0.0909
vn 0.3818 0.7767 0.5009
vn -0.3849 -0.7731 0.5041
vn -0.3849 -0.7731 -0.5041
vn 0.3813 0.7789 -0.4979
vn 0.4381 0.8955 -0.0789
vn -0.4407 -0.8942 0.0792
vn -0.4400 -0.8932 -0.0929
vn 0.4393 0.8983 -0.0003
vn -0.4420 -0.8970 -0.0000
vn 0.4376 0.8943 0.0937
vn 0.3436 0.7890 0.5093
vn -0.3463 -0.7876 0.5097
vn -0.3463 -0.7876 -0.5097
vn 0.8610 -0.5086 0.0048
vn 0.3462 0.7923 -0.5024
vn 0.3963 0.9140 -0.0872
vn -0.3985 -0.9142 0.0741
vn -0.3991 -0.9120 -0.0946
vn 0.3978 0.9174 0.0060
vn -0.3995 -0.9167 0.0060
vn 0.3963 0.9140 0.0869
vn 0.8610 -0.5086 -0.0048
vn 0.3338 0.7929 0.5097
vn -0.3324 -0.7925 0.5114
vn -0.3324 -0.7925 -0.5114
vn 0.3338 0.7929 -0.5097
vn 0.3892 0.9170 -0.0874
vn 0.8587 -0.5087 0.0627
vn 0.8580 -0.5083 -0.0736
vn -0.3890 -0.9182 0.0746
vn -0.3869 -0.9172 -0.0953
vn 0.8600 -0.5102 -0.0000
vn 0.3907 0.9205 0.0059
vn -0.3901 -0.9207 0.0059
vn 0.3892 0.9170 0.0874
vn 0.8515 -0.5243 -0.0000
vn -1.0000 0.0066 -0.0000
vn -0.3905 -0.9206 -0.0000
vn 0.3913 0.9203 -0.0000
vn -0.6230 -0.7822 -0.0000
vn 0.5710 0.8209 -0.0000
vn -0.5927 -0.8054 -0.0000
vn -0.5203 -0.8540 -0.0000
vn -0.4634 -0.8861 -0.0000
vn -0.4108 -0.9117 -0.0000
vn 0.5928 0.8053 -0.0000
vn 0.5158 0.8567 -0.0000
vn 0.4550 0.8905 -0.0000
vn 0.4026 0.9154 -0.0000
vt 0.686411 0.347093
vt 0.735536 0.347094
vt 0.735536 0.560150
vt 0.686411 0.644913
vt 0.803149 0.347094
vt 0.861025 0.347093
vt 0.861025 0.355358
vt 0.803149 0.437860
vt 0.394405 0.603629
vt 0.393105 0.653481
vt 0.388878 0.654442
vt 0.390167 0.604567
vt 0.462003 0.391281
vt 0.455281 0.345361
vt 0.460305 0.343603
vt 0.466912 0.389554
vt 0.361958 0.604578
vt 0.361942 0.653988
vt 0.357200 0.655023
vt 0.357216 0.605600
vt 0.352447 0.653989
vt 0.352462 0.604579
vt 0.487364 0.585303
vt 0.480756 0.631252
vt 0.475732 0.629495
vt 0.482458 0.583815
vt 0.399582 0.604816
vt 0.398291 0.654431
vt 0.576047 0.389614
vt 0.572354 0.390917
vt 0.565645 0.344928
vt 0.569418 0.343603
vt 0.553461 0.389615
vt 0.560091 0.343603
vt 0.563864 0.344928
vt 0.557154 0.390917
vt 0.402691 0.631570
vt 0.403890 0.585082
vt 0.413497 0.584980
vt 0.412313 0.631269
vt 0.585388 0.343604
vt 0.589389 0.343604
vt 0.588672 0.353115
vt 0.584666 0.353115
vt 0.544826 0.584505
vt 0.544811 0.630523
vt 0.535269 0.630256
vt 0.535284 0.584434
vt 0.524772 0.584195
vt 0.524757 0.630257
vt 0.516633 0.630524
vt 0.516647 0.584506
vt 0.584666 0.363594
vt 0.588672 0.363594
vt 0.589389 0.371692
vt 0.585388 0.371692
vt 0.423932 0.584724
vt 0.422741 0.631257
vt 0.431843 0.585049
vt 0.430644 0.631537
vt 0.395384 0.558881
vt 0.391150 0.559692
vt 0.467112 0.432591
vt 0.472053 0.431091
vt 0.361970 0.559892
vt 0.357229 0.560795
vt 0.352475 0.559892
vt 0.492505 0.543765
vt 0.487605 0.542782
vt 0.400572 0.560242
vt 0.581120 0.430870
vt 0.577405 0.432007
vt 0.548388 0.430872
vt 0.552103 0.432007
vt 0.404793 0.543541
vt 0.414399 0.543149
vt 0.544838 0.543220
vt 0.535295 0.543107
vt 0.524783 0.542862
vt 0.516659 0.543222
vt 0.424824 0.543383
vt 0.432746 0.543507
vt 0.395720 0.515141
vt 0.391498 0.515862
vt 0.468927 0.472918
vt 0.473951 0.471862
vt 0.361974 0.515946
vt 0.357234 0.516655
vt 0.352479 0.515946
vt 0.494403 0.502995
vt 0.489370 0.501849
vt 0.400910 0.515753
vt 0.582885 0.471986
vt 0.579102 0.472856
vt 0.546623 0.471987
vt 0.550406 0.472857
vt 0.405096 0.502220
vt 0.414697 0.502033
vt 0.544842 0.501997
vt 0.535299 0.501841
vt 0.524787 0.501602
vt 0.516663 0.501999
vt 0.425125 0.502020
vt 0.433049 0.502186
vt 0.395568 0.472399
vt 0.391349 0.473037
vt 0.468150 0.512303
vt 0.473310 0.511720
vt 0.361972 0.472917
vt 0.357234 0.473428
vt 0.352476 0.472917
vt 0.493761 0.463138
vt 0.488632 0.462360
vt 0.400769 0.472812
vt 0.582133 0.511641
vt 0.578278 0.512236
vt 0.547376 0.511643
vt 0.551220 0.512008
vt 0.404949 0.462369
vt 0.414547 0.461910
vt 0.544840 0.462177
vt 0.535298 0.461980
vt 0.524785 0.461750
vt 0.516661 0.462178
vt 0.424975 0.461900
vt 0.432904 0.462567
vt 0.395026 0.430975
vt 0.390823 0.431215
vt 0.465410 0.550753
vt 0.470661 0.550311
vt 0.361967 0.431202
vt 0.357224 0.431535
vt 0.352472 0.431202
vt 0.491114 0.424548
vt 0.485801 0.424418
vt 0.400224 0.431542
vt 0.579384 0.550054
vt 0.575461 0.550170
vt 0.550124 0.550057
vt 0.554071 0.550396
vt 0.404446 0.423968
vt 0.414037 0.423241
vt 0.544835 0.423554
vt 0.535292 0.423313
vt 0.524780 0.423087
vt 0.516655 0.423556
vt 0.424469 0.423455
vt 0.432395 0.423709
vt 0.394153 0.389738
vt 0.389955 0.389840
vt 0.460891 0.588779
vt 0.466206 0.588590
vt 0.361956 0.389775
vt 0.357214 0.389973
vt 0.352460 0.389775
vt 0.589064 0.413847
vt 0.589064 0.403342
vt 0.593462 0.405981
vt 0.593462 0.411234
vt 0.486657 0.386269
vt 0.481344 0.386080
vt 0.399369 0.389829
vt 0.574853 0.588706
vt 0.570775 0.588535
vt 0.554655 0.588708
vt 0.558651 0.588855
vt 0.403608 0.385119
vt 0.413217 0.384242
vt 0.544824 0.384649
vt 0.535281 0.384444
vt 0.524769 0.384127
vt 0.516645 0.384650
vt 0.423630 0.384550
vt 0.431576 0.384765
vt 0.584666 0.411234
vt 0.584666 0.405981
vt 0.393083 0.343603
vt 0.388878 0.343616
vt 0.455281 0.631257
vt 0.460534 0.631236
vt 0.361942 0.343603
vt 0.357200 0.343708
vt 0.352447 0.343604
vt 0.480985 0.343625
vt 0.475732 0.343603
vt 0.398291 0.343605
vt 0.569597 0.628899
vt 0.565645 0.628918
vt 0.559912 0.628901
vt 0.563864 0.628920
vt 0.402691 0.344225
vt 0.412284 0.343615
vt 0.584666 0.373472
vt 0.588622 0.373472
vt 0.589323 0.382985
vt 0.585366 0.382985
vt 0.585366 0.393464
vt 0.589323 0.393464
vt 0.588622 0.401562
vt 0.584666 0.401562
vt 0.544811 0.344178
vt 0.535268 0.343603
vt 0.524758 0.343604
vt 0.516633 0.344180
vt 0.422712 0.343603
vt 0.430644 0.344192
vt 0.384478 0.343606
vt 0.385555 0.389829
vt 0.380338 0.389738
vt 0.379269 0.343603
vt 0.440082 0.343624
vt 0.445755 0.386271
vt 0.440441 0.386082
vt 0.434830 0.343603
vt 0.368509 0.343708
vt 0.368522 0.389973
vt 0.363768 0.389774
vt 0.363755 0.343603
vt 0.373251 0.343603
vt 0.373264 0.389774
vt 0.496183 0.631248
vt 0.501794 0.588770
vt 0.507108 0.588582
vt 0.501435 0.631226
vt 0.376142 0.389840
vt 0.375064 0.343617
vt 0.589064 0.415628
vt 0.589064 0.426132
vt 0.584666 0.423520
vt 0.584666 0.418266
vt 0.386411 0.431543
vt 0.381211 0.430976
vt 0.450211 0.424549
vt 0.444899 0.424419
vt 0.593462 0.418266
vt 0.593462 0.423520
vt 0.368533 0.431535
vt 0.363778 0.431201
vt 0.373274 0.431200
vt 0.506312 0.550746
vt 0.511564 0.550304
vt 0.377009 0.431215
vt 0.386955 0.472814
vt 0.381756 0.472400
vt 0.452859 0.463141
vt 0.447730 0.462361
vt 0.368540 0.473429
vt 0.363786 0.472916
vt 0.373281 0.472915
vt 0.509051 0.512298
vt 0.514212 0.511714
vt 0.377535 0.473038
vt 0.387097 0.515754
vt 0.381907 0.515142
vt 0.453500 0.502999
vt 0.448467 0.501854
vt 0.368542 0.516654
vt 0.363787 0.515945
vt 0.373283 0.515944
vt 0.509827 0.472914
vt 0.514852 0.471857
vt 0.377685 0.515863
vt 0.386759 0.560244
vt 0.381570 0.558882
vt 0.451603 0.543771
vt 0.446702 0.542786
vt 0.368537 0.560794
vt 0.363783 0.559891
vt 0.373278 0.559891
vt 0.508013 0.432587
vt 0.512955 0.431088
vt 0.377337 0.559694
vt 0.385769 0.604818
vt 0.380591 0.603630
vt 0.446460 0.585308
vt 0.441555 0.583821
vt 0.368525 0.605599
vt 0.363771 0.604578
vt 0.373266 0.604577
vt 0.502904 0.391279
vt 0.507814 0.389552
vt 0.376355 0.604569
vt 0.384478 0.654433
vt 0.379291 0.653483
vt 0.439854 0.631259
vt 0.434830 0.629501
vt 0.368509 0.655022
vt 0.363755 0.653988
vt 0.373251 0.653987
vt 0.496183 0.345361
vt 0.501206 0.343603
vt 0.375064 0.654444
vt 0.985059 0.646154
vt 0.687241 0.646154
vt 0.772003 0.597028
vt 0.985059 0.597028
vt 0.985059 0.529416
vt 0.894292 0.529416
vt 0.976795 0.471542
vt 0.985059 0.471542
vt 0.121838 0.684296
vt 0.121837 0.700801
vt 0.105663 0.700801
vt 0.105663 0.684296
vt 0.118643 0.701570
vt 0.118643 0.721605
vt 0.105663 0.721553
vt 0.105663 0.701519
vt 0.040608 0.980539
vt 0.044899 0.944183
vt 0.061320 0.943189
vt 0.056942 0.980011
vt 0.088891 0.972854
vt 0.088881 0.935879
vt 0.104935 0.935878
vt 0.104946 0.972853
vt 0.072225 0.983578
vt 0.071205 0.946880
vt 0.087126 0.946779
vt 0.088144 0.983477
vt 0.088878 0.722662
vt 0.088891 0.684297
vt 0.104946 0.684296
vt 0.104932 0.722661
vt 0.045195 0.736171
vt 0.040608 0.684296
vt 0.054479 0.692108
vt 0.060399 0.730469
vt 0.018373 0.730606
vt 0.024027 0.692206
vt 0.037845 0.684296
vt 0.033617 0.736203
vt 0.023553 0.980121
vt 0.018922 0.943330
vt 0.035348 0.944211
vt 0.039890 0.980537
vt 0.069703 0.736807
vt 0.070160 0.684398
vt 0.086079 0.684296
vt 0.085622 0.736705
vt 0.027749 0.790258
vt 0.012410 0.785625
vt 0.026932 0.843153
vt 0.011279 0.839949
vt 0.029665 0.893719
vt 0.013593 0.891846
vt 0.066743 0.785445
vt 0.051434 0.790183
vt 0.068248 0.839758
vt 0.052618 0.843070
vt 0.066292 0.891671
vt 0.050234 0.893654
vt 0.104921 0.777675
vt 0.088865 0.777676
vt 0.104917 0.832098
vt 0.088862 0.832098
vt 0.104923 0.884162
vt 0.088867 0.884163
vt 0.084887 0.791279
vt 0.068966 0.791380
vt 0.085045 0.844696
vt 0.069124 0.844797
vt 0.085822 0.895771
vt 0.069903 0.895872
s 0
f 165/1/1 168/2/1 4/3/1 1/4/1
f 167/5/1 166/6/1 2/7/1 3/8/1
f 167/5/1 3/8/1 4/3/1 168/2/1
f 5/9/2 6/10/2 8/11/2 7/12/2
f 7/13/3 8/14/3 10/15/3 9/16/3
f 9/17/4 10/18/4 12/19/4 11/20/4
f 11/20/5 12/19/5 14/21/5 13/22/5
f 13/23/1 14/24/1 15/25/1 35/26/1
f 35/27/6 15/28/6 6/10/6 5/9/6
f 16/29/3 18/30/3 19/31/3 17/32/3
f 21/33/1 20/34/1 23/35/1 22/36/1
f 19/37/7 18/38/7 40/39/7 25/40/7
f 17/41/8 19/42/8 25/43/8 26/44/8
f 16/45/9 17/46/9 26/47/9 41/48/9
f 28/49/10 27/50/10 20/51/10 21/52/10
f 27/53/11 24/54/11 23/55/11 20/56/11
f 29/57/12 24/58/12 25/40/12 40/39/12
f 27/50/13 28/49/13 41/48/13 26/47/13
f 24/54/14 27/53/14 26/44/14 25/43/14
f 24/58/15 29/57/15 22/59/15 23/60/15
f 30/61/16 5/9/16 7/12/16 31/62/16
f 31/63/3 7/13/3 9/16/3 32/64/3
f 32/65/17 9/17/17 11/20/17 33/66/17
f 33/66/18 11/20/18 13/22/18 34/67/18
f 34/68/1 13/23/1 35/26/1 49/69/1
f 49/70/19 35/27/19 5/9/19 30/61/19
f 36/71/3 37/72/3 18/30/3 16/29/3
f 38/73/1 21/33/1 22/36/1 39/74/1
f 18/38/20 37/75/20 43/76/20 40/39/20
f 36/77/21 16/45/21 41/48/21 55/78/21
f 42/79/22 28/49/22 21/52/22 38/80/22
f 54/81/23 29/57/23 40/39/23 43/76/23
f 28/49/24 42/79/24 55/78/24 41/48/24
f 29/57/25 54/81/25 39/82/25 22/59/25
f 44/83/26 30/61/26 31/62/26 58/84/26
f 58/85/3 31/63/3 32/64/3 45/86/3
f 45/87/27 32/65/27 33/66/27 46/88/27
f 46/88/28 33/66/28 34/67/28 47/89/28
f 47/90/1 34/68/1 49/69/1 48/91/1
f 48/92/29 49/70/29 30/61/29 44/83/29
f 50/93/3 51/94/3 37/72/3 36/71/3
f 52/95/1 38/73/1 39/74/1 53/96/1
f 37/75/30 51/97/30 67/98/30 43/76/30
f 50/99/31 36/77/31 55/78/31 68/100/31
f 56/101/32 42/79/32 38/80/32 52/102/32
f 66/103/33 54/81/33 43/76/33 67/98/33
f 42/79/34 56/101/34 68/100/34 55/78/34
f 54/81/35 66/103/35 53/104/35 39/82/35
f 57/105/36 44/83/36 58/84/36 74/106/36
f 74/107/3 58/85/3 45/86/3 59/108/3
f 59/109/37 45/87/37 46/88/37 60/110/37
f 60/110/38 46/88/38 47/89/38 61/111/38
f 61/112/1 47/90/1 48/91/1 62/113/1
f 62/114/39 48/92/39 44/83/39 57/105/39
f 63/115/3 64/116/3 51/94/3 50/93/3
f 65/117/1 52/95/1 53/96/1 81/118/1
f 51/97/40 64/119/40 71/120/40 67/98/40
f 63/121/41 50/99/41 68/100/41 82/122/41
f 69/123/42 56/101/42 52/102/42 65/124/42
f 70/125/43 66/103/43 67/98/43 71/120/43
f 56/101/44 69/123/44 82/122/44 68/100/44
f 66/103/45 70/125/45 81/126/45 53/104/45
f 72/127/46 57/105/46 74/106/46 73/128/46
f 73/129/3 74/107/3 59/108/3 75/130/3
f 75/131/47 59/109/47 60/110/47 76/132/47
f 76/132/48 60/110/48 61/111/48 77/133/48
f 77/134/1 61/112/1 62/113/1 91/135/1
f 91/136/49 62/114/49 57/105/49 72/127/49
f 78/137/3 93/138/3 64/116/3 63/115/3
f 79/139/1 65/117/1 81/118/1 80/140/1
f 64/119/50 93/141/50 84/142/50 71/120/50
f 78/143/51 63/121/51 82/122/51 97/144/51
f 83/145/52 69/123/52 65/124/52 79/146/52
f 96/147/53 70/125/53 71/120/53 84/142/53
f 69/123/54 83/145/54 97/144/54 82/122/54
f 70/125/55 96/147/55 80/148/55 81/126/55
f 85/149/56 72/127/56 73/128/56 86/150/56
f 86/151/3 73/129/3 75/130/3 87/152/3
f 87/153/57 75/131/57 76/132/57 88/154/57
f 88/154/58 76/132/58 77/133/58 89/155/58
f 100/156/59 103/157/59 104/158/59 105/159/59
f 89/160/1 77/134/1 91/135/1 90/161/1
f 90/162/60 91/136/60 72/127/60 85/149/60
f 92/163/3 108/164/3 93/138/3 78/137/3
f 94/165/1 79/139/1 80/140/1 95/166/1
f 93/141/61 108/167/61 99/168/61 84/142/61
f 92/169/62 78/143/62 97/144/62 112/170/62
f 98/171/63 83/145/63 79/146/63 94/172/63
f 111/173/64 96/147/64 84/142/64 99/168/64
f 83/145/65 98/171/65 112/170/65 97/144/65
f 96/147/66 111/173/66 95/174/66 80/148/66
f 103/157/67 100/156/67 101/175/67 102/176/67
f 100/177/68 85/149/68 86/150/68 101/178/68
f 101/179/3 86/151/3 87/152/3 102/180/3
f 102/181/69 87/153/69 88/154/69 103/182/69
f 103/182/70 88/154/70 89/155/70 104/183/70
f 104/184/1 89/160/1 90/161/1 105/185/1
f 105/186/71 90/162/71 85/149/71 100/177/71
f 106/187/3 107/188/3 108/164/3 92/163/3
f 109/189/1 94/165/1 95/166/1 110/190/1
f 108/167/72 107/191/72 116/192/72 99/168/72
f 107/193/73 106/194/73 113/195/73 116/196/73
f 115/197/74 114/198/74 109/199/74 110/200/74
f 106/201/75 92/169/75 112/170/75 113/202/75
f 114/203/76 98/171/76 94/172/76 109/204/76
f 114/198/77 115/197/77 116/196/77 113/195/77
f 115/205/78 111/173/78 99/168/78 116/192/78
f 98/171/79 114/203/79 113/202/79 112/170/79
f 111/173/80 115/205/80 110/206/80 95/174/80
f 117/207/71 124/208/71 129/209/71 122/210/71
f 118/211/1 125/212/1 124/213/1 117/214/1
f 119/215/70 126/216/70 125/217/70 118/218/70
f 120/219/69 127/220/69 126/216/69 119/215/69
f 121/221/3 128/222/3 127/223/3 120/224/3
f 122/210/68 129/209/68 128/225/68 121/226/68
f 119/227/67 122/228/67 121/229/67 120/230/67
f 124/208/60 123/231/60 135/232/60 129/209/60
f 125/212/1 130/233/1 123/234/1 124/213/1
f 122/228/59 119/227/59 118/235/59 117/236/59
f 126/216/58 131/237/58 130/238/58 125/217/58
f 127/220/57 132/239/57 131/237/57 126/216/57
f 128/222/3 134/240/3 132/241/3 127/223/3
f 129/209/56 135/232/56 134/242/56 128/225/56
f 123/231/49 136/243/49 141/244/49 135/232/49
f 130/233/1 137/245/1 136/246/1 123/234/1
f 131/237/48 138/247/48 137/248/48 130/238/48
f 132/239/47 139/249/47 138/247/47 131/237/47
f 134/240/3 133/250/3 139/251/3 132/241/3
f 135/232/46 141/244/46 133/252/46 134/242/46
f 136/243/39 143/253/39 147/254/39 141/244/39
f 137/245/1 144/255/1 143/256/1 136/246/1
f 138/247/38 145/257/38 144/258/38 137/248/38
f 139/249/37 146/259/37 145/257/37 138/247/37
f 133/250/3 140/260/3 146/261/3 139/251/3
f 141/244/36 147/254/36 140/262/36 133/252/36
f 143/253/29 142/263/29 153/264/29 147/254/29
f 144/255/1 149/265/1 142/266/1 143/256/1
f 145/257/28 150/267/28 149/268/28 144/258/28
f 146/259/27 151/269/27 150/267/27 145/257/27
f 140/260/3 152/270/3 151/271/3 146/261/3
f 147/254/26 153/264/26 152/272/26 140/262/26
f 142/263/19 148/273/19 164/274/19 153/264/19
f 149/265/1 156/275/1 148/276/1 142/266/1
f 150/267/18 158/277/18 156/278/18 149/268/18
f 151/269/17 160/279/17 158/277/17 150/267/17
f 152/270/3 162/280/3 160/281/3 151/271/3
f 153/264/16 164/274/16 162/282/16 152/272/16
f 148/273/6 154/283/6 163/284/6 164/274/6
f 156/275/1 155/285/1 154/286/1 148/276/1
f 158/277/5 157/287/5 155/288/5 156/278/5
f 160/279/4 159/289/4 157/287/4 158/277/4
f 162/280/3 161/290/3 159/291/3 160/281/3
f 164/274/2 163/284/2 161/292/2 162/282/2
f 173/293/3 169/294/3 172/295/3 176/296/3
f 175/297/3 171/298/3 170/299/3 174/300/3
f 175/297/3 176/296/3 172/295/3 171/298/3
f 178/301/81 179/302/81 180/303/81 177/304/81
f 182/305/82 181/306/82 184/307/82 183/308/82
f 180/309/3 186/310/3 200/311/3 177/312/3
f 177/313/83 200/314/83 196/315/83 178/316/83
f 179/317/84 190/318/84 186/319/84 180/320/84
f 201/321/85 181/322/85 182/323/85 195/324/85
f 185/325/3 184/326/3 181/327/3 201/328/3
f 195/329/1 182/330/1 183/331/1 191/332/1
f 178/333/1 196/334/1 190/335/1 179/336/1
f 191/337/86 183/338/86 184/339/86 185/340/86
f 191/332/1 194/341/1 197/342/1 195/329/1
f 194/341/1 193/343/1 198/344/1 197/342/1
f 193/343/1 192/345/1 199/346/1 198/344/1
f 192/345/1 190/335/1 196/334/1 199/346/1
f 201/328/3 204/347/3 187/348/3 185/325/3
f 204/347/3 203/349/3 188/350/3 187/348/3
f 203/349/3 202/351/3 189/352/3 188/350/3
f 202/351/3 200/311/3 186/310/3 189/352/3
f 195/324/87 197/353/87 204/354/87 201/321/87
f 197/353/88 198/355/88 203/356/88 204/354/88
f 198/355/89 199/357/89 202/358/89 203/356/89
f 199/357/90 196/315/90 200/314/90 202/358/90
f 185/340/91 187/359/91 194/360/91 191/337/91
f 187/359/92 188/361/92 193/362/92 194/360/92
f 188/361/93 189/363/93 192/364/93 193/362/93
f 189/363/94 186/319/94 190/318/94 192/364/94
