# Blender 4.5.1 LTS
# www.blender.org
o GEO_FeudalJapaneseHouse_StoneSteps
v -0.525000 0.437951 0.492918
v 0.525000 0.437951 0.492918
v -0.525000 0.084398 -0.138438
v -0.525000 0.437951 0.251973
v -0.525000 0.084398 0.043818
v -0.525000 0.261174 0.042322
v -0.525000 0.261174 0.258806
v 0.525000 0.437951 0.251973
v 0.525000 0.084398 -0.138438
v 0.525000 0.261174 0.258806
v 0.525000 0.261174 0.042322
v 0.525000 0.084398 0.043818
v -0.525000 0.247382 0.492918
v 0.525000 0.247382 0.492918
v 0.525000 0.247382 0.251973
v -0.525000 0.247382 0.251973
v -0.525000 0.079848 0.258806
v 0.525000 0.079848 0.258806
v 0.525000 0.079848 0.042322
v -0.525000 0.079848 0.042322
v -0.525000 0.000000 0.043818
v 0.525000 0.000000 0.043818
v 0.525000 0.000000 -0.138438
v -0.525000 -0.000000 -0.138438
v 0.576912 0.461005 0.161866
v 0.576912 0.000000 -0.287762
v 0.576912 0.461005 0.501588
v 0.576912 0.000000 0.501588
v 0.520614 0.000000 0.501588
v 0.520614 0.000000 -0.287762
v 0.520614 0.461005 0.501588
v 0.520614 0.461005 0.161866
v -0.576912 0.461005 0.161866
v -0.576912 0.461005 0.501588
v -0.576912 0.000000 -0.287761
v -0.576912 0.000000 0.501588
v -0.520614 0.000000 0.501588
v -0.520614 0.461005 0.501588
v -0.520614 0.000000 -0.287761
v -0.520614 0.461005 0.161866
vn -0.0000 1.0000 -0.0000
vn -0.0000 -0.0000 -1.0000
vn 1.0000 -0.0000 -0.0000
vn -1.0000 -0.0000 -0.0000
vn -0.0000 0.6982 -0.7159
vn -0.0000 -0.0000 1.0000
vt 0.299759 0.523753
vt 0.257313 0.523753
vt 0.257313 0.338219
vt 0.299759 0.338219
vt 0.132979 0.480189
vt 0.171116 0.480189
vt 0.171116 0.665725
vt 0.132979 0.665725
vt 0.006199 0.480189
vt 0.038306 0.480189
vt 0.038306 0.665725
vt 0.006199 0.665725
vt 0.317120 0.338219
vt 0.317120 0.523750
vt 0.302251 0.523750
vt 0.302251 0.338219
vt 0.173608 0.622159
vt 0.211860 0.622159
vt 0.211860 0.654103
vt 0.173608 0.654103
vt 0.299887 0.595882
vt 0.257313 0.595882
vt 0.257313 0.562310
vt 0.299887 0.562310
vt 0.246558 0.637027
vt 0.214353 0.637027
vt 0.214353 0.622159
vt 0.246558 0.622159
vt 0.257313 0.598375
vt 0.295565 0.598375
vt 0.295565 0.630319
vt 0.257313 0.630319
vt 0.299888 0.559817
vt 0.257313 0.559817
vt 0.257313 0.526246
vt 0.299888 0.526246
vt 0.096915 0.665726
vt 0.096915 0.480190
vt 0.130487 0.480190
vt 0.130487 0.665726
vt 0.246558 0.654387
vt 0.214353 0.654387
vt 0.214353 0.639519
vt 0.246558 0.639519
vt 0.072741 0.480189
vt 0.072741 0.665726
vt 0.040799 0.665726
vt 0.040799 0.480189
vt 0.317342 0.645222
vt 0.317342 0.655139
vt 0.257313 0.655139
vt 0.257313 0.645222
vt 0.075234 0.480189
vt 0.086956 0.480189
vt 0.086956 0.576468
vt 0.075234 0.576468
vt 0.087411 0.477697
vt 0.006199 0.398248
vt 0.006199 0.338219
vt 0.087411 0.338219
vt 0.171116 0.338219
vt 0.171116 0.477697
vt 0.089904 0.477697
vt 0.089904 0.417668
vt 0.086956 0.660422
vt 0.077038 0.660422
vt 0.077038 0.578962
vt 0.086956 0.578962
vt 0.326512 0.607708
vt 0.316595 0.607708
vt 0.316595 0.526246
vt 0.326512 0.526246
vt 0.254820 0.338219
vt 0.254820 0.477696
vt 0.173608 0.477696
vt 0.173608 0.417667
vt 0.254820 0.619667
vt 0.173608 0.540218
vt 0.173608 0.480189
vt 0.254820 0.480189
vt 0.302381 0.526246
vt 0.314103 0.526246
vt 0.314103 0.622523
vt 0.302381 0.622523
vt 0.317344 0.632811
vt 0.317344 0.642729
vt 0.257314 0.642729
vt 0.257314 0.632811
s 0
f 4/1/1 1/2/1 2/3/1 8/4/1
f 10/5/1 11/6/1 6/7/1 7/8/1
f 12/9/1 9/10/1 3/11/1 5/12/1
f 3/13/2 9/14/2 23/15/2 24/16/2
f 11/17/3 10/18/3 18/19/3 19/20/3
f 1/21/4 4/22/4 16/23/4 13/24/4
f 9/25/3 12/26/3 22/27/3 23/28/3
f 7/29/4 6/30/4 20/31/4 17/32/4
f 8/33/3 2/34/3 14/35/3 15/36/3
f 4/37/2 8/38/2 15/39/2 16/40/2
f 5/41/4 3/42/4 24/43/4 21/44/4
f 6/45/2 11/46/2 19/47/2 20/48/2
f 25/49/1 32/50/1 31/51/1 27/52/1
f 26/53/5 30/54/5 32/55/5 25/56/5
f 26/57/3 25/58/3 27/59/3 28/60/3
f 30/61/4 29/62/4 31/63/4 32/64/4
f 27/65/6 31/66/6 29/67/6 28/68/6
f 38/69/6 34/70/6 36/71/6 37/72/6
f 35/73/4 36/74/4 34/75/4 33/76/4
f 39/77/3 40/78/3 38/79/3 37/80/3
f 39/81/5 35/82/5 33/83/5 40/84/5
f 40/85/1 33/86/1 34/87/1 38/88/1
