# Blender 4.5.1 LTS
# www.blender.org
o GEO_FeudalJapaneseHouse_StoneFoundation
v -1.000000 0.000000 -0.051092
v 1.000000 0.000000 -0.051092
v -1.000000 0.500000 -0.051092
v 1.000000 0.500000 -0.051092
v -1.000000 0.500000 0.057313
v -1.000000 0.000000 0.057313
v 1.000000 0.000000 0.057313
v 1.000000 0.500000 0.057313
v -1.000000 0.462017 -0.099445
v 1.000000 0.462017 -0.099445
v -1.000000 0.502017 -0.099445
v 1.000000 0.502017 -0.099445
v -1.000000 0.502017 0.053615
v -1.000000 0.462017 0.053615
v 1.000000 0.462017 0.053615
v 1.000000 0.502017 0.053615
vn -0.0000 -0.0000 -1.0000
vn -0.0000 -0.0000 1.0000
vn -0.0000 1.0000 -0.0000
vn -0.0000 -1.0000 -0.0000
vt 0.692463 0.703783
vt 0.744273 0.703783
vt 0.744274 0.911111
vt 0.692463 0.911111
vt 0.744274 0.911111
vt 0.744274 0.703783
vt 0.796084 0.703783
vt 0.796084 0.911111
vt 0.071756 0.999395
vt 0.064959 0.999395
vt 0.064959 0.669595
vt 0.071756 0.669595
vt 0.038951 0.999384
vt 0.012943 0.999384
vt 0.012943 0.669595
vt 0.038951 0.669595
vt 0.064959 0.999380
vt 0.038951 0.999380
vt 0.038951 0.669594
vt 0.064959 0.669594
s 0
f 1/1/1 3/2/1 4/3/1 2/4/1
f 6/5/2 7/6/2 8/7/2 5/8/2
f 9/9/1 11/10/1 12/11/1 10/12/1
f 11/13/3 13/14/3 16/15/3 12/16/3
f 10/17/4 15/18/4 14/19/4 9/20/4
