# Blender 4.5.1 LTS
# www.blender.org
o GEO_FeudalJapaneseHouse_WallCorner_C
v -0.051791 0.000000 2.001875
v -0.051791 0.000000 -0.051551
v 2.000000 0.000000 -0.051551
v -0.051791 2.997074 2.001875
v -0.051791 3.002927 -0.051551
v 2.000000 3.000000 -0.051551
v 0.055591 0.000000 0.058721
v 0.055591 0.000000 2.001875
v 0.055591 3.002927 0.058721
v 2.000000 0.000000 0.058721
v 2.000000 3.000000 0.058721
v 0.055591 2.997074 2.001875
vn 1.0000 -0.0000 -0.0000
vn -0.0000 -0.0000 1.0000
vn -0.0000 -0.0000 -1.0000
vn -1.0000 -0.0000 -0.0000
vt 0.833666 0.505559
vt 0.833666 0.664048
vt 0.668711 0.663852
vt 0.668711 0.505559
vt 0.999673 0.503789
vt 0.833428 0.503887
vt 0.833428 0.338023
vt 0.999673 0.338023
vt 0.667253 0.338730
vt 0.830611 0.338828
vt 0.830611 0.504101
vt 0.667253 0.504101
vt 0.833863 0.664144
vt 0.833666 0.505559
vt 0.997968 0.505559
vt 0.997968 0.664144
s 0
f 7/1/1 9/2/1 12/3/1 8/4/1
f 11/5/2 9/6/2 7/7/2 10/8/2
f 5/9/3 6/10/3 3/11/3 2/12/3
f 4/13/4 5/14/4 2/15/4 1/16/4
