# Blender 4.5.1 LTS
# www.blender.org
o GEO_FeudalJapaneseHouse_WallCorner_A
v -0.051791 0.000000 2.001875
v -0.051791 0.000000 -0.051551
v 2.000000 0.000000 -0.051551
v -0.051791 2.997074 2.001875
v -0.051791 3.002927 -0.051551
v 2.000000 3.000000 -0.051551
v 0.055591 0.000000 0.058721
v 0.055591 0.000000 2.001875
v 0.055591 3.002927 0.058721
v 2.000000 0.000000 0.058721
v 2.000000 3.000000 0.058721
v 0.055591 2.997074 2.001875
v 0.086357 1.278280 2.001875
v 1.980998 1.277938 0.085387
v 1.980998 1.457987 0.085387
v 0.086357 1.277596 0.085387
v 0.086357 1.457856 2.001875
v 0.086357 1.458118 0.085387
v 1.980998 1.277938 -0.077758
v -0.078903 1.277596 -0.077758
v -0.078903 1.278280 2.001875
v 1.980998 1.457987 -0.077758
v -0.078903 1.458118 -0.077758
v -0.078903 1.457856 2.001875
vn 1.0000 -0.0000 -0.0000
vn -0.0000 -0.0000 1.0000
vn -1.0000 -0.0000 -0.0000
vn 0.0001 1.0000 -0.0000
vn 0.0002 -1.0000 -0.0001
vn -0.0000 -0.0000 -1.0000
vn -0.0001 1.0000 0.0001
vn -0.0002 -1.0000 0.0003
vt 0.090378 0.673131
vt 0.090338 0.971920
vt 0.062335 0.971920
vt 0.062229 0.673131
vt 0.829753 0.657625
vt 0.829753 0.500125
vt 0.986601 0.500432
vt 0.986601 0.657625
vt 0.162656 0.998757
vt 0.141946 0.998757
vt 0.141918 0.673131
vt 0.162729 0.673131
vt 0.006035 0.673131
vt 0.034037 0.673131
vt 0.034079 0.997355
vt 0.005929 0.997355
vt 0.188164 0.673131
vt 0.188164 0.994337
vt 0.162729 0.968567
vt 0.671259 0.500279
vt 0.671259 0.657625
vt 0.213598 0.673130
vt 0.213598 0.994344
vt 0.188164 0.994344
vt 0.188164 0.698900
vt 0.828821 0.342625
vt 0.986259 0.342779
vt 0.986259 0.500125
vt 0.828821 0.500125
vt 0.671259 0.342932
vt 0.671259 0.500125
vt 0.062229 0.994282
vt 0.034079 0.994282
vt 0.034099 0.673131
vt 0.062175 0.673131
vt 0.116149 0.997359
vt 0.116149 0.673131
vt 0.141918 0.971924
vt 0.090379 0.997354
vt 0.090378 0.673131
vt 0.116149 0.698566
vt 0.116149 0.997354
s 0
f 18/1/1 17/2/1 13/3/1 16/4/1
f 7/5/1 9/6/1 12/7/1 8/8/1
f 14/9/2 15/10/2 18/11/2 16/12/2
f 21/13/3 24/14/3 23/15/3 20/16/3
f 22/17/4 23/18/4 18/19/4 15/12/4
f 11/20/2 9/6/2 7/5/2 10/21/2
f 20/22/5 19/23/5 14/24/5 16/25/5
f 5/26/6 6/27/6 3/28/6 2/29/6
f 4/30/3 5/26/3 2/29/3 1/31/3
f 20/32/6 23/33/6 22/34/6 19/35/6
f 23/36/7 24/37/7 17/11/7 18/38/7
f 21/39/8 20/40/8 16/41/8 13/42/8
