# Blender 4.5.1 LTS
# www.blender.org
o GEO_FeudalJapaneseHouse_Window_A
v -1.000000 0.000000 -0.055136
v -1.000000 3.000000 -0.055136
v 1.000000 0.000000 -0.055136
v 1.000000 3.000000 -0.055136
v -1.000000 3.000000 0.055136
v -1.000000 0.000000 0.055136
v 1.000000 0.000000 0.055136
v 1.000000 3.000000 0.055136
v -1.020000 1.277938 -0.080984
v -1.020000 1.457938 -0.080984
v 1.020000 1.277938 -0.080984
v 1.020000 1.457938 -0.080984
v -1.020000 1.457938 0.080984
v -1.020000 1.277938 0.080984
v 1.020000 1.277938 0.080984
v 1.020000 1.457938 0.080984
v -1.000000 1.500000 -0.055136
v 1.000000 1.500000 -0.055136
v -1.000000 1.500000 0.055136
v 1.000000 1.500000 0.055136
v -0.750253 2.597683 -0.055136
v 0.750253 2.597683 -0.055136
v -0.750253 2.597683 0.055136
v 0.750253 2.597683 0.055136
v -0.750253 1.597178 -0.055136
v 0.750253 1.597178 -0.055136
v -0.750253 1.597178 0.055136
v 0.750253 1.597178 0.055136
v 0.223450 1.597178 -0.026201
v 0.282870 1.597178 -0.026201
v 0.223450 1.597178 0.026201
v 0.282870 1.597178 0.026201
v 0.223450 2.598240 -0.026201
v 0.282870 2.598240 -0.026201
v 0.282870 2.598240 0.026201
v 0.223450 2.598240 0.026201
v 0.466954 1.597178 -0.026201
v 0.526374 1.597178 -0.026201
v 0.466954 1.597178 0.026201
v 0.526374 1.597178 0.026201
v 0.466954 2.598240 -0.026201
v 0.526374 2.598240 -0.026201
v 0.526374 2.598240 0.026201
v 0.466954 2.598240 0.026201
v -0.029710 1.597178 -0.026201
v 0.029710 1.597178 -0.026201
v -0.029710 1.597178 0.026201
v 0.029710 1.597178 0.026201
v -0.029710 2.598240 -0.026201
v 0.029710 2.598240 -0.026201
v 0.029710 2.598240 0.026201
v -0.029710 2.598240 0.026201
v 0.760808 1.761913 -0.018632
v 0.760808 1.809448 -0.018632
v 0.760808 1.761913 0.018632
v 0.760808 1.809448 0.018632
v -0.760808 1.761913 -0.018632
v -0.760808 1.809449 -0.018632
v -0.760808 1.809449 0.018632
v -0.760808 1.761913 0.018632
v 0.760808 1.962346 -0.018632
v 0.760808 2.009882 -0.018632
v 0.760808 1.962346 0.018632
v 0.760808 2.009882 0.018632
v -0.760808 1.962346 -0.018632
v -0.760808 2.009882 -0.018632
v -0.760808 2.009882 0.018632
v -0.760808 1.962346 0.018632
v 0.760808 2.167733 -0.018632
v 0.760808 2.215269 -0.018632
v 0.760808 2.167733 0.018632
v 0.760808 2.215269 0.018632
v -0.760808 2.167733 -0.018632
v -0.760808 2.215270 -0.018632
v -0.760808 2.215270 0.018632
v -0.760808 2.167733 0.018632
v 0.760808 2.371367 -0.018632
v 0.760808 2.418903 -0.018632
v 0.760808 2.371367 0.018632
v 0.760808 2.418903 0.018632
v -0.760808 2.371367 -0.018632
v -0.760808 2.418903 -0.018632
v -0.760808 2.418903 0.018632
v -0.760808 2.371367 0.018632
v -0.526374 1.597178 -0.026201
v -0.466954 1.597178 -0.026201
v -0.526374 1.597178 0.026201
v -0.466954 1.597178 0.026201
v -0.526374 2.598240 -0.026201
v -0.466954 2.598240 -0.026201
v -0.466954 2.598240 0.026201
v -0.526374 2.598240 0.026201
v -0.282888 1.597178 -0.026201
v -0.223468 1.597178 -0.026201
v -0.282852 1.597178 0.026201
v -0.223432 1.597178 0.026201
v -0.282888 2.598240 -0.026201
v -0.223468 2.598240 -0.026201
v -0.223432 2.598240 0.026201
v -0.282852 2.598240 0.026201
v -0.750253 2.597683 -0.033082
v 0.750253 2.597683 -0.033082
v -0.750253 2.597683 0.033082
v 0.750253 2.597683 0.033082
v -0.750253 1.597178 -0.033082
v 0.750253 1.597178 -0.033082
v -0.750253 1.597178 0.033082
v 0.750253 1.597178 0.033082
v -0.703652 2.551083 -0.033082
v 0.703652 2.551083 -0.033082
v -0.703652 2.551083 0.033082
v 0.703652 2.551083 0.033082
v -0.703652 1.643778 -0.033082
v 0.703652 1.643778 -0.033082
v -0.703652 1.643778 0.033082
v 0.703652 1.643778 0.033082
v 1.000000 1.300000 -0.055136
v -1.000000 1.300000 -0.055136
v -1.000000 1.300000 0.055136
v 1.000000 1.300000 0.055136
vn -0.0000 1.0000 -0.0000
vn 1.0000 -0.0000 -0.0000
vn -0.0000 -0.0000 -1.0000
vn -0.0000 -0.0000 1.0000
vn -0.0000 -1.0000 -0.0000
vn -1.0000 -0.0000 -0.0000
vn -1.0000 -0.0000 0.0007
vn 1.0000 -0.0000 -0.0007
vt 0.851475 0.461940
vt 0.851475 0.367862
vt 0.864537 0.367862
vt 0.864537 0.461940
vt 0.816514 0.490189
vt 0.816514 0.603866
vt 0.809307 0.603866
vt 0.809307 0.490189
vt 0.006725 0.673781
vt 0.028284 0.673781
vt 0.028284 0.918067
vt 0.006726 0.918067
vt 0.029058 0.918067
vt 0.029058 0.673784
vt 0.050617 0.673784
vt 0.050617 0.918067
vt 0.070760 0.918067
vt 0.051362 0.918067
vt 0.051361 0.673785
vt 0.070760 0.673785
vt 0.090903 0.918067
vt 0.071504 0.918067
vt 0.071504 0.673783
vt 0.090903 0.673783
vt 0.832333 0.337043
vt 0.832333 0.464789
vt 0.669573 0.464789
vt 0.669573 0.337043
vt 0.995611 0.503161
vt 0.833399 0.503161
vt 0.833399 0.483573
vt 0.995611 0.483573
vt 0.842146 0.663229
vt 0.684295 0.663229
vt 0.669181 0.633039
vt 0.857757 0.633039
vt 0.983467 0.366719
vt 0.850705 0.366719
vt 0.833399 0.336670
vt 0.995611 0.336670
vt 0.819288 0.602649
vt 0.819288 0.489338
vt 0.832333 0.484442
vt 0.832333 0.631842
vt 0.683047 0.489338
vt 0.683047 0.602649
vt 0.669573 0.631842
vt 0.669573 0.484442
vt 0.983467 0.474056
vt 0.850705 0.474056
vt 0.802442 0.622972
vt 0.802442 0.490012
vt 0.808604 0.490012
vt 0.808604 0.622972
vt 0.801825 0.500833
vt 0.684171 0.500833
vt 0.684171 0.490389
vt 0.801825 0.490389
vt 0.122287 0.856652
vt 0.128563 0.856652
vt 0.128563 0.863767
vt 0.122287 0.863767
vt 0.115280 0.858512
vt 0.115280 0.851397
vt 0.121556 0.851397
vt 0.121556 0.858512
vt 0.213956 0.874564
vt 0.220959 0.874564
vt 0.220959 0.982000
vt 0.213956 0.982000
vt 0.229717 0.884786
vt 0.222600 0.884786
vt 0.222600 0.764910
vt 0.229717 0.764910
vt 0.303476 0.674114
vt 0.310291 0.674114
vt 0.310291 0.784508
vt 0.303476 0.784508
vt 0.237599 0.793703
vt 0.230483 0.793703
vt 0.230483 0.673828
vt 0.237599 0.673828
vt 0.176586 0.852273
vt 0.182862 0.852273
vt 0.182862 0.859388
vt 0.176586 0.859388
vt 0.143306 0.864643
vt 0.143306 0.857528
vt 0.149582 0.857528
vt 0.149582 0.864643
vt 0.204761 0.882445
vt 0.211763 0.882445
vt 0.211763 0.989882
vt 0.204761 0.989882
vt 0.261246 0.793704
vt 0.254130 0.793704
vt 0.254130 0.673829
vt 0.261246 0.673829
vt 0.295593 0.785337
vt 0.302409 0.785337
vt 0.302409 0.895733
vt 0.295593 0.895733
vt 0.237600 0.914563
vt 0.230483 0.914563
vt 0.230483 0.794694
vt 0.237600 0.794694
vt 0.091634 0.854900
vt 0.097910 0.854900
vt 0.097910 0.862016
vt 0.091634 0.862016
vt 0.098640 0.862016
vt 0.098640 0.854900
vt 0.104916 0.854900
vt 0.104916 0.862016
vt 0.310294 0.785233
vt 0.317297 0.785233
vt 0.317297 0.892668
vt 0.310294 0.892668
vt 0.245482 0.793704
vt 0.238365 0.793704
vt 0.238365 0.673829
vt 0.245482 0.673829
vt 0.303038 0.867226
vt 0.309853 0.867226
vt 0.309853 0.977621
vt 0.303038 0.977621
vt 0.261246 0.914564
vt 0.254130 0.914564
vt 0.254130 0.794689
vt 0.261246 0.794689
vt 0.170955 0.858075
vt 0.175418 0.858075
vt 0.175418 0.863767
vt 0.170955 0.863767
vt 0.187679 0.856323
vt 0.187679 0.862015
vt 0.183216 0.862015
vt 0.183216 0.856323
vt 0.280514 0.856323
vt 0.276051 0.856323
vt 0.276051 0.674115
vt 0.280514 0.674115
vt 0.173228 0.856761
vt 0.167535 0.856761
vt 0.167535 0.674553
vt 0.173228 0.674553
vt 0.280868 0.770892
vt 0.285331 0.770892
vt 0.285331 0.953099
vt 0.280868 0.953099
vt 0.130314 0.856323
vt 0.124621 0.856323
vt 0.124621 0.674120
vt 0.130314 0.674120
vt 0.135923 0.857199
vt 0.140386 0.857199
vt 0.140386 0.862891
vt 0.135923 0.862891
vt 0.164908 0.858074
vt 0.164908 0.863767
vt 0.160445 0.863767
vt 0.160445 0.858074
vt 0.266063 0.933831
vt 0.261600 0.933831
vt 0.261600 0.751617
vt 0.266063 0.751617
vt 0.148706 0.856761
vt 0.143013 0.856761
vt 0.143013 0.674554
vt 0.148706 0.674554
vt 0.290502 0.780519
vt 0.294964 0.780519
vt 0.294964 0.962732
vt 0.290502 0.962732
vt 0.149143 0.674554
vt 0.154837 0.674554
vt 0.154837 0.856761
vt 0.149143 0.856761
vt 0.149936 0.857199
vt 0.154399 0.857199
vt 0.154399 0.862891
vt 0.149936 0.862891
vt 0.109733 0.859826
vt 0.109733 0.865518
vt 0.105270 0.865518
vt 0.105270 0.859826
vt 0.290147 0.856323
vt 0.285685 0.856323
vt 0.285685 0.674117
vt 0.290147 0.674117
vt 0.136445 0.856323
vt 0.130751 0.856323
vt 0.130751 0.674117
vt 0.136445 0.674117
vt 0.271233 0.761266
vt 0.275697 0.761266
vt 0.275697 0.943465
vt 0.271233 0.943465
vt 0.136882 0.674560
vt 0.142575 0.674560
vt 0.142575 0.856761
vt 0.136882 0.856761
vt 0.155629 0.857199
vt 0.160091 0.857199
vt 0.160091 0.862891
vt 0.155629 0.862891
vt 0.170163 0.858074
vt 0.170163 0.863767
vt 0.165700 0.863767
vt 0.165700 0.858074
vt 0.270880 0.856323
vt 0.266417 0.856323
vt 0.266417 0.674112
vt 0.270880 0.674112
vt 0.161404 0.674556
vt 0.167098 0.674556
vt 0.167098 0.856761
vt 0.161404 0.856761
vt 0.192934 0.918960
vt 0.192934 0.923321
vt 0.006458 0.923321
vt 0.006458 0.918960
vt 0.160967 0.856761
vt 0.155274 0.856761
vt 0.155274 0.674554
vt 0.160967 0.674554
vt 0.129293 0.857528
vt 0.135569 0.857528
vt 0.135569 0.864643
vt 0.129293 0.864643
vt 0.108274 0.858512
vt 0.108274 0.851397
vt 0.114550 0.851397
vt 0.114550 0.858512
vt 0.324304 0.788010
vt 0.317696 0.788010
vt 0.317696 0.674152
vt 0.324304 0.674152
vt 0.245482 0.914563
vt 0.238365 0.914563
vt 0.238365 0.794688
vt 0.245482 0.794688
vt 0.295593 0.674109
vt 0.302408 0.674109
vt 0.302409 0.784508
vt 0.295593 0.784508
vt 0.253364 0.914563
vt 0.246247 0.914563
vt 0.246247 0.794688
vt 0.253364 0.794688
vt 0.115281 0.843515
vt 0.121556 0.843510
vt 0.121556 0.850626
vt 0.115281 0.850630
vt 0.108274 0.850626
vt 0.108274 0.843510
vt 0.114550 0.843514
vt 0.114550 0.850630
vt 0.114112 0.924201
vt 0.114112 0.931203
vt 0.006678 0.931203
vt 0.006678 0.924201
vt 0.253364 0.793704
vt 0.246247 0.793704
vt 0.246247 0.673828
vt 0.253364 0.673828
vt 0.117177 0.932271
vt 0.117177 0.939086
vt 0.006783 0.939086
vt 0.006783 0.932271
vt 0.204319 0.914564
vt 0.197203 0.914564
vt 0.197203 0.794692
vt 0.204319 0.794692
vt 0.107543 0.853695
vt 0.099619 0.853695
vt 0.099619 0.674013
vt 0.107543 0.674013
vt 0.197271 0.673894
vt 0.205195 0.673894
vt 0.205195 0.793703
vt 0.197271 0.793703
vt 0.213515 0.881283
vt 0.205591 0.881283
vt 0.205591 0.761475
vt 0.213515 0.761475
vt 0.099223 0.853695
vt 0.091299 0.853695
vt 0.091298 0.674015
vt 0.099223 0.674015
vt 0.107939 0.842310
vt 0.107939 0.673790
vt 0.115864 0.673790
vt 0.115864 0.842310
vt 0.223587 0.673739
vt 0.223587 0.764364
vt 0.214087 0.764364
vt 0.214087 0.673739
vt 0.221835 0.765189
vt 0.221835 0.873838
vt 0.213911 0.873838
vt 0.213911 0.765189
vt 0.116259 0.842310
vt 0.116259 0.673791
vt 0.124184 0.673791
vt 0.124184 0.842310
vt 0.191620 0.674466
vt 0.191620 0.859388
vt 0.186202 0.853972
vt 0.186202 0.680185
vt 0.323978 0.908433
vt 0.323978 0.788607
vt 0.329559 0.794188
vt 0.329559 0.902851
vt 0.332186 0.673744
vt 0.332186 0.795893
vt 0.326722 0.790427
vt 0.326723 0.679209
vt 0.192232 0.890041
vt 0.192232 0.674252
vt 0.196875 0.680926
vt 0.196875 0.883721
vt 0.185489 0.674453
vt 0.185489 0.854133
vt 0.179908 0.848553
vt 0.179908 0.680033
vt 0.323427 0.788600
vt 0.323427 0.908433
vt 0.317847 0.902851
vt 0.317847 0.794182
vt 0.221476 0.998627
vt 0.221476 0.884141
vt 0.227090 0.889460
vt 0.227090 0.993307
vt 0.173777 0.854133
vt 0.173778 0.674458
vt 0.179359 0.680038
vt 0.179359 0.848553
vt 0.995611 0.630477
vt 0.833399 0.630477
s 0
f 27/1/1 28/2/1 26/3/1 25/4/1
f 23/5/2 27/6/2 25/7/2 21/8/2
f 9/9/3 10/10/3 12/11/3 11/12/3
f 14/13/4 15/14/4 16/15/4 13/16/4
f 10/17/1 13/18/1 16/19/1 12/20/1
f 11/21/5 15/22/5 14/23/5 9/24/5
f 1/25/3 118/26/3 117/27/3 3/28/3
f 119/29/4 120/30/4 20/31/4 19/32/4
f 22/33/3 21/34/3 2/35/3 4/36/3
f 23/37/4 24/38/4 8/39/4 5/40/4
f 21/41/3 25/42/3 17/43/3 2/44/3
f 26/45/3 22/46/3 4/47/3 18/48/3
f 25/42/3 26/45/3 18/48/3 17/43/3
f 27/49/4 23/37/4 5/40/4 19/32/4
f 24/38/4 28/50/4 20/31/4 8/39/4
f 28/50/4 27/49/4 19/32/4 20/31/4
f 28/51/6 24/52/6 22/53/6 26/54/6
f 24/55/5 23/56/5 21/57/5 22/58/5
f 31/59/5 29/60/5 30/61/5 32/62/5
f 36/63/1 35/64/1 34/65/1 33/66/1
f 29/67/6 31/68/6 36/69/6 33/70/6
f 30/71/3 29/72/3 33/73/3 34/74/3
f 32/75/2 30/76/2 34/77/2 35/78/2
f 31/79/4 32/80/4 35/81/4 36/82/4
f 39/83/5 37/84/5 38/85/5 40/86/5
f 44/87/1 43/88/1 42/89/1 41/90/1
f 37/91/6 39/92/6 44/93/6 41/94/6
f 38/95/3 37/96/3 41/97/3 42/98/3
f 40/99/2 38/100/2 42/101/2 43/102/2
f 39/103/4 40/104/4 43/105/4 44/106/4
f 47/107/5 45/108/5 46/109/5 48/110/5
f 52/111/1 51/112/1 50/113/1 49/114/1
f 45/115/6 47/116/6 52/117/6 49/118/6
f 46/119/3 45/120/3 49/121/3 50/122/3
f 48/123/2 46/124/2 50/125/2 51/126/2
f 47/127/4 48/128/4 51/129/4 52/130/4
f 55/131/2 53/132/2 54/133/2 56/134/2
f 60/135/6 59/136/6 58/137/6 57/138/6
f 53/139/5 55/140/5 60/141/5 57/142/5
f 54/143/3 53/144/3 57/145/3 58/146/3
f 56/147/1 54/148/1 58/149/1 59/150/1
f 55/151/4 56/152/4 59/153/4 60/154/4
f 63/155/2 61/156/2 62/157/2 64/158/2
f 68/159/6 67/160/6 66/161/6 65/162/6
f 61/163/5 63/164/5 68/165/5 65/166/5
f 62/167/3 61/168/3 65/169/3 66/170/3
f 64/171/1 62/172/1 66/173/1 67/174/1
f 63/175/4 64/176/4 67/177/4 68/178/4
f 71/179/2 69/180/2 70/181/2 72/182/2
f 76/183/6 75/184/6 74/185/6 73/186/6
f 69/187/5 71/188/5 76/189/5 73/190/5
f 70/191/3 69/192/3 73/193/3 74/194/3
f 72/195/1 70/196/1 74/197/1 75/198/1
f 71/199/4 72/200/4 75/201/4 76/202/4
f 79/203/2 77/204/2 78/205/2 80/206/2
f 84/207/6 83/208/6 82/209/6 81/210/6
f 77/211/5 79/212/5 84/213/5 81/214/5
f 78/215/3 77/216/3 81/217/3 82/218/3
f 80/219/1 78/220/1 82/221/1 83/222/1
f 79/223/4 80/224/4 83/225/4 84/226/4
f 87/227/5 85/228/5 86/229/5 88/230/5
f 92/231/1 91/232/1 90/233/1 89/234/1
f 85/235/6 87/236/6 92/237/6 89/238/6
f 86/239/3 85/240/3 89/241/3 90/242/3
f 88/243/2 86/244/2 90/245/2 91/246/2
f 87/247/4 88/248/4 91/249/4 92/250/4
f 95/251/5 93/252/5 94/253/5 96/254/5
f 100/255/1 99/256/1 98/257/1 97/258/1
f 93/259/7 95/260/7 100/261/7 97/262/7
f 94/263/3 93/264/3 97/265/3 98/266/3
f 96/267/8 94/268/8 98/269/8 99/270/8
f 95/271/4 96/272/4 99/273/4 100/274/4
f 107/275/5 105/276/5 106/277/5 108/278/5
f 103/279/6 101/280/6 105/281/6 107/282/6
f 108/283/2 106/284/2 102/285/2 104/286/2
f 104/287/1 102/288/1 101/289/1 103/290/1
f 115/291/1 116/292/1 114/293/1 113/294/1
f 111/295/2 115/296/2 113/297/2 109/298/2
f 116/299/6 112/300/6 110/301/6 114/302/6
f 112/303/5 111/304/5 109/305/5 110/306/5
f 106/307/3 105/308/3 113/309/3 114/310/3
f 103/311/4 107/312/4 115/313/4 111/314/4
f 105/315/3 101/316/3 109/317/3 113/318/3
f 101/319/3 102/320/3 110/321/3 109/322/3
f 107/323/4 108/324/4 116/325/4 115/326/4
f 108/327/4 104/328/4 112/329/4 116/330/4
f 102/331/3 106/332/3 114/333/3 110/334/3
f 104/335/4 103/336/4 111/337/4 112/338/4
f 6/339/4 7/340/4 120/30/4 119/29/4
f 118/26/3 17/43/3 18/48/3 117/27/3
