# Blender 4.5.1 LTS
# www.blender.org
o GEO_FeudalJapaneseHouse_ShortWall
v -1.000000 0.000000 -0.055136
v 1.047037 0.000000 -0.055136
v -1.000000 0.000000 0.055136
v 1.047037 0.000000 0.055136
v -1.000000 1.000000 -0.055136
v 1.047037 1.000000 -0.055136
v -1.000000 1.000000 0.055136
v 1.047037 1.000000 0.055136
vn -0.0000 -0.0000 -1.0000
vn -0.0000 -0.0000 1.0000
vt 0.671580 0.502548
vt 0.671580 0.346195
vt 0.991580 0.346195
vt 0.991580 0.502547
vt 0.671580 0.502548
vt 0.991580 0.502548
vt 0.991580 0.658901
vt 0.671580 0.658901
s 0
f 1/1/1 5/2/1 6/3/1 2/4/1
f 3/5/2 4/6/2 8/7/2 7/8/2
