# Blender 4.5.1 LTS
# www.blender.org
o GEO_FeudalJapaneseHouse_StandingLantern
v -0.105000 0.096979 0.105000
v -0.105000 0.432979 0.105000
v -0.105000 0.096979 -0.105000
v -0.105000 0.432979 -0.105000
v 0.105000 0.096979 0.105000
v 0.105000 0.432979 0.105000
v 0.105000 0.096979 -0.105000
v 0.105000 0.432979 -0.105000
v 0.110721 0.068576 0.110365
v 0.110721 0.068576 0.095631
v 0.095987 0.068576 0.095631
v 0.095987 0.068576 0.110365
v 0.110721 -0.002048 0.095631
v 0.110721 -0.002048 0.110365
v 0.095987 -0.002048 0.095631
v 0.095987 -0.002048 0.110365
v -0.095987 0.068576 0.110365
v -0.095987 0.068576 0.095631
v -0.110722 0.068576 0.095631
v -0.110722 0.068576 0.110365
v -0.095987 -0.002048 0.095631
v -0.095987 -0.002048 0.110365
v -0.110722 -0.002048 0.095631
v -0.110722 -0.002048 0.110365
v 0.110721 0.068576 -0.095630
v 0.110721 0.068576 -0.110365
v 0.095987 0.068576 -0.110365
v 0.095987 0.068576 -0.095630
v 0.110721 -0.002048 -0.110365
v 0.110721 -0.002048 -0.095630
v 0.095987 -0.002048 -0.110365
v 0.095987 -0.002048 -0.095630
v -0.095987 0.068576 -0.095630
v -0.095987 0.068576 -0.110365
v -0.110722 0.068576 -0.110365
v -0.110722 0.068576 -0.095630
v -0.095987 -0.002048 -0.110365
v -0.095987 -0.002048 -0.095630
v -0.110722 -0.002048 -0.110365
v -0.110722 -0.002048 -0.095630
v -0.092821 0.275291 -0.091478
v -0.092821 0.275291 -0.112255
v -0.092821 0.259164 -0.091478
v -0.092821 0.259164 -0.112255
v 0.092821 0.275291 -0.091478
v 0.092821 0.275291 -0.112255
v 0.092821 0.259164 -0.112255
v 0.092821 0.259164 -0.091478
v -0.092821 0.259164 0.091478
v -0.092821 0.259164 0.112254
v -0.092821 0.275291 0.112254
v -0.092821 0.275291 0.091478
v 0.092821 0.259164 0.112254
v 0.092821 0.259164 0.091478
v 0.092821 0.275291 0.112254
v 0.092821 0.275291 0.091478
v 0.091478 0.275291 -0.092821
v 0.112254 0.275291 -0.092821
v 0.091478 0.259164 -0.092821
v 0.112254 0.259164 -0.092821
v 0.091478 0.275291 0.092820
v 0.112254 0.275291 0.092820
v 0.112254 0.259164 0.092820
v 0.091478 0.259164 0.092820
v -0.091478 0.259164 -0.092821
v -0.112254 0.259164 -0.092821
v -0.112254 0.275291 -0.092821
v -0.091478 0.275291 -0.092821
v -0.112254 0.259164 0.092820
v -0.091478 0.259164 0.092820
v -0.112254 0.275291 0.092820
v -0.091478 0.275291 0.092820
v -0.092821 0.181920 -0.091478
v -0.092821 0.181920 -0.112255
v -0.092821 0.165793 -0.091478
v -0.092821 0.165793 -0.112255
v 0.092821 0.181920 -0.091478
v 0.092821 0.181920 -0.112255
v 0.092821 0.165793 -0.112255
v 0.092821 0.165793 -0.091478
v -0.092821 0.165793 0.091478
v -0.092821 0.165793 0.112254
v -0.092821 0.181920 0.112254
v -0.092821 0.181920 0.091478
v 0.092821 0.165793 0.112254
v 0.092821 0.165793 0.091478
v 0.092821 0.181920 0.112254
v 0.092821 0.181920 0.091478
v 0.091478 0.181920 -0.092821
v 0.112254 0.181920 -0.092821
v 0.091478 0.165793 -0.092821
v 0.112254 0.165793 -0.092821
v 0.091478 0.181920 0.092820
v 0.112254 0.181920 0.092820
v 0.112254 0.165793 0.092820
v 0.091478 0.165793 0.092820
v -0.091478 0.165793 -0.092821
v -0.112254 0.165793 -0.092821
v -0.112254 0.181920 -0.092821
v -0.091478 0.181920 -0.092821
v -0.112254 0.165793 0.092820
v -0.091478 0.165793 0.092820
v -0.112254 0.181920 0.092820
v -0.091478 0.181920 0.092820
v -0.092821 0.371615 -0.091478
v -0.092821 0.371615 -0.112255
v -0.092821 0.355488 -0.091478
v -0.092821 0.355488 -0.112255
v 0.092821 0.371615 -0.091478
v 0.092821 0.371615 -0.112255
v 0.092821 0.355488 -0.112255
v 0.092821 0.355488 -0.091478
v -0.092821 0.355488 0.091478
v -0.092821 0.355488 0.112254
v -0.092821 0.371615 0.112254
v -0.092821 0.371615 0.091478
v 0.092821 0.355488 0.112254
v 0.092821 0.355488 0.091478
v 0.092821 0.371615 0.112254
v 0.092821 0.371615 0.091478
v 0.091478 0.371615 -0.092821
v 0.112254 0.371615 -0.092821
v 0.091478 0.355488 -0.092821
v 0.112254 0.355488 -0.092821
v 0.091478 0.371615 0.092820
v 0.112254 0.371615 0.092820
v 0.112254 0.355488 0.092820
v 0.091478 0.355488 0.092820
v -0.091478 0.355488 -0.092821
v -0.112254 0.355488 -0.092821
v -0.112254 0.371615 -0.092821
v -0.091478 0.371615 -0.092821
v -0.112254 0.355488 0.092820
v -0.091478 0.355488 0.092820
v -0.112254 0.371615 0.092820
v -0.091478 0.371615 0.092820
v -0.126000 0.434596 0.124383
v -0.124383 0.432979 0.124383
v -0.124383 0.434596 0.126000
v -0.126000 0.434596 -0.124383
v -0.124383 0.434596 -0.126000
v -0.124383 0.432979 -0.124383
v 0.126000 0.434596 0.124383
v 0.124383 0.434596 0.126000
v 0.124383 0.432979 0.124383
v 0.124383 0.434596 -0.126000
v 0.126000 0.434596 -0.124383
v 0.124383 0.432979 -0.124383
v -0.126000 0.461864 0.124383
v -0.124383 0.461864 0.126000
v -0.124383 0.463481 0.124383
v -0.126000 0.461864 -0.124383
v -0.124383 0.463481 -0.124383
v -0.124383 0.461864 -0.126000
v 0.124383 0.461864 -0.126000
v 0.124383 0.463481 -0.124383
v 0.126000 0.461864 -0.124383
v 0.126000 0.461864 0.124383
v 0.124383 0.463481 0.124383
v 0.124383 0.461864 0.126000
v -0.126000 0.068358 0.124383
v -0.124383 0.066741 0.124383
v -0.124383 0.068358 0.126000
v -0.126000 0.068358 -0.124383
v -0.124383 0.068358 -0.126000
v -0.124383 0.066741 -0.124383
v 0.126000 0.068358 0.124383
v 0.124383 0.068358 0.126000
v 0.124383 0.066741 0.124383
v 0.124383 0.068358 -0.126000
v 0.126000 0.068358 -0.124383
v 0.124383 0.066741 -0.124383
v -0.126000 0.095626 0.124383
v -0.124383 0.095626 0.126000
v -0.124383 0.097243 0.124383
v -0.126000 0.095626 -0.124383
v -0.124383 0.097243 -0.124383
v -0.124383 0.095626 -0.126000
v 0.124383 0.095626 -0.126000
v 0.124383 0.097243 -0.124383
v 0.126000 0.095626 -0.124383
v 0.126000 0.095626 0.124383
v 0.124383 0.097243 0.124383
v 0.124383 0.095626 0.126000
v -0.113257 0.099074 -0.091478
v -0.114874 0.099074 -0.093095
v -0.114874 0.099074 -0.112900
v -0.113257 0.099074 -0.114517
v -0.091835 0.099074 -0.093095
v -0.093452 0.099074 -0.091478
v -0.093452 0.099074 -0.114517
v -0.091835 0.099074 -0.112900
v -0.114874 0.435380 -0.093095
v -0.113257 0.435380 -0.091478
v -0.113257 0.435380 -0.114517
v -0.114874 0.435380 -0.112900
v -0.091835 0.435380 -0.112900
v -0.093452 0.435380 -0.114517
v -0.093452 0.435380 -0.091478
v -0.091835 0.435380 -0.093095
v 0.093452 0.099074 -0.091478
v 0.091835 0.099074 -0.093095
v 0.091835 0.099074 -0.112900
v 0.093452 0.099074 -0.114517
v 0.114873 0.099074 -0.093095
v 0.113256 0.099074 -0.091478
v 0.113256 0.099074 -0.114517
v 0.114873 0.099074 -0.112900
v 0.091835 0.435380 -0.093095
v 0.093452 0.435380 -0.091478
v 0.093452 0.435380 -0.114517
v 0.091835 0.435380 -0.112900
v 0.114873 0.435380 -0.112900
v 0.113256 0.435380 -0.114517
v 0.113256 0.435380 -0.091478
v 0.114873 0.435380 -0.093095
v -0.113257 0.099074 0.114517
v -0.114874 0.099074 0.112900
v -0.114874 0.099074 0.093096
v -0.113257 0.099074 0.091479
v -0.091835 0.099074 0.112900
v -0.093452 0.099074 0.114517
v -0.093452 0.099074 0.091479
v -0.091835 0.099074 0.093096
v -0.114874 0.435380 0.112900
v -0.113257 0.435380 0.114517
v -0.113257 0.435380 0.091479
v -0.114874 0.435380 0.093096
v -0.091835 0.435380 0.093096
v -0.093452 0.435380 0.091479
v -0.093452 0.435380 0.114517
v -0.091835 0.435380 0.112900
v 0.093452 0.099074 0.114517
v 0.091835 0.099074 0.112900
v 0.091835 0.099074 0.093096
v 0.093452 0.099074 0.091479
v 0.114873 0.099074 0.112900
v 0.113256 0.099074 0.114517
v 0.113256 0.099074 0.091479
v 0.114873 0.099074 0.093096
v 0.091835 0.435380 0.112900
v 0.093452 0.435380 0.114517
v 0.093452 0.435380 0.091479
v 0.091835 0.435380 0.093096
v 0.114873 0.435380 0.093096
v 0.113256 0.435380 0.091479
v 0.113256 0.435380 0.114517
v 0.114873 0.435380 0.112900
vn -1.0000 -0.0000 -0.0000
vn -0.0000 -0.0000 -1.0000
vn 1.0000 -0.0000 -0.0000
vn -0.0000 -0.0000 1.0000
vn -0.0000 -1.0000 -0.0000
vn -0.0000 1.0000 -0.0000
vn -0.5774 -0.5773 0.5773
vn -0.5774 -0.5773 -0.5773
vn 0.5774 -0.5773 0.5773
vn 0.5774 -0.5773 -0.5773
vn -0.5774 0.5773 0.5773
vn -0.5774 0.5773 -0.5773
vn 0.5774 0.5773 -0.5773
vn 0.5774 0.5773 0.5773
vn -0.5773 -0.5774 0.5774
vn -0.5773 -0.5774 -0.5774
vn 0.5773 -0.5774 0.5774
vn 0.5773 -0.5774 -0.5774
vn -0.5773 0.5774 0.5774
vn -0.5773 0.5774 -0.5774
vn 0.5773 0.5774 -0.5774
vn 0.5773 0.5774 0.5774
vn -0.7071 -0.7071 -0.0000
vn -0.0000 -0.7071 -0.7071
vn 0.7071 -0.7071 -0.0000
vn -0.0000 -0.7071 0.7071
vn -0.7071 0.7071 -0.0000
vn -0.0000 0.7071 -0.7071
vn 0.7071 0.7071 -0.0000
vn -0.0000 0.7071 0.7071
vn 0.7071 -0.0000 0.7071
vn -0.7071 -0.0000 0.7071
vn -0.7071 -0.0000 -0.7071
vn 0.7071 -0.0000 -0.7071
vt 0.013129 0.198440
vt 0.013129 0.129341
vt 0.074773 0.129341
vt 0.074773 0.198440
vt 0.078479 0.111104
vt 0.078479 0.013383
vt 0.140123 0.013383
vt 0.140123 0.111104
vt 0.013129 0.082482
vt 0.013129 0.013383
vt 0.074773 0.013383
vt 0.074773 0.082482
vt 0.143829 0.111104
vt 0.143829 0.013383
vt 0.205473 0.013383
vt 0.205473 0.111104
vt 0.013129 0.125669
vt 0.074773 0.125669
vt 0.263468 0.191739
vt 0.263468 0.252814
vt 0.201824 0.252814
vt 0.201824 0.191739
vt 0.363306 0.867891
vt 0.363306 0.940241
vt 0.355302 0.940241
vt 0.355302 0.867891
vt 0.556537 0.679162
vt 0.556537 0.751512
vt 0.550877 0.751512
vt 0.550877 0.679162
vt 0.375966 0.867891
vt 0.375966 0.940241
vt 0.367962 0.940241
vt 0.367962 0.867891
vt 0.413177 0.857517
vt 0.413177 0.929867
vt 0.407517 0.929867
vt 0.407517 0.857517
vt 0.480540 0.780555
vt 0.480540 0.852905
vt 0.407517 0.852905
vt 0.407517 0.780555
vt 0.413848 0.929867
vt 0.413848 0.857517
vt 0.465483 0.857517
vt 0.465483 0.929867
vt 0.546696 0.679162
vt 0.546696 0.751512
vt 0.538692 0.751512
vt 0.538692 0.679162
vt 0.566728 0.747854
vt 0.560915 0.747854
vt 0.560915 0.678691
vt 0.566728 0.678691
vt 0.350646 0.867891
vt 0.350646 0.940241
vt 0.342642 0.940241
vt 0.342642 0.867891
vt 0.474850 0.857517
vt 0.474850 0.929867
vt 0.469190 0.929867
vt 0.469190 0.857517
vt 0.557270 0.780555
vt 0.557270 0.852905
vt 0.484247 0.852905
vt 0.484247 0.780555
vt 0.475521 0.929867
vt 0.475521 0.857517
vt 0.527156 0.857517
vt 0.527156 0.929867
vt 0.354524 0.958907
vt 0.350199 0.958907
vt 0.350199 0.944383
vt 0.354524 0.944383
vt 0.362555 0.958907
vt 0.358230 0.958907
vt 0.358230 0.944383
vt 0.362555 0.944383
vt 0.370587 0.958907
vt 0.366262 0.958907
vt 0.366262 0.944383
vt 0.370587 0.944383
vt 0.386478 0.958907
vt 0.382153 0.958907
vt 0.382153 0.944383
vt 0.386478 0.944383
vt 0.542543 0.776194
vt 0.538217 0.776194
vt 0.538217 0.755654
vt 0.542543 0.755654
vt 0.550574 0.776194
vt 0.546249 0.776194
vt 0.546249 0.755654
vt 0.550574 0.755654
vt 0.500179 0.954550
vt 0.495854 0.954550
vt 0.495854 0.934010
vt 0.500179 0.934010
vt 0.508210 0.954550
vt 0.503885 0.954550
vt 0.503885 0.934010
vt 0.508210 0.934010
vt 0.631879 0.750879
vt 0.627554 0.750879
vt 0.627554 0.736355
vt 0.631879 0.736355
vt 0.508210 0.972746
vt 0.503885 0.972746
vt 0.503885 0.958222
vt 0.508210 0.958222
vt 0.500179 0.972746
vt 0.495854 0.972746
vt 0.495854 0.958222
vt 0.500179 0.958222
vt 0.516242 0.972746
vt 0.511917 0.972746
vt 0.511917 0.958222
vt 0.516242 0.958222
vt 0.516242 0.954550
vt 0.511917 0.954550
vt 0.511917 0.934010
vt 0.516242 0.934010
vt 0.524273 0.954550
vt 0.519948 0.954550
vt 0.519948 0.934010
vt 0.524273 0.934010
vt 0.402323 0.960795
vt 0.397997 0.960795
vt 0.397997 0.940255
vt 0.402323 0.940255
vt 0.346492 0.964923
vt 0.342167 0.964923
vt 0.342167 0.944383
vt 0.346492 0.944383
vt 0.576248 0.747854
vt 0.570435 0.747854
vt 0.570435 0.678691
vt 0.576248 0.678691
vt 0.567264 0.853375
vt 0.561451 0.853375
vt 0.561451 0.755565
vt 0.567264 0.755565
vt 0.577733 0.853375
vt 0.571920 0.853375
vt 0.571920 0.755565
vt 0.577733 0.755565
vt 0.585768 0.747854
vt 0.579954 0.747854
vt 0.579954 0.678692
vt 0.585768 0.678692
vt 0.595288 0.747854
vt 0.589474 0.747854
vt 0.589474 0.678691
vt 0.595288 0.678691
vt 0.588203 0.853375
vt 0.582389 0.853375
vt 0.582389 0.755565
vt 0.588203 0.755565
vt 0.403811 0.936583
vt 0.397997 0.936583
vt 0.397997 0.867421
vt 0.403811 0.867421
vt 0.598672 0.853375
vt 0.592858 0.853375
vt 0.592858 0.755565
vt 0.598672 0.755565
vt 0.604808 0.747854
vt 0.598994 0.747854
vt 0.598994 0.678691
vt 0.604808 0.678691
vt 0.609141 0.853375
vt 0.603327 0.853375
vt 0.603327 0.755565
vt 0.609141 0.755565
vt 0.619610 0.853375
vt 0.613797 0.853375
vt 0.613797 0.755565
vt 0.619610 0.755565
vt 0.614327 0.747854
vt 0.608514 0.747854
vt 0.608514 0.678692
vt 0.614327 0.678692
vt 0.623847 0.747854
vt 0.618034 0.747854
vt 0.618034 0.678691
vt 0.623847 0.678691
vt 0.609141 0.954857
vt 0.603327 0.954857
vt 0.603327 0.857047
vt 0.609141 0.857047
vt 0.619610 0.954857
vt 0.613797 0.954857
vt 0.613797 0.857047
vt 0.619610 0.857047
vt 0.639891 0.982545
vt 0.635157 0.982545
vt 0.635157 0.928554
vt 0.639891 0.928554
vt 0.648332 0.982545
vt 0.643598 0.982545
vt 0.643598 0.928554
vt 0.648332 0.928554
vt 0.485093 0.972187
vt 0.478995 0.972187
vt 0.478995 0.934010
vt 0.485093 0.934010
vt 0.633652 0.732682
vt 0.627554 0.732682
vt 0.627554 0.678692
vt 0.633652 0.678692
vt 0.390184 0.867421
vt 0.393532 0.867421
vt 0.393532 0.921412
vt 0.390184 0.921412
vt 0.627138 0.924882
vt 0.623791 0.924882
vt 0.623791 0.870891
vt 0.627138 0.870891
vt 0.550472 0.921794
vt 0.556571 0.921794
vt 0.556571 0.975785
vt 0.550472 0.975785
vt 0.455678 0.972187
vt 0.449580 0.972187
vt 0.449580 0.934010
vt 0.455678 0.934010
vt 0.631451 0.924882
vt 0.631451 0.870891
vt 0.566376 0.975785
vt 0.560277 0.975785
vt 0.560277 0.921794
vt 0.566376 0.921794
vt 0.635157 0.870891
vt 0.641256 0.870891
vt 0.641256 0.924882
vt 0.635157 0.924882
vt 0.651476 0.732682
vt 0.647164 0.732682
vt 0.647164 0.678692
vt 0.651476 0.678692
vt 0.631451 0.982545
vt 0.626717 0.982545
vt 0.626717 0.928554
vt 0.631451 0.928554
vt 0.649696 0.809556
vt 0.644962 0.809556
vt 0.644962 0.755565
vt 0.649696 0.755565
vt 0.439458 0.972187
vt 0.433360 0.972187
vt 0.433360 0.934010
vt 0.439458 0.934010
vt 0.641256 0.809556
vt 0.635157 0.809556
vt 0.635157 0.755565
vt 0.641256 0.755565
vt 0.492147 0.988001
vt 0.488800 0.988001
vt 0.488800 0.934010
vt 0.492147 0.934010
vt 0.627138 0.809556
vt 0.623791 0.809556
vt 0.623791 0.755565
vt 0.627138 0.755565
vt 0.570082 0.921794
vt 0.576181 0.921794
vt 0.576181 0.975785
vt 0.570082 0.975785
vt 0.429653 0.972187
vt 0.423555 0.972187
vt 0.423555 0.934010
vt 0.429653 0.934010
vt 0.631451 0.809556
vt 0.631451 0.755565
vt 0.585986 0.975785
vt 0.579887 0.975785
vt 0.579887 0.921794
vt 0.585986 0.921794
vt 0.530862 0.921794
vt 0.536961 0.921794
vt 0.536961 0.975785
vt 0.530862 0.975785
vt 0.411830 0.988001
vt 0.407517 0.988001
vt 0.407517 0.934010
vt 0.411830 0.934010
vt 0.649696 0.867219
vt 0.644962 0.867219
vt 0.644962 0.813228
vt 0.649696 0.813228
vt 0.649696 0.924882
vt 0.644962 0.924882
vt 0.644962 0.870891
vt 0.649696 0.870891
vt 0.475289 0.972187
vt 0.469190 0.972187
vt 0.469190 0.934010
vt 0.475289 0.934010
vt 0.641256 0.867219
vt 0.635157 0.867219
vt 0.635157 0.813228
vt 0.641256 0.813228
vt 0.393532 0.979075
vt 0.390184 0.979075
vt 0.390184 0.925084
vt 0.393532 0.925084
vt 0.627138 0.867219
vt 0.623791 0.867219
vt 0.623791 0.813228
vt 0.627138 0.813228
vt 0.589692 0.921794
vt 0.595791 0.921794
vt 0.595791 0.975785
vt 0.589692 0.975785
vt 0.465483 0.972187
vt 0.459385 0.972187
vt 0.459385 0.934010
vt 0.465483 0.934010
vt 0.631451 0.867219
vt 0.631451 0.813228
vt 0.643457 0.732682
vt 0.637359 0.732682
vt 0.637359 0.678692
vt 0.643457 0.678692
vt 0.540667 0.921794
vt 0.546766 0.921794
vt 0.546766 0.975785
vt 0.540667 0.975785
vt 0.419848 0.988001
vt 0.415536 0.988001
vt 0.415536 0.934010
vt 0.419848 0.934010
vt 0.385807 0.940241
vt 0.386478 0.940241
vt 0.386142 0.940711
vt 0.385807 0.867891
vt 0.386142 0.867421
vt 0.386478 0.867891
vt 0.413513 0.857047
vt 0.413513 0.930338
vt 0.355302 0.867421
vt 0.354827 0.867891
vt 0.367962 0.940711
vt 0.367487 0.940241
vt 0.367487 0.867891
vt 0.367962 0.867421
vt 0.355302 0.940711
vt 0.354827 0.940241
vt 0.557208 0.751512
vt 0.556873 0.751982
vt 0.556873 0.678692
vt 0.557208 0.679162
vt 0.475185 0.857047
vt 0.475185 0.930337
vt 0.538692 0.678691
vt 0.538217 0.679162
vt 0.342642 0.940711
vt 0.342167 0.940241
vt 0.342167 0.867891
vt 0.342642 0.867421
vt 0.538692 0.751982
vt 0.538217 0.751512
vt 0.376441 0.867891
vt 0.376441 0.940241
vt 0.363781 0.867891
vt 0.363781 0.940241
vt 0.480540 0.853375
vt 0.407517 0.853375
vt 0.407517 0.780084
vt 0.480540 0.780084
vt 0.363306 0.940711
vt 0.363306 0.867421
vt 0.375966 0.940711
vt 0.375966 0.867421
vt 0.351121 0.867891
vt 0.351121 0.940241
vt 0.547171 0.679162
vt 0.547171 0.751512
vt 0.557270 0.853375
vt 0.484247 0.853375
vt 0.484247 0.780084
vt 0.557270 0.780084
vt 0.546696 0.751982
vt 0.546696 0.678691
vt 0.350646 0.940711
vt 0.350646 0.867421
vt 0.581914 0.853375
vt 0.581914 0.755565
vt 0.588677 0.755565
vt 0.588677 0.853375
vt 0.571445 0.853375
vt 0.571445 0.755565
vt 0.578208 0.755565
vt 0.578208 0.853375
vt 0.592384 0.853375
vt 0.592384 0.755565
vt 0.599146 0.755565
vt 0.599146 0.853375
vt 0.560976 0.853375
vt 0.560976 0.755565
vt 0.567739 0.755565
vt 0.567739 0.853375
vt 0.602853 0.954857
vt 0.602853 0.857047
vt 0.609616 0.857047
vt 0.609616 0.954857
vt 0.613322 0.853375
vt 0.613322 0.755565
vt 0.620085 0.755565
vt 0.620085 0.853375
vt 0.613322 0.954857
vt 0.613322 0.857047
vt 0.620085 0.857047
vt 0.620085 0.954857
vt 0.602853 0.853375
vt 0.602853 0.755565
vt 0.609616 0.755565
vt 0.609616 0.853375
vt 0.380147 0.940241
vt 0.380147 0.867891
s 1
f 1/1/1 2/2/1 4/3/1 3/4/1
f 3/5/2 4/6/2 8/7/2 7/8/2
f 7/9/3 8/10/3 6/11/3 5/12/3
f 5/13/4 6/14/4 2/15/4 1/16/4
f 3/17/5 7/9/5 5/12/5 1/18/5
f 8/19/6 4/20/6 2/21/6 6/22/6
f 139/23/4 144/24/4 160/25/4 150/26/4
f 164/27/1 161/28/1 173/29/1 176/30/1
f 146/31/2 141/32/2 154/33/2 155/34/2
f 143/35/3 147/36/3 157/37/3 158/38/3
f 156/39/6 153/40/6 151/41/6 159/42/6
f 148/43/5 145/44/5 138/45/5 142/46/5
f 163/47/4 168/48/4 184/49/4 174/50/4
f 187/51/1 186/52/1 193/53/1 196/54/1
f 170/55/2 165/56/2 178/57/2 179/58/2
f 167/59/3 171/60/3 181/61/3 182/62/3
f 180/63/6 177/64/6 175/65/6 183/66/6
f 172/67/5 169/68/5 162/69/5 166/70/5
f 15/71/1 16/72/1 12/73/1 11/74/1
f 14/75/3 13/76/3 10/77/3 9/78/3
f 23/79/1 24/80/1 20/81/1 19/82/1
f 22/83/3 21/84/3 18/85/3 17/86/3
f 21/87/2 23/88/2 19/89/2 18/90/2
f 24/91/4 22/92/4 17/93/4 20/94/4
f 16/95/4 14/96/4 9/97/4 12/98/4
f 13/99/2 15/100/2 11/101/2 10/102/2
f 31/103/1 32/104/1 28/105/1 27/106/1
f 30/107/3 29/108/3 26/109/3 25/110/3
f 39/111/1 40/112/1 36/113/1 35/114/1
f 38/115/3 37/116/3 34/117/3 33/118/3
f 37/119/2 39/120/2 35/121/2 34/122/2
f 40/123/4 38/124/4 33/125/4 36/126/4
f 32/127/4 30/128/4 25/129/4 28/130/4
f 29/131/2 31/132/2 27/133/2 26/134/2
f 205/135/3 208/136/3 213/137/3 216/138/3
f 207/139/2 204/140/2 211/141/2 214/142/2
f 191/143/2 188/144/2 195/145/2 198/146/2
f 189/147/3 192/148/3 197/149/3 200/150/3
f 203/151/1 202/152/1 209/153/1 212/154/1
f 185/155/4 190/156/4 199/157/4 194/158/4
f 219/159/1 218/160/1 225/161/1 228/162/1
f 201/163/4 206/164/4 215/165/4 210/166/4
f 237/167/3 240/168/3 245/169/3 248/170/3
f 239/171/2 236/172/2 243/173/2 246/174/2
f 223/175/2 220/176/2 227/177/2 230/178/2
f 221/179/3 224/180/3 229/181/3 232/182/3
f 235/183/1 234/184/1 241/185/1 244/186/1
f 217/187/4 222/188/4 231/189/4 226/190/4
f 233/191/4 238/192/4 247/193/4 242/194/4
f 44/195/2 42/196/2 46/197/2 47/198/2
f 53/199/4 55/200/4 51/201/4 50/202/4
f 43/203/5 44/204/5 47/205/5 48/206/5
f 42/207/6 41/208/6 45/209/6 46/210/6
f 69/211/1 71/212/1 67/213/1 66/214/1
f 60/215/3 58/216/3 62/217/3 63/218/3
f 55/219/6 56/220/6 52/221/6 51/222/6
f 54/223/5 53/224/5 50/225/5 49/226/5
f 59/227/5 60/215/5 63/218/5 64/228/5
f 58/229/6 57/230/6 61/231/6 62/232/6
f 71/233/6 72/234/6 68/235/6 67/236/6
f 70/237/5 69/238/5 66/239/5 65/240/5
f 76/241/2 74/242/2 78/243/2 79/244/2
f 85/245/4 87/246/4 83/247/4 82/248/4
f 75/249/5 76/250/5 79/251/5 80/252/5
f 74/253/6 73/254/6 77/255/6 78/256/6
f 101/257/1 103/258/1 99/259/1 98/260/1
f 92/261/3 90/262/3 94/263/3 95/264/3
f 87/265/6 88/266/6 84/267/6 83/268/6
f 86/269/5 85/270/5 82/271/5 81/272/5
f 91/273/5 92/261/5 95/264/5 96/274/5
f 90/275/6 89/276/6 93/277/6 94/278/6
f 103/279/6 104/280/6 100/281/6 99/282/6
f 102/283/5 101/284/5 98/285/5 97/286/5
f 108/287/2 106/288/2 110/289/2 111/290/2
f 117/291/4 119/292/4 115/293/4 114/294/4
f 107/295/5 108/296/5 111/297/5 112/298/5
f 106/299/6 105/300/6 109/301/6 110/302/6
f 133/303/1 135/304/1 131/305/1 130/306/1
f 124/307/3 122/308/3 126/309/3 127/310/3
f 119/311/6 120/312/6 116/313/6 115/314/6
f 118/315/5 117/316/5 114/317/5 113/318/5
f 123/319/5 124/307/5 127/310/5 128/320/5
f 122/321/6 121/322/6 125/323/6 126/324/6
f 135/325/6 136/326/6 132/327/6 131/328/6
f 134/329/5 133/330/5 130/331/5 129/332/5
f 137/333/7 138/334/7 139/335/7
f 140/336/8 141/337/8 142/338/8
f 143/35/9 144/339/9 145/44/9
f 146/340/10 147/36/10 148/43/10
f 149/341/11 150/26/11 151/342/11
f 152/343/12 153/344/12 154/33/12
f 155/34/13 156/345/13 157/346/13
f 158/347/14 159/348/14 160/25/14
f 161/28/15 162/349/15 163/350/15
f 164/27/16 165/351/16 166/352/16
f 167/59/17 168/353/17 169/68/17
f 170/354/18 171/60/18 172/67/18
f 173/355/19 174/50/19 175/356/19
f 176/357/20 177/358/20 178/57/20
f 179/58/21 180/359/21 181/360/21
f 182/361/22 183/362/22 184/49/22
f 137/333/23 140/336/23 142/338/23 138/334/23
f 141/32/24 146/31/24 148/363/24 142/364/24
f 147/36/25 143/35/25 145/44/25 148/43/25
f 144/24/26 139/23/26 138/365/26 145/366/26
f 151/41/27 153/40/27 152/367/27 149/368/27
f 153/344/28 156/345/28 155/34/28 154/33/28
f 156/39/29 159/42/29 158/369/29 157/370/29
f 159/348/30 151/342/30 150/26/30 160/25/30
f 143/371/31 158/347/31 160/25/31 144/24/31
f 149/341/32 137/372/32 139/23/32 150/26/32
f 140/373/33 152/343/33 154/33/33 141/32/33
f 157/346/34 147/374/34 146/31/34 155/34/34
f 161/28/23 164/27/23 166/352/23 162/349/23
f 165/56/24 170/55/24 172/375/24 166/376/24
f 171/60/25 167/59/25 169/68/25 172/67/25
f 168/48/26 163/47/26 162/377/26 169/378/26
f 175/65/27 177/64/27 176/379/27 173/380/27
f 177/358/28 180/359/28 179/58/28 178/57/28
f 180/63/29 183/66/29 182/381/29 181/382/29
f 183/362/30 175/356/30 174/50/30 184/49/30
f 167/383/31 182/361/31 184/49/31 168/48/31
f 173/355/32 161/384/32 163/47/32 174/50/32
f 164/385/33 176/357/33 178/57/33 165/56/33
f 181/360/34 171/386/34 170/55/34 179/58/34
f 189/387/31 200/388/31 199/157/31 190/156/31
f 193/389/32 186/390/32 185/155/32 194/158/32
f 187/391/33 196/392/33 195/145/33 188/144/33
f 197/393/34 192/394/34 191/143/34 198/146/34
f 205/395/31 216/396/31 215/165/31 206/164/31
f 209/397/32 202/398/32 201/163/32 210/166/32
f 203/399/33 212/400/33 211/141/33 204/140/33
f 213/401/34 208/402/34 207/139/34 214/142/34
f 221/403/31 232/404/31 231/189/31 222/188/31
f 225/405/32 218/406/32 217/187/32 226/190/32
f 219/407/33 228/408/33 227/177/33 220/176/33
f 229/409/34 224/410/34 223/175/34 230/178/34
f 237/411/31 248/412/31 247/193/31 238/192/31
f 241/413/32 234/414/32 233/191/32 242/194/32
f 235/415/33 244/416/33 243/173/33 236/172/33
f 245/417/34 240/418/34 239/171/34 246/174/34
f 140/336/1 137/333/1 149/419/1 152/420/1
