# Blender 4.5.1 LTS
# www.blender.org
o GEO_FeudalJapaneseHouse_ShortPillar
v 0.090000 0.000600 -0.085843
v -0.090000 0.000600 -0.085843
v 0.090000 0.499400 -0.085843
v -0.090000 0.499400 -0.085843
v -0.090000 0.000600 0.085843
v 0.090000 0.000600 0.085843
v 0.090000 0.499400 0.085843
v -0.090000 0.499400 0.085843
vn -0.0000 -0.0000 -1.0000
vn -0.0000 -0.0000 1.0000
vn -1.0000 -0.0000 -0.0000
vn 1.0000 -0.0000 -0.0000
vt 0.012342 0.672788
vt 0.091880 0.672788
vt 0.091880 0.893867
vt 0.012342 0.893870
vt 0.172466 0.672788
vt 0.172466 0.893870
vt 0.092928 0.893870
vt 0.092928 0.672788
vt 0.250428 0.672788
vt 0.326292 0.672788
vt 0.326292 0.893869
vt 0.250428 0.893869
vt 0.249380 0.893865
vt 0.173514 0.893865
vt 0.173514 0.672788
vt 0.249380 0.672788
s 0
f 1/1/1 2/2/1 4/3/1 3/4/1
f 6/5/2 7/6/2 8/7/2 5/8/2
f 2/9/3 5/10/3 8/11/3 4/12/3
f 3/13/4 7/14/4 6/15/4 1/16/4
