# Blender 4.5.1 LTS
# www.blender.org
o GEO_FeudalJapaneseHouse_WallTrim
v -1.020000 -0.090000 -0.080984
v -1.020000 0.090000 -0.080984
v 1.020000 -0.090000 -0.080984
v 1.020000 0.090000 -0.080984
v -1.020000 0.090000 0.080984
v -1.020000 -0.090000 0.080984
v 1.020000 -0.090000 0.080984
v 1.020000 0.090000 0.080984
vn -0.0000 -0.0000 -1.0000
vn -0.0000 -0.0000 1.0000
vn -0.0000 1.0000 -0.0000
vn -0.0000 -1.0000 -0.0000
vt 0.063686 0.992906
vt 0.035303 0.992906
vt 0.035303 0.670252
vt 0.063686 0.670252
vt 0.034557 0.670252
vt 0.034557 0.992906
vt 0.006174 0.992906
vt 0.006174 0.670252
vt 0.090719 0.670252
vt 0.116259 0.670252
vt 0.116259 0.992903
vt 0.090719 0.992903
vt 0.089973 0.992906
vt 0.064433 0.992906
vt 0.064432 0.670252
vt 0.089972 0.670252
s 0
f 1/1/1 2/2/1 4/3/1 3/4/1
f 6/5/2 7/6/2 8/7/2 5/8/2
f 2/9/3 5/10/3 8/11/3 4/12/3
f 3/13/4 7/14/4 6/15/4 1/16/4
