# Blender 4.5.1 LTS
# www.blender.org
o GEO_FeudalJapaneseHouse_MidPillar
v 0.090000 0.001202 -0.085843
v -0.090000 0.001202 -0.085843
v 0.090000 1.001202 -0.085843
v -0.090000 1.001202 -0.085843
v -0.090000 0.001202 0.085843
v 0.090000 0.001202 0.085843
v 0.090000 1.001202 0.085843
v -0.090000 1.001202 0.085843
vn -0.0000 -0.0000 -1.0000
vn -0.0000 -0.0000 1.0000
vn -1.0000 -0.0000 -0.0000
vn 1.0000 -0.0000 -0.0000
vt 0.120889 0.996133
vt 0.062941 0.996133
vt 0.062941 0.673218
vt 0.120889 0.673218
vt 0.061860 0.673218
vt 0.061860 0.996135
vt 0.003911 0.996135
vt 0.003911 0.673218
vt 0.177243 0.996137
vt 0.121972 0.996137
vt 0.121972 0.673219
vt 0.177243 0.673219
vt 0.178325 0.673219
vt 0.233596 0.673219
vt 0.233596 0.996135
vt 0.178325 0.996135
s 0
f 1/1/1 2/2/1 4/3/1 3/4/1
f 6/5/2 7/6/2 8/7/2 5/8/2
f 2/9/3 5/10/3 8/11/3 4/12/3
f 3/13/4 7/14/4 6/15/4 1/16/4
