# Blender 4.5.1 LTS
# www.blender.org
o GEO_FeudalJapaneseHouse_Wall_C.016
v -1.000000 0.000000 -0.055136
v -1.000000 3.000000 -0.055136
v 1.000000 0.000000 -0.055136
v 1.000000 3.000000 -0.055136
v 1.000000 3.000000 0.055136
v 1.000000 0.000000 0.055136
v -0.563759 0.000000 -0.055136
v 0.563759 0.000000 -0.055136
v -1.000000 3.000000 0.055136
v -1.000000 0.000000 0.055136
v -0.563759 0.000000 0.055136
v 0.563759 0.000000 0.055136
v 0.563759 2.387081 -0.055136
v -0.563759 2.387081 -0.055136
v 0.563759 2.387081 0.055136
v -0.563759 2.387081 0.055136
v -0.454856 0.000000 -0.085382
v 0.454677 0.000000 -0.085382
v -0.454856 0.000000 0.101298
v 0.454677 0.000000 0.101298
v 0.454677 2.304980 -0.085382
v -0.454856 2.304980 -0.085382
v 0.454677 2.304980 0.101298
v -0.454856 2.304980 0.101298
v -0.559377 0.000000 -0.085382
v -0.559377 0.000000 0.101298
v 0.559200 0.000000 0.101298
v 0.559200 0.000000 -0.085382
v 0.559200 2.391568 0.101298
v -0.559377 2.391568 0.101298
v -0.559377 2.391568 -0.085382
v 0.559200 2.391568 -0.085382
vn -0.0000 -0.0000 -1.0000
vn -0.0000 -0.0000 1.0000
vn 1.0000 -0.0000 -0.0000
vn -1.0000 -0.0000 -0.0000
vn -0.0000 -1.0000 -0.0000
vn -0.0000 1.0000 -0.0000
vt 0.748589 0.591108
vt 0.843752 0.591108
vt 0.880571 0.643131
vt 0.711771 0.643131
vt 0.748589 0.388496
vt 0.711771 0.388496
vt 0.842980 0.590162
vt 0.806161 0.590162
vt 0.806161 0.387550
vt 0.842980 0.335526
vt 0.673970 0.663635
vt 0.673970 0.654329
vt 0.876584 0.654329
vt 0.876584 0.663635
vt 0.710998 0.387550
vt 0.674180 0.335526
vt 0.710998 0.590162
vt 0.674180 0.590162
vt 0.673974 0.653383
vt 0.673974 0.644076
vt 0.876584 0.644076
vt 0.876584 0.653383
vt 0.880571 0.388496
vt 0.843752 0.388496
vt 0.749378 0.388521
vt 0.758685 0.388521
vt 0.758685 0.484224
vt 0.749378 0.484224
vt 0.294507 0.950985
vt 0.273892 0.950985
vt 0.273892 0.695001
vt 0.294507 0.695001
vt 0.264280 0.715616
vt 0.264280 0.736230
vt 0.008295 0.736230
vt 0.008295 0.715616
vt 0.141463 0.736231
vt 0.141463 0.756845
vt 0.040452 0.756845
vt 0.040452 0.736231
vt 0.008295 0.695001
vt 0.273892 0.695001
vt 0.273892 0.715616
vt 0.008295 0.715616
vt 0.008295 0.674386
vt 0.273892 0.674386
vt 0.019837 0.860454
vt 0.019837 0.736230
vt 0.040452 0.736230
vt 0.040452 0.860454
vt 0.008295 0.736230
vt 0.019837 0.736230
vt 0.019837 1.001826
vt 0.008295 0.992211
vt 0.141463 0.747773
vt 0.151080 0.736231
vt 0.151080 0.859754
vt 0.141463 0.848212
vt 0.160696 0.848215
vt 0.151080 0.859758
vt 0.151080 0.736231
vt 0.160696 0.747773
vt 0.294507 0.704617
vt 0.306050 0.695001
vt 0.306050 0.960602
vt 0.294507 0.960602
vt 0.317592 0.950984
vt 0.306050 0.960599
vt 0.317592 0.695001
vt 0.329134 0.960597
vt 0.317592 0.960597
vt 0.317592 0.695001
vt 0.329134 0.704618
s 0
f 13/1/1 14/2/1 2/3/1 4/4/1
f 8/5/1 13/1/1 4/4/1 3/6/1
f 10/7/2 11/8/2 16/9/2 9/10/2
f 14/11/3 16/12/3 11/13/3 7/14/3
f 15/15/2 5/16/2 9/10/2 16/9/2
f 12/17/2 6/18/2 5/16/2 15/15/2
f 8/19/4 12/20/4 15/21/4 13/22/4
f 1/23/1 2/3/1 14/2/1 7/24/1
f 13/25/5 15/26/5 16/27/5 14/28/5
f 22/29/3 24/30/3 19/31/3 17/32/3
f 18/33/4 20/34/4 23/35/4 21/36/4
f 21/37/5 23/38/5 24/39/5 22/40/5
f 31/41/4 25/42/4 26/43/4 30/44/4
f 28/42/3 32/41/3 29/45/3 27/46/3
f 32/47/6 31/48/6 30/49/6 29/50/6
f 17/51/1 25/52/1 31/53/1 22/54/1
f 23/55/2 29/56/2 30/57/2 24/58/2
f 22/59/1 31/60/1 32/61/1 21/62/1
f 24/63/2 30/64/2 26/65/2 19/66/2
f 21/67/1 32/68/1 28/64/1 18/69/1
f 20/70/2 27/71/2 29/72/2 23/73/2
