# Blender 4.5.1 LTS
# www.blender.org
o GEO_FeudalJapaneseHouse_TriWall
v 2.050000 0.000000 -0.055136
v 0.056893 1.201997 -0.055136
v 0.624786 0.775464 -0.055136
v 1.466548 0.291508 -0.055136
v 0.000000 0.000000 -0.055136
v 0.000000 1.201997 -0.055136
v 0.000000 0.775464 -0.055136
v 0.000000 0.310035 -0.055136
v 2.050000 0.000000 0.055136
v 0.056893 1.201997 0.055136
v 0.624786 0.775464 0.055136
v 1.466548 0.291508 0.055136
v 0.000000 0.000000 0.055136
v 0.000000 1.201997 0.055136
v 0.000000 0.775464 0.055136
v 0.000000 0.310035 0.055136
vn -0.0000 -0.0000 -1.0000
vn -0.0000 -0.0000 1.0000
vt 0.987440 0.655381
vt 0.940248 0.655381
vt 0.943067 0.432192
vt 0.987440 0.343398
vt 0.869402 0.655381
vt 0.804477 0.655381
vt 0.804477 0.646723
vt 0.869402 0.560297
vt 0.674808 0.343418
vt 0.986792 0.343418
vt 0.897998 0.387790
vt 0.674808 0.390610
vt 0.674808 0.461456
vt 0.769892 0.461456
vt 0.683466 0.526381
vt 0.674808 0.526381
s 0
f 5/1/1 8/2/1 4/3/1 1/4/1
f 7/5/1 6/6/1 2/7/1 3/8/1
f 7/5/1 3/8/1 4/3/1 8/2/1
f 13/9/2 9/10/2 12/11/2 16/12/2
f 15/13/2 11/14/2 10/15/2 14/16/2
f 15/13/2 16/12/2 12/11/2 11/14/2
