# Blender 4.5.1 LTS
# www.blender.org
o GEO_FeudalJapaneseHouse_WoodenStairs
v -0.750750 0.101800 -0.173919
v -0.750750 0.101800 0.038339
v 0.750750 0.101800 -0.173919
v 0.750750 0.101800 0.038339
v -0.750750 0.001438 0.038339
v 0.750750 0.001438 0.038339
v 0.750750 0.001438 -0.173919
v -0.750750 0.001438 -0.173919
v -0.750750 0.297057 -0.000678
v -0.750750 0.297057 0.211580
v 0.750750 0.297057 -0.000678
v 0.750750 0.297057 0.211580
v -0.750750 0.196695 0.211580
v 0.750750 0.196695 0.211580
v 0.750750 0.196695 -0.000678
v -0.750750 0.196695 -0.000678
v -0.750750 0.492315 0.172564
v -0.750750 0.492315 0.384821
v 0.750750 0.492315 0.172564
v 0.750750 0.492315 0.384821
v -0.750750 0.391953 0.384821
v 0.750750 0.391953 0.384821
v 0.750750 0.391953 0.172564
v -0.750750 0.391953 0.172564
v -0.750750 0.687572 0.345805
v -0.750750 0.687572 0.558062
v 0.750750 0.687572 0.345805
v 0.750750 0.687572 0.558062
v -0.750750 0.587210 0.558062
v 0.750750 0.587210 0.558062
v 0.750750 0.587210 0.345805
v -0.750750 0.587210 0.345805
v -0.750750 0.882830 0.519046
v -0.750750 0.882830 0.731304
v 0.750750 0.882830 0.519046
v 0.750750 0.882830 0.731304
v -0.750750 0.782467 0.731304
v 0.750750 0.782467 0.731304
v 0.750750 0.782467 0.519046
v -0.750750 0.782467 0.519046
v -0.750750 1.078087 0.692287
v -0.750750 1.078087 0.904545
v 0.750750 1.078087 0.692287
v 0.750750 1.078087 0.904545
v -0.750750 0.977725 0.904545
v 0.750750 0.977725 0.904545
v 0.750750 0.977725 0.692287
v -0.750750 0.977725 0.692287
v -0.750750 1.273345 0.865529
v -0.750750 1.273345 1.077786
v 0.750750 1.273345 0.865529
v 0.750750 1.273345 1.077786
v -0.750750 1.172982 1.077786
v 0.750750 1.172982 1.077786
v 0.750750 1.172982 0.865529
v -0.750750 1.172982 0.865529
v -0.750750 1.468602 1.038770
v -0.750750 1.468602 1.251027
v 0.750750 1.468602 1.038770
v 0.750750 1.468602 1.251027
v -0.750750 1.368240 1.251027
v 0.750750 1.368240 1.251027
v 0.750750 1.368240 1.038770
v -0.750750 1.368240 1.038770
v -0.750750 1.663859 1.212011
v -0.750750 1.663859 1.424268
v 0.750750 1.663859 1.212011
v 0.750750 1.663859 1.424268
v -0.750750 1.563497 1.424268
v 0.750750 1.563497 1.424268
v 0.750750 1.563497 1.212011
v -0.750750 1.563497 1.212011
v -0.750750 1.859117 1.385252
v -0.750750 1.859117 1.597510
v 0.750750 1.859117 1.385252
v 0.750750 1.859117 1.597510
v -0.750750 1.758754 1.597510
v 0.750750 1.758754 1.597510
v 0.750750 1.758754 1.385252
v -0.750750 1.758754 1.385252
v -0.750750 2.054374 1.558494
v -0.750750 2.054374 1.770751
v 0.750750 2.054374 1.558493
v 0.750750 2.054374 1.770751
v -0.750750 1.954012 1.770751
v 0.750750 1.954012 1.770751
v 0.750750 1.954012 1.558493
v -0.750750 1.954012 1.558494
v -0.750750 2.249632 1.731735
v -0.750750 2.249632 1.943992
v 0.750750 2.249632 1.731735
v 0.750750 2.249632 1.943992
v -0.750750 2.149270 1.943992
v 0.750750 2.149270 1.943992
v 0.750750 2.149270 1.731735
v -0.750750 2.149269 1.731735
v -0.750750 2.444889 1.904976
v -0.750750 2.444889 2.117234
v 0.750750 2.444889 1.904976
v 0.750750 2.444889 2.117234
v -0.750750 2.344527 2.117234
v 0.750750 2.344527 2.117234
v 0.750750 2.344527 1.904976
v -0.750750 2.344527 1.904976
v -0.750750 2.640147 2.078217
v -0.750750 2.640147 2.290475
v 0.750750 2.640147 2.078217
v 0.750750 2.640147 2.290475
v -0.750750 2.539784 2.290475
v 0.750750 2.539784 2.290475
v 0.750750 2.539784 2.078217
v -0.750750 2.539784 2.078217
v -0.750750 2.835404 2.251458
v -0.750750 2.835404 2.463716
v 0.750750 2.835404 2.251458
v 0.750750 2.835404 2.463716
v -0.750750 2.735042 2.463716
v 0.750750 2.735042 2.463716
v 0.750750 2.735042 2.251458
v -0.750750 2.735042 2.251458
v -0.750750 3.030662 2.424700
v -0.750750 3.030662 2.636957
v 0.750750 3.030662 2.424700
v 0.750750 3.030662 2.636957
v -0.750750 2.930299 2.636957
v 0.750750 2.930299 2.636957
v 0.750750 2.930299 2.424700
v -0.750750 2.930299 2.424700
v -0.750750 3.225919 2.597941
v -0.750750 3.225919 2.810198
v 0.750750 3.225919 2.597941
v 0.750750 3.225919 2.810198
v -0.750750 3.125557 2.810198
v 0.750750 3.125557 2.810198
v 0.750750 3.125557 2.597941
v -0.750750 3.125557 2.597941
v -0.750750 3.421176 2.771182
v -0.750750 3.421176 2.983439
v 0.750750 3.421176 2.771182
v 0.750750 3.421176 2.983439
v -0.750750 3.320814 2.983439
v 0.750750 3.320814 2.983439
v 0.750750 3.320814 2.771182
v -0.750750 3.320814 2.771182
v -0.750750 3.616434 2.944423
v -0.750750 3.616434 3.156680
v 0.750750 3.616434 2.944423
v 0.750750 3.616434 3.156680
v -0.750750 3.516072 3.156680
v 0.750750 3.516072 3.156680
v 0.750750 3.516072 2.944423
v -0.750750 3.516072 2.944423
v -0.750750 3.811691 3.117664
v -0.750750 3.811691 3.329921
v 0.750750 3.811691 3.117664
v 0.750750 3.811691 3.329921
v -0.750750 3.711329 3.329921
v 0.750750 3.711329 3.329921
v 0.750750 3.711329 3.117664
v -0.750750 3.711329 3.117664
v -0.750750 4.006949 3.290905
v -0.750750 4.006949 3.503163
v 0.750750 4.006949 3.290905
v 0.750750 4.006949 3.503163
v -0.750750 3.906586 3.503163
v 0.750750 3.906586 3.503163
v 0.750750 3.906586 3.290905
v -0.750750 3.906586 3.290905
v 0.730766 4.053170 3.116484
v 0.730766 4.053170 3.670138
v 0.880916 4.053170 3.116484
v 0.880916 4.053170 3.670138
v 0.730766 -0.001001 0.076054
v 0.880916 -0.001001 0.076054
v 0.880916 -0.001001 -0.477600
v 0.730766 -0.001001 -0.477600
v -0.880916 4.053170 3.116484
v -0.880916 4.053170 3.670138
v -0.730766 4.053170 3.116484
v -0.730766 4.053170 3.670138
v -0.880916 -0.001001 0.076054
v -0.730766 -0.001001 0.076054
v -0.730766 -0.001001 -0.477600
v -0.880916 -0.001001 -0.477600
v 0.573071 4.053170 3.505944
v 0.573071 4.053170 3.607599
v 0.723220 4.053170 3.505944
v 0.723220 4.053170 3.607599
v 0.573070 -0.001001 0.038952
v 0.723220 -0.001001 0.038952
v 0.723220 -0.001001 -0.062702
v 0.573070 -0.001001 -0.062702
v -0.723220 4.053170 3.505944
v -0.723220 4.053170 3.607599
v -0.573070 4.053170 3.505944
v -0.573070 4.053170 3.607599
v -0.723220 -0.001001 0.038952
v -0.573070 -0.001001 0.038952
v -0.573070 -0.001001 -0.062702
v -0.723220 -0.001001 -0.062702
vn -0.0000 1.0000 -0.0000
vn -0.0000 -1.0000 -0.0000
vn -0.0000 -0.0000 -1.0000
vn -0.0000 -0.0000 1.0000
vn -0.0000 0.6634 -0.7483
vn -0.0000 -0.6634 0.7483
vn 1.0000 -0.0000 -0.0000
vn -1.0000 -0.0000 -0.0000
vn -0.0000 0.6607 -0.7506
vn -0.0000 -0.6607 0.7506
vt 0.108698 0.788272
vt 0.122475 0.788272
vt 0.122475 0.885771
vt 0.108698 0.885771
vt 0.218915 0.983270
vt 0.218915 0.885772
vt 0.232692 0.885772
vt 0.232692 0.983270
vt 0.315356 0.690771
vt 0.315356 0.788272
vt 0.308841 0.788272
vt 0.308841 0.690771
vt 0.177583 0.788272
vt 0.177583 0.690771
vt 0.184097 0.690771
vt 0.184097 0.788272
vt 0.053590 0.788273
vt 0.067367 0.788273
vt 0.067367 0.885771
vt 0.053590 0.885771
vt 0.108698 0.983270
vt 0.108698 0.885771
vt 0.122475 0.885771
vt 0.122475 0.983270
vt 0.301578 0.690770
vt 0.301578 0.788271
vt 0.295064 0.788271
vt 0.295064 0.690770
vt 0.101435 0.788272
vt 0.101435 0.690773
vt 0.107949 0.690773
vt 0.107949 0.788272
vt 0.122475 0.788272
vt 0.136252 0.788272
vt 0.136252 0.885771
vt 0.122475 0.885771
vt 0.053590 0.983270
vt 0.053590 0.885771
vt 0.067367 0.885771
vt 0.067367 0.983270
vt 0.288550 0.788271
vt 0.288550 0.690770
vt 0.295064 0.788271
vt 0.150029 0.788272
vt 0.150029 0.690771
vt 0.156543 0.690771
vt 0.156543 0.788272
vt 0.026035 0.788274
vt 0.039812 0.788274
vt 0.039812 0.885771
vt 0.026035 0.885771
vt 0.260247 0.983270
vt 0.260247 0.885771
vt 0.274024 0.885771
vt 0.274024 0.983270
vt 0.211652 0.690771
vt 0.211652 0.788271
vt 0.205138 0.788271
vt 0.205138 0.690771
vt 0.197875 0.690774
vt 0.197875 0.788272
vt 0.191360 0.788272
vt 0.191360 0.690774
vt 0.191361 0.885771
vt 0.205138 0.885771
vt 0.205138 0.983270
vt 0.191360 0.983270
vt 0.218915 0.885771
vt 0.205138 0.983270
vt 0.205138 0.885771
vt 0.308841 0.690772
vt 0.302327 0.788272
vt 0.302327 0.690772
vt 0.136252 0.788272
vt 0.136252 0.690773
vt 0.142766 0.690773
vt 0.142766 0.788272
vt 0.287801 0.983270
vt 0.274024 0.885771
vt 0.287801 0.885771
vt 0.260247 0.885772
vt 0.246469 0.983270
vt 0.246469 0.885772
vt 0.274024 0.788271
vt 0.274024 0.690771
vt 0.280538 0.690771
vt 0.280538 0.788271
vt 0.239955 0.788273
vt 0.239955 0.690774
vt 0.246469 0.690774
vt 0.246469 0.788273
vt 0.315356 0.983270
vt 0.301578 0.983270
vt 0.301578 0.885772
vt 0.315356 0.885772
vt 0.232692 0.885772
vt 0.232692 0.788273
vt 0.246469 0.788273
vt 0.233440 0.788273
vt 0.233440 0.690774
vt 0.239955 0.690774
vt 0.136252 0.690771
vt 0.136252 0.788272
vt 0.129738 0.788272
vt 0.129737 0.690771
vt 0.246469 0.788273
vt 0.260247 0.788273
vt 0.246469 0.885771
vt 0.232692 0.788273
vt 0.232692 0.885772
vt 0.218915 0.885772
vt 0.218915 0.788273
vt 0.260995 0.788272
vt 0.260995 0.690772
vt 0.267510 0.690772
vt 0.267510 0.788272
vt 0.212401 0.788271
vt 0.212401 0.690771
vt 0.218915 0.690771
vt 0.218915 0.788271
vt 0.094921 0.885771
vt 0.081144 0.885771
vt 0.081144 0.788272
vt 0.094921 0.788272
vt 0.191360 0.885771
vt 0.191360 0.983270
vt 0.177583 0.983270
vt 0.177583 0.885771
vt 0.163806 0.690771
vt 0.163806 0.788272
vt 0.157292 0.788272
vt 0.157292 0.690771
vt 0.033298 0.690773
vt 0.033298 0.788272
vt 0.026784 0.788272
vt 0.026784 0.690773
vt 0.287801 0.885770
vt 0.274024 0.885770
vt 0.274024 0.788271
vt 0.287801 0.788271
vt 0.150029 0.885771
vt 0.150029 0.983270
vt 0.136252 0.983270
vt 0.073881 0.788271
vt 0.073881 0.690771
vt 0.080395 0.690771
vt 0.080395 0.788271
vt 0.087658 0.690772
vt 0.087658 0.788272
vt 0.081144 0.788272
vt 0.081143 0.690772
vt 0.205138 0.788272
vt 0.218915 0.788272
vt 0.205138 0.885772
vt 0.177583 0.885772
vt 0.163806 0.983270
vt 0.163806 0.885772
vt 0.123223 0.788272
vt 0.123223 0.690772
vt 0.129737 0.690772
vt 0.129738 0.788272
vt 0.267510 0.788272
vt 0.267510 0.690771
vt 0.274024 0.690771
vt 0.274024 0.788272
vt 0.301579 0.885772
vt 0.301579 0.788272
vt 0.108698 0.885771
vt 0.108697 0.983270
vt 0.094921 0.983270
vt 0.094921 0.885771
vt 0.191360 0.690771
vt 0.184846 0.788272
vt 0.184846 0.690771
vt 0.197875 0.690771
vt 0.204389 0.690771
vt 0.204389 0.788272
vt 0.094921 0.885771
vt 0.108698 0.788272
vt 0.150029 0.788272
vt 0.150029 0.885771
vt 0.136252 0.885771
vt 0.136252 0.788272
vt 0.033298 0.690773
vt 0.039812 0.690773
vt 0.039812 0.788272
vt 0.094921 0.788272
vt 0.094920 0.690773
vt 0.101435 0.690773
vt 0.039812 0.885771
vt 0.039812 0.983270
vt 0.260247 0.885771
vt 0.260247 0.788271
vt 0.246470 0.788274
vt 0.246469 0.690776
vt 0.252984 0.690776
vt 0.252984 0.788274
vt 0.060104 0.788273
vt 0.060104 0.690775
vt 0.066618 0.690775
vt 0.066618 0.788273
vt 0.191361 0.885771
vt 0.191361 0.788271
vt 0.067367 0.788271
vt 0.081144 0.788271
vt 0.081144 0.885771
vt 0.046327 0.690773
vt 0.046327 0.788272
vt 0.039812 0.788272
vt 0.039812 0.690773
vt 0.122475 0.690771
vt 0.115961 0.788272
vt 0.115961 0.690771
vt 0.039813 0.983270
vt 0.026035 0.983270
vt 0.026035 0.885771
vt 0.163806 0.885771
vt 0.163806 0.788271
vt 0.177583 0.788271
vt 0.150029 0.690773
vt 0.150029 0.788272
vt 0.143514 0.788272
vt 0.143514 0.690773
vt 0.281287 0.788271
vt 0.281287 0.690771
vt 0.287801 0.690771
vt 0.287801 0.788271
vt 0.150029 0.885772
vt 0.150029 0.788273
vt 0.163806 0.788273
vt 0.081143 0.983270
vt 0.081143 0.885771
vt 0.094921 0.885771
vt 0.067367 0.690771
vt 0.073881 0.690771
vt 0.218915 0.788273
vt 0.218915 0.690774
vt 0.225429 0.690774
vt 0.225429 0.788273
vt 0.301578 0.885770
vt 0.246469 0.885772
vt 0.246469 0.983270
vt 0.232692 0.983270
vt 0.232692 0.885772
vt 0.253733 0.788274
vt 0.253732 0.690776
vt 0.260247 0.690776
vt 0.260247 0.788274
vt 0.053589 0.690772
vt 0.060104 0.690772
vt 0.060104 0.788273
vt 0.053590 0.788272
vt 0.163806 0.885771
vt 0.163806 0.983270
vt 0.150029 0.983270
vt 0.046327 0.788272
vt 0.046327 0.690772
vt 0.052841 0.690772
vt 0.052841 0.788272
vt 0.171069 0.788272
vt 0.171069 0.690772
vt 0.177583 0.690772
vt 0.177583 0.788272
vt 0.287801 0.788273
vt 0.301578 0.788273
vt 0.301578 0.885772
vt 0.287801 0.885772
vt 0.177583 0.885771
vt 0.177583 0.788272
vt 0.191360 0.788272
vt 0.191360 0.885771
vt 0.171069 0.690771
vt 0.171069 0.788272
vt 0.164554 0.788272
vt 0.164554 0.690771
vt 0.115212 0.690771
vt 0.115212 0.788272
vt 0.108698 0.690771
vt 0.067366 0.983270
vt 0.067366 0.885771
vt 0.081143 0.885771
vt 0.225429 0.690774
vt 0.231944 0.690774
vt 0.231944 0.788273
vt 0.088406 0.788272
vt 0.088406 0.690772
vt 0.094920 0.690772
vt 0.163172 0.896210
vt 0.163172 0.921038
vt 0.156441 0.921038
vt 0.156441 0.896210
vt 0.070013 0.694211
vt 0.077794 0.694211
vt 0.077794 0.904382
vt 0.070013 0.904382
vt 0.062232 0.694211
vt 0.070013 0.694211
vt 0.070013 0.904382
vt 0.062232 0.904382
vt 0.009529 0.710681
vt 0.028100 0.694211
vt 0.028100 0.937172
vt 0.009529 0.953642
vt 0.287531 0.935071
vt 0.268960 0.918601
vt 0.268960 0.675640
vt 0.287531 0.692110
vt 0.172686 0.896210
vt 0.172686 0.921039
vt 0.165956 0.921039
vt 0.165956 0.896210
vt 0.054452 0.904381
vt 0.046671 0.904381
vt 0.046671 0.694211
vt 0.054452 0.694211
vt 0.054452 0.694211
vt 0.062232 0.904382
vt 0.054452 0.904382
vt 0.148530 0.911280
vt 0.129959 0.927750
vt 0.129959 0.684789
vt 0.148530 0.668319
vt 0.028100 0.694211
vt 0.046671 0.710681
vt 0.046671 0.953642
vt 0.028100 0.937172
vt 0.118382 0.896211
vt 0.118382 0.900767
vt 0.111649 0.900767
vt 0.111649 0.896211
vt 0.085562 0.904054
vt 0.077794 0.904054
vt 0.077794 0.694211
vt 0.085562 0.694211
vt 0.108868 0.904055
vt 0.101099 0.904055
vt 0.101099 0.694211
vt 0.108868 0.694211
vt 0.288877 0.946801
vt 0.291888 0.950222
vt 0.049683 0.950221
vt 0.046671 0.946801
vt 0.046671 0.953642
vt 0.049683 0.950222
vt 0.291889 0.950222
vt 0.288877 0.953642
vt 0.223043 0.900767
vt 0.223043 0.896210
vt 0.229776 0.896210
vt 0.229776 0.900767
vt 0.085562 0.694211
vt 0.093331 0.694211
vt 0.093331 0.904055
vt 0.085562 0.904055
vt 0.093331 0.694211
vt 0.093331 0.904055
vt 0.251734 0.953642
vt 0.254746 0.957062
vt 0.012541 0.957062
vt 0.009529 0.953642
vt 0.049683 0.943381
vt 0.291888 0.943381
vt 0.288876 0.946801
s 0
f 4/1/1 3/2/1 1/3/1 2/4/1
f 6/5/2 5/6/2 8/7/2 7/8/2
f 1/9/3 3/10/3 7/11/3 8/12/3
f 4/13/4 2/14/4 5/15/4 6/16/4
f 12/17/1 11/18/1 9/19/1 10/20/1
f 14/21/2 13/22/2 16/23/2 15/24/2
f 9/25/3 11/26/3 15/27/3 16/28/3
f 12/29/4 10/30/4 13/31/4 14/32/4
f 20/33/1 19/34/1 17/35/1 18/36/1
f 22/37/2 21/38/2 24/39/2 23/40/2
f 17/41/3 19/42/3 23/28/3 24/43/3
f 20/44/4 18/45/4 21/46/4 22/47/4
f 28/48/1 27/49/1 25/50/1 26/51/1
f 30/52/2 29/53/2 32/54/2 31/55/2
f 25/56/3 27/57/3 31/58/3 32/59/3
f 28/60/4 26/61/4 29/62/4 30/63/4
f 36/64/1 35/65/1 33/66/1 34/67/1
f 38/68/2 37/5/2 40/69/2 39/70/2
f 33/71/3 35/11/3 39/72/3 40/73/3
f 36/74/4 34/75/4 37/76/4 38/77/4
f 44/78/1 43/55/1 41/79/1 42/80/1
f 46/81/2 45/52/2 48/82/2 47/83/2
f 41/84/3 43/85/3 47/86/3 48/87/3
f 44/88/4 42/89/4 45/90/4 46/91/4
f 52/92/1 51/93/1 49/94/1 50/95/1
f 54/96/2 53/97/2 56/98/2 55/83/2
f 49/99/3 51/100/3 55/101/3 56/88/3
f 52/102/4 50/103/4 53/104/4 54/105/4
f 60/106/1 59/107/1 57/53/1 58/108/1
f 62/109/2 61/110/2 64/111/2 63/112/2
f 57/113/3 59/114/3 63/115/3 64/116/3
f 60/117/4 58/118/4 61/119/4 62/120/4
f 68/121/1 67/122/1 65/123/1 66/124/1
f 70/125/2 69/126/2 72/127/2 71/128/2
f 65/129/3 67/130/3 71/131/3 72/132/3
f 68/133/4 66/134/4 69/135/4 70/136/4
f 76/137/1 75/138/1 73/139/1 74/140/1
f 78/141/2 77/142/2 80/143/2 79/35/2
f 73/144/3 75/145/3 79/146/3 80/147/3
f 76/148/4 74/149/4 77/150/4 78/151/4
f 84/152/1 83/153/1 81/6/1 82/154/1
f 86/155/2 85/127/2 88/156/2 87/157/2
f 81/158/3 83/159/3 87/160/3 88/161/3
f 84/162/4 82/163/4 85/164/4 86/165/4
f 92/95/1 91/166/1 89/167/1 90/10/1
f 94/168/2 93/169/2 96/170/2 95/171/2
f 89/172/3 91/62/3 95/173/3 96/174/3
f 92/61/4 90/175/4 93/176/4 94/177/4
f 100/22/1 99/178/1 97/124/1 98/179/1
f 102/180/2 101/181/2 104/182/2 103/183/2
f 97/134/3 99/184/3 103/185/3 104/186/3
f 100/187/4 98/188/4 101/189/4 102/29/4
f 108/190/1 107/38/1 105/37/1 106/191/1
f 110/84/2 109/79/2 112/192/2 111/193/2
f 105/194/3 107/195/3 111/196/3 112/197/3
f 108/198/4 106/199/4 109/200/4 110/201/4
f 116/70/1 115/202/1 113/203/1 114/58/1
f 118/19/2 117/204/2 120/205/2 119/206/2
f 113/207/3 115/208/3 119/209/3 120/210/3
f 116/211/4 114/2/4 117/212/4 118/213/4
f 124/214/1 123/215/1 121/216/1 122/190/1
f 126/217/2 125/218/2 128/219/2 127/128/2
f 121/220/3 123/221/3 127/222/3 128/223/3
f 124/224/4 122/225/4 125/226/4 126/227/4
f 132/157/1 131/228/1 129/229/1 130/230/1
f 134/231/2 133/232/2 136/233/2 135/170/2
f 129/204/3 131/234/3 135/235/3 136/144/3
f 132/236/4 130/237/4 133/238/4 134/239/4
f 140/93/1 139/78/1 137/137/1 138/240/1
f 142/241/2 141/242/2 144/243/2 143/244/2
f 137/245/3 139/246/3 143/247/3 144/248/3
f 140/17/4 138/249/4 141/250/4 142/251/4
f 148/186/1 147/252/1 145/20/1 146/50/1
f 150/253/2 149/254/2 152/255/2 151/181/2
f 145/256/3 147/257/3 151/258/3 152/259/3
f 148/260/4 146/261/4 149/262/4 150/263/4
f 156/264/1 155/265/1 153/266/1 154/267/1
f 158/268/2 157/269/2 160/270/2 159/271/2
f 153/272/3 155/273/3 159/274/3 160/275/3
f 156/276/4 154/277/4 157/1/4 158/278/4
f 164/231/1 163/279/1 161/280/1 162/281/1
f 166/35/2 165/143/2 168/24/2 167/3/2
f 161/239/3 163/282/3 167/283/3 168/284/3
f 164/285/4 162/286/4 165/287/4 166/187/4
f 172/288/1 171/289/1 169/290/1 170/291/1
f 169/292/5 171/293/5 175/294/5 176/295/5
f 172/296/6 170/297/6 173/298/6 174/299/6
f 171/300/7 172/301/7 174/302/7 175/303/7
f 170/304/8 169/305/8 176/306/8 173/307/8
f 180/308/1 179/309/1 177/310/1 178/311/1
f 177/312/5 179/313/5 183/314/5 184/315/5
f 180/316/6 178/296/6 181/317/6 182/318/6
f 179/319/7 180/320/7 182/321/7 183/322/7
f 178/323/8 177/324/8 184/325/8 181/326/8
f 188/327/1 187/328/1 185/329/1 186/330/1
f 185/331/9 187/332/9 191/333/9 192/334/9
f 188/335/10 186/336/10 189/337/10 190/338/10
f 187/339/7 188/340/7 190/341/7 191/342/7
f 186/343/8 185/344/8 192/345/8 189/346/8
f 196/347/1 195/348/1 193/349/1 194/350/1
f 193/351/9 195/352/9 199/353/9 200/354/9
f 196/355/10 194/337/10 197/336/10 198/356/10
f 195/357/7 196/358/7 198/359/7 199/360/7
f 194/342/8 193/361/8 200/362/8 197/363/8
