# Blender 4.5.1 LTS
# www.blender.org
o GEO_FeudalJapaneseHouse_Teacup
v -0.017686 -0.001915 -0.030633
v -0.030633 -0.001915 -0.017686
v -0.035372 -0.001915 0.000000
v -0.030633 -0.001915 0.017686
v -0.017686 -0.001915 0.030633
v -0.000000 -0.001915 0.035372
v 0.017685 -0.001915 0.030633
v 0.030632 -0.001915 0.017686
v 0.035371 -0.001915 0.000000
v 0.030632 -0.001915 -0.017686
v -0.000000 -0.001915 -0.035372
v 0.017685 -0.001915 -0.030633
v -0.000000 0.003168 -0.041146
v -0.000000 0.011697 -0.050655
v -0.000000 0.005666 -0.047599
v 0.020573 0.003168 -0.035634
v 0.025327 0.011697 -0.043869
v 0.023799 0.005666 -0.041222
v 0.035633 0.003168 -0.020573
v 0.043868 0.011697 -0.025328
v 0.041221 0.005666 -0.023799
v 0.041146 0.003168 0.000000
v 0.050655 0.011697 0.000000
v 0.047598 0.005666 0.000000
v 0.035633 0.003168 0.020573
v 0.043868 0.011697 0.025328
v 0.041221 0.005666 0.023799
v 0.020573 0.003168 0.035634
v 0.025327 0.011697 0.043869
v 0.023799 0.005666 0.041222
v -0.000000 0.003168 0.041146
v -0.000000 0.011697 0.050655
v -0.000000 0.005666 0.047599
v -0.020574 0.003168 0.035634
v -0.025328 0.011697 0.043869
v -0.023800 0.005666 0.041222
v -0.035634 0.003168 0.020573
v -0.043869 0.011697 0.025328
v -0.041222 0.005666 0.023799
v -0.041147 0.003168 0.000000
v -0.050656 0.011697 0.000000
v -0.047599 0.005666 0.000000
v -0.035634 0.003168 -0.020573
v -0.043869 0.011697 -0.025328
v -0.041222 0.005666 -0.023799
v -0.020574 0.003168 -0.035634
v -0.025328 0.011697 -0.043869
v -0.023800 0.005666 -0.041222
v -0.000000 -0.001915 -0.041146
v -0.020574 -0.001915 -0.035634
v -0.035634 -0.001915 -0.020573
v -0.041147 -0.001915 0.000000
v -0.035634 -0.001915 0.020573
v -0.020574 -0.001915 0.035634
v -0.000000 -0.001915 0.041146
v 0.020573 -0.001915 0.035634
v 0.035633 -0.001915 0.020573
v 0.041146 -0.001915 0.000000
v 0.035633 -0.001915 -0.020573
v 0.020573 -0.001915 -0.035634
v -0.000000 0.000342 0.000000
v -0.000000 0.000342 -0.035372
v -0.017686 0.000342 -0.030633
v -0.030633 0.000342 -0.017686
v -0.035372 0.000342 0.000000
v -0.030633 0.000342 0.017686
v -0.017686 0.000342 0.030633
v -0.000000 0.000342 0.035372
v 0.017685 0.000342 0.030633
v 0.030632 0.000342 0.017686
v 0.035371 0.000342 0.000000
v 0.030632 0.000342 -0.017686
v 0.017685 0.000342 -0.030633
v -0.000000 0.000342 -0.016236
v -0.008118 0.000342 -0.014061
v -0.014061 0.000342 -0.008118
v -0.016236 0.000342 0.000000
v -0.014061 0.000342 0.008118
v -0.008118 0.000342 0.014061
v -0.000000 0.000342 0.016236
v 0.008118 0.000342 0.014061
v 0.014061 0.000342 0.008118
v 0.016236 0.000342 0.000000
v 0.014061 0.000342 -0.008118
v 0.008118 0.000342 -0.014061
v -0.000000 0.009580 0.000000
v 0.016387 0.009580 -0.028384
v -0.000000 0.009580 -0.032775
v 0.028384 0.009580 -0.016388
v 0.032775 0.009580 0.000000
v 0.028384 0.009580 0.016388
v 0.016387 0.009580 0.028384
v -0.000000 0.009580 0.032775
v -0.016388 0.009580 0.028384
v -0.028385 0.009580 0.016388
v -0.032776 0.009580 0.000000
v -0.028385 0.009580 -0.016388
v -0.016388 0.009580 -0.028384
v 0.007434 0.009580 -0.012877
v -0.000000 0.009580 -0.014870
v 0.012877 0.009580 -0.007435
v 0.014869 0.009580 0.000000
v 0.012877 0.009580 0.007435
v 0.007434 0.009580 0.012877
v -0.000000 0.009580 0.014870
v -0.007435 0.009580 0.012877
v -0.012878 0.009580 0.007435
v -0.014870 0.009580 0.000000
v -0.012878 0.009580 -0.007435
v -0.007435 0.009580 -0.012877
v -0.000000 0.068244 -0.047555
v -0.000000 0.067554 -0.046657
v 0.023328 0.067554 -0.040406
v 0.023777 0.068244 -0.041184
v 0.040405 0.067554 -0.023328
v 0.041183 0.068244 -0.023777
v 0.046656 0.067554 0.000000
v 0.047555 0.068244 0.000000
v 0.040405 0.067554 0.023328
v 0.041183 0.068244 0.023778
v 0.023328 0.067554 0.040406
v 0.023777 0.068244 0.041184
v -0.000000 0.067554 0.046657
v -0.000000 0.068244 0.047555
v -0.023329 0.067554 0.040406
v -0.023778 0.068244 0.041184
v -0.040406 0.067554 0.023328
v -0.041184 0.068244 0.023778
v -0.046657 0.067554 0.000000
v -0.047555 0.068244 0.000000
v -0.040406 0.067554 -0.023328
v -0.041184 0.068244 -0.023777
v -0.023329 0.067554 -0.040406
v -0.023778 0.068244 -0.041184
v 0.027133 0.068244 -0.046996
v 0.027472 0.067538 -0.047584
v -0.000000 0.067538 -0.054946
v -0.000000 0.068244 -0.054267
v 0.046996 0.068244 -0.027133
v 0.047584 0.067538 -0.027473
v 0.054266 0.068244 0.000000
v 0.054945 0.067538 0.000000
v 0.046996 0.068244 0.027133
v 0.047584 0.067538 0.027473
v 0.027133 0.068244 0.046996
v 0.027472 0.067538 0.047584
v -0.000000 0.068244 0.054267
v -0.000000 0.067538 0.054946
v -0.027134 0.068244 0.046996
v -0.027473 0.067538 0.047584
v -0.046997 0.068244 0.027133
v -0.047585 0.067538 0.027473
v -0.054267 0.068244 0.000000
v -0.054946 0.067538 0.000000
v -0.046997 0.068244 -0.027133
v -0.047585 0.067538 -0.027473
v -0.027134 0.068244 -0.046996
v -0.027473 0.067538 -0.047584
vn 1.0000 -0.0000 -0.0000
vn 0.8660 -0.0000 0.5000
vn 0.5000 -0.0000 0.8660
vn -0.0000 -0.0000 1.0000
vn -1.0000 -0.0000 -0.0000
vn -0.8660 -0.0000 -0.5000
vn -0.5000 -0.0000 0.8660
vn -0.8660 -0.0000 0.5000
vn -0.5000 -0.0000 -0.8660
vn -0.0000 -0.0000 -1.0000
vn 0.5000 -0.0000 -0.8660
vn 0.8660 -0.0000 -0.5000
vn -0.0000 -0.2615 -0.9652
vn 0.4826 -0.2615 -0.8359
vn 0.3506 -0.7130 -0.6072
vn -0.0000 -0.7130 -0.7012
vn 0.1805 -0.9326 -0.3127
vn -0.0000 -0.9326 -0.3610
vn 0.8359 -0.2615 -0.4826
vn 0.6072 -0.7130 -0.3506
vn 0.3127 -0.9326 -0.1805
vn 0.9652 -0.2615 -0.0000
vn 0.7012 -0.7130 -0.0000
vn 0.3610 -0.9326 -0.0000
vn 0.8359 -0.2615 0.4826
vn 0.6072 -0.7130 0.3506
vn 0.3127 -0.9326 0.1805
vn 0.4826 -0.2615 0.8359
vn 0.3506 -0.7130 0.6072
vn 0.1805 -0.9326 0.3127
vn -0.0000 -0.2615 0.9652
vn -0.0000 -0.7130 0.7012
vn -0.0000 -0.9326 0.3610
vn -0.4826 -0.2615 0.8359
vn -0.3506 -0.7130 0.6072
vn -0.1805 -0.9326 0.3127
vn -0.8359 -0.2615 0.4826
vn -0.6072 -0.7130 0.3506
vn -0.3127 -0.9326 0.1805
vn -0.9652 -0.2615 -0.0000
vn -0.7012 -0.7130 -0.0000
vn -0.3610 -0.9326 -0.0000
vn -0.8359 -0.2615 -0.4826
vn -0.6072 -0.7130 -0.3506
vn -0.3127 -0.9326 -0.1805
vn -0.4826 -0.2615 -0.8359
vn -0.3506 -0.7130 -0.6072
vn -0.1805 -0.9326 -0.3127
vn -0.0000 -1.0000 -0.0000
vn -0.0000 1.0000 -0.0000
vn 0.4740 0.3180 -0.8211
vn -0.0000 0.3180 -0.9481
vn -0.0000 0.8960 -0.4441
vn 0.2221 0.8960 -0.3846
vn 0.8211 0.3180 -0.4740
vn 0.3846 0.8960 -0.2221
vn 0.9481 0.3180 -0.0000
vn 0.4441 0.8960 -0.0000
vn 0.8211 0.3180 0.4740
vn 0.3846 0.8960 0.2221
vn 0.4740 0.3180 0.8211
vn 0.2221 0.8960 0.3846
vn -0.0000 0.3180 0.9481
vn -0.0000 0.8960 0.4441
vn -0.4740 0.3180 0.8211
vn -0.2221 0.8960 0.3846
vn -0.8211 0.3180 0.4740
vn -0.3846 0.8960 0.2221
vn -0.9481 0.3180 -0.0000
vn -0.4441 0.8960 -0.0000
vn -0.8211 0.3180 -0.4740
vn -0.3846 0.8960 -0.2221
vn -0.4740 0.3180 -0.8211
vn -0.2221 0.8960 -0.3846
vn -0.1360 0.9623 0.2356
vn -0.0000 0.9623 0.2721
vn -0.0000 0.5709 0.8210
vn -0.4105 0.5709 0.7110
vn -0.2356 0.9623 0.1360
vn -0.7110 0.5709 0.4105
vn -0.2721 0.9623 -0.0000
vn -0.8210 0.5709 -0.0000
vn -0.2356 0.9623 -0.1360
vn -0.7110 0.5709 -0.4105
vn -0.1360 0.9623 -0.2356
vn -0.4105 0.5709 -0.7110
vn -0.0000 0.9623 -0.2721
vn -0.0000 0.5709 -0.8210
vn 0.1360 0.9623 -0.2356
vn 0.4105 0.5709 -0.7110
vn 0.2356 0.9623 -0.1360
vn 0.7110 0.5709 -0.4105
vn 0.2721 0.9623 -0.0000
vn 0.8210 0.5709 -0.0000
vn 0.2356 0.9623 0.1360
vn 0.7110 0.5709 0.4105
vn 0.1360 0.9623 0.2356
vn 0.4105 0.5709 0.7110
vn -0.0000 0.2329 0.9725
vn -0.4863 0.2329 0.8422
vn 0.4863 0.2329 0.8422
vn -0.8422 0.2329 0.4863
vn -0.9725 0.2329 -0.0000
vn -0.8422 0.2329 -0.4863
vn -0.4863 0.2329 -0.8422
vn -0.0000 0.2329 -0.9725
vn 0.4863 0.2329 -0.8422
vn 0.8422 0.2329 -0.4863
vn 0.9725 0.2329 -0.0000
vn 0.8422 0.2329 0.4863
vt 0.753596 0.044127
vt 0.726821 0.044127
vt 0.726821 0.038540
vt 0.753596 0.038540
vt 0.700046 0.044127
vt 0.673270 0.044127
vt 0.673270 0.038540
vt 0.700046 0.038540
vt 0.914246 0.044127
vt 0.887471 0.044127
vt 0.887471 0.038540
vt 0.914246 0.038540
vt 0.967796 0.044127
vt 0.941021 0.044127
vt 0.941021 0.038540
vt 0.967796 0.038540
vt 0.994571 0.044127
vt 0.994571 0.038540
vt 0.700046 0.032193
vt 0.673270 0.032193
vt 0.673270 0.029712
vt 0.700046 0.029712
vt 0.860696 0.044127
vt 0.833921 0.044127
vt 0.833920 0.038540
vt 0.860696 0.038540
vt 0.807146 0.044127
vt 0.780371 0.044127
vt 0.780371 0.038540
vt 0.807146 0.038540
vt 0.833921 0.059163
vt 0.807146 0.059163
vt 0.807146 0.051732
vt 0.833921 0.051732
vt 0.780371 0.059163
vt 0.780371 0.051732
vt 0.753596 0.059163
vt 0.753596 0.051732
vt 0.726821 0.059163
vt 0.726821 0.051732
vt 0.700046 0.059163
vt 0.700046 0.051732
vt 0.673270 0.059163
vt 0.673270 0.051732
vt 0.994571 0.059163
vt 0.967796 0.059163
vt 0.967796 0.051732
vt 0.994571 0.051732
vt 0.941021 0.059163
vt 0.941021 0.051732
vt 0.914246 0.059163
vt 0.914246 0.051732
vt 0.887471 0.059163
vt 0.887471 0.051732
vt 0.860696 0.059163
vt 0.860696 0.051732
vt 0.833921 0.032193
vt 0.860696 0.032193
vt 0.887471 0.032193
vt 0.914246 0.032193
vt 0.941021 0.032193
vt 0.967796 0.032193
vt 0.994571 0.032193
vt 0.726821 0.032193
vt 0.753596 0.032193
vt 0.780371 0.032193
vt 0.807146 0.032193
vt 0.914246 0.029712
vt 0.941021 0.029712
vt 0.780371 0.029712
vt 0.807146 0.029712
vt 0.833921 0.029712
vt 0.860696 0.029712
vt 0.726821 0.029712
vt 0.967796 0.029712
vt 0.887471 0.029712
vt 0.753596 0.029712
vt 0.994571 0.029712
vt 0.833921 0.008680
vt 0.860696 0.008680
vt 0.887471 0.008680
vt 0.914246 0.008680
vt 0.941021 0.008680
vt 0.967796 0.008680
vt 0.994571 0.008680
vt 0.673270 0.008680
vt 0.700046 0.008680
vt 0.726821 0.008680
vt 0.753596 0.008680
vt 0.780371 0.008680
vt 0.807146 0.008680
vt 0.695130 0.237480
vt 0.700988 0.259340
vt 0.689273 0.259340
vt 0.711133 0.253483
vt 0.716990 0.243338
vt 0.716990 0.231623
vt 0.711133 0.221478
vt 0.700988 0.215621
vt 0.689273 0.215621
vt 0.679128 0.221478
vt 0.673270 0.231623
vt 0.673270 0.243338
vt 0.679128 0.253483
vt 0.833921 0.215621
vt 0.807146 0.215621
vt 0.807146 0.195940
vt 0.833921 0.195940
vt 0.780371 0.215621
vt 0.780371 0.195940
vt 0.753596 0.215621
vt 0.753596 0.195940
vt 0.726821 0.215621
vt 0.726821 0.195940
vt 0.700046 0.215621
vt 0.700046 0.195940
vt 0.673270 0.215621
vt 0.673270 0.195940
vt 0.994571 0.215621
vt 0.967796 0.215621
vt 0.967796 0.195940
vt 0.994571 0.195940
vt 0.941021 0.215621
vt 0.941021 0.195940
vt 0.914246 0.215621
vt 0.914246 0.195940
vt 0.887471 0.215621
vt 0.887471 0.195940
vt 0.860696 0.215621
vt 0.860696 0.195940
vt 0.737010 0.235640
vt 0.716990 0.230276
vt 0.722355 0.220985
vt 0.716990 0.241005
vt 0.722355 0.250296
vt 0.731646 0.255660
vt 0.742374 0.255660
vt 0.751666 0.250296
vt 0.757030 0.241005
vt 0.757030 0.230276
vt 0.751666 0.220985
vt 0.742374 0.215621
vt 0.731646 0.215621
vt 0.807146 0.120720
vt 0.833920 0.120720
vt 0.833921 0.121796
vt 0.807146 0.121796
vt 0.780371 0.120720
vt 0.780371 0.121796
vt 0.753596 0.120720
vt 0.753596 0.121796
vt 0.726821 0.120720
vt 0.726821 0.121796
vt 0.700046 0.120720
vt 0.700046 0.121796
vt 0.673270 0.120720
vt 0.673270 0.121796
vt 0.967796 0.120720
vt 0.994571 0.120720
vt 0.994571 0.121796
vt 0.967796 0.121796
vt 0.941021 0.120720
vt 0.941021 0.121796
vt 0.914246 0.120720
vt 0.914246 0.121796
vt 0.887471 0.120720
vt 0.887471 0.121796
vt 0.860696 0.120720
vt 0.860696 0.121796
vt 0.807146 0.129173
vt 0.833921 0.129173
vt 0.833921 0.130419
vt 0.807146 0.130419
vt 0.780371 0.129173
vt 0.780371 0.130419
vt 0.753596 0.129173
vt 0.753596 0.130419
vt 0.726821 0.129173
vt 0.726821 0.130419
vt 0.700046 0.129173
vt 0.700046 0.130419
vt 0.673270 0.129173
vt 0.673270 0.130419
vt 0.967796 0.129173
vt 0.994571 0.129173
vt 0.994571 0.130419
vt 0.967796 0.130419
vt 0.941021 0.129173
vt 0.941021 0.130419
vt 0.914246 0.129173
vt 0.914246 0.130419
vt 0.887471 0.129173
vt 0.887471 0.130419
vt 0.860696 0.129173
vt 0.860696 0.130419
s 1
f 22/1/1 25/2/2 57/3/2 58/4/1
f 28/5/3 31/6/4 55/7/4 56/8/3
f 40/9/5 43/10/6 51/11/6 52/12/5
f 34/13/7 37/14/8 53/15/8 54/16/7
f 25/2/2 28/5/3 56/8/3 57/3/2
f 31/17/4 34/13/7 54/16/7 55/18/4
f 7/19/9 6/20/10 68/21/10 69/22/9
f 46/23/9 13/24/10 49/25/10 50/26/9
f 16/27/11 19/28/12 59/29/12 60/30/11
f 37/14/8 40/9/5 52/12/5 53/15/8
f 13/24/10 16/27/11 60/30/11 49/25/10
f 19/28/12 22/1/1 58/4/1 59/29/12
f 14/31/13 17/32/14 18/33/15 15/34/16
f 15/34/16 18/33/15 16/27/17 13/24/18
f 17/32/14 20/35/19 21/36/20 18/33/15
f 18/33/15 21/36/20 19/28/21 16/27/17
f 20/35/19 23/37/22 24/38/23 21/36/20
f 21/36/20 24/38/23 22/1/24 19/28/21
f 23/37/22 26/39/25 27/40/26 24/38/23
f 24/38/23 27/40/26 25/2/27 22/1/24
f 26/39/25 29/41/28 30/42/29 27/40/26
f 27/40/26 30/42/29 28/5/30 25/2/27
f 29/41/28 32/43/31 33/44/32 30/42/29
f 30/42/29 33/44/32 31/6/33 28/5/30
f 32/45/31 35/46/34 36/47/35 33/48/32
f 33/48/32 36/47/35 34/13/36 31/17/33
f 35/46/34 38/49/37 39/50/38 36/47/35
f 36/47/35 39/50/38 37/14/39 34/13/36
f 38/49/37 41/51/40 42/52/41 39/50/38
f 39/50/38 42/52/41 40/9/42 37/14/39
f 41/51/40 44/53/43 45/54/44 42/52/41
f 42/52/41 45/54/44 43/10/45 40/9/42
f 44/53/43 47/55/46 48/56/47 45/54/44
f 45/54/44 48/56/47 46/23/48 43/10/45
f 47/55/46 14/31/13 15/34/16 48/56/47
f 48/56/47 15/34/16 13/24/18 46/23/48
f 43/10/6 46/23/9 50/26/9 51/11/6
f 11/57/49 1/58/49 50/26/49 49/25/49
f 1/58/49 2/59/49 51/11/49 50/26/49
f 2/59/49 3/60/49 52/12/49 51/11/49
f 3/60/49 4/61/49 53/15/49 52/12/49
f 4/61/49 5/62/49 54/16/49 53/15/49
f 5/62/49 6/63/49 55/18/49 54/16/49
f 6/20/49 7/19/49 56/8/49 55/7/49
f 7/19/49 8/64/49 57/3/49 56/8/49
f 8/64/49 9/65/49 58/4/49 57/3/49
f 9/65/49 10/66/49 59/29/49 58/4/49
f 10/66/49 12/67/49 60/30/49 59/29/49
f 12/67/49 11/57/49 49/25/49 60/30/49
f 4/61/12 3/60/1 65/68/1 66/69/12
f 12/67/7 10/66/8 72/70/8 73/71/7
f 1/58/3 11/57/4 62/72/4 63/73/3
f 8/64/6 7/19/9 69/22/9 70/74/6
f 5/62/11 4/61/12 66/69/12 67/75/11
f 11/57/4 12/67/7 73/71/7 62/72/4
f 2/59/2 1/58/3 63/73/3 64/76/2
f 9/65/5 8/64/6 70/74/6 71/77/5
f 6/63/10 5/62/11 67/75/11 68/78/10
f 3/60/1 2/59/2 64/76/2 65/68/1
f 10/66/8 9/65/5 71/77/5 72/70/8
f 74/79/49 75/80/49 63/73/49 62/72/49
f 75/80/49 76/81/49 64/76/49 63/73/49
f 76/81/49 77/82/49 65/68/49 64/76/49
f 77/82/49 78/83/49 66/69/49 65/68/49
f 78/83/49 79/84/49 67/75/49 66/69/49
f 79/84/49 80/85/49 68/78/49 67/75/49
f 80/86/49 81/87/49 69/22/49 68/21/49
f 81/87/49 82/88/49 70/74/49 69/22/49
f 82/88/49 83/89/49 71/77/49 70/74/49
f 83/89/49 84/90/49 72/70/49 71/77/49
f 84/90/49 85/91/49 73/71/49 72/70/49
f 85/91/49 74/79/49 62/72/49 73/71/49
f 61/92/49 75/93/49 74/94/49
f 61/92/49 76/95/49 75/93/49
f 61/92/49 77/96/49 76/95/49
f 61/92/49 78/97/49 77/96/49
f 61/92/49 79/98/49 78/97/49
f 61/92/49 80/99/49 79/98/49
f 61/92/49 81/100/49 80/99/49
f 61/92/49 82/101/49 81/100/49
f 61/92/49 83/102/49 82/101/49
f 61/92/49 84/103/49 83/102/49
f 61/92/49 85/104/49 84/103/49
f 61/92/49 74/94/49 85/104/49
f 100/105/50 99/106/50 87/107/50 88/108/50
f 99/106/50 101/109/50 89/110/50 87/107/50
f 101/109/50 102/111/50 90/112/50 89/110/50
f 102/111/50 103/113/50 91/114/50 90/112/50
f 103/113/50 104/115/50 92/116/50 91/114/50
f 104/115/50 105/117/50 93/118/50 92/116/50
f 105/119/50 106/120/50 94/121/50 93/122/50
f 106/120/50 107/123/50 95/124/50 94/121/50
f 107/123/50 108/125/50 96/126/50 95/124/50
f 108/125/50 109/127/50 97/128/50 96/126/50
f 109/127/50 110/129/50 98/130/50 97/128/50
f 110/129/50 100/105/50 88/108/50 98/130/50
f 86/131/50 99/132/50 100/133/50
f 86/131/50 101/134/50 99/132/50
f 86/131/50 102/135/50 101/134/50
f 86/131/50 103/136/50 102/135/50
f 86/131/50 104/137/50 103/136/50
f 86/131/50 105/138/50 104/137/50
f 86/131/50 106/139/50 105/138/50
f 86/131/50 107/140/50 106/139/50
f 86/131/50 108/141/50 107/140/50
f 86/131/50 109/142/50 108/141/50
f 86/131/50 110/143/50 109/142/50
f 86/131/50 100/133/50 110/143/50
f 136/144/51 137/145/52 138/146/53 135/147/54
f 140/148/55 136/144/51 135/147/54 139/149/56
f 142/150/57 140/148/55 139/149/56 141/151/58
f 144/152/59 142/150/57 141/151/58 143/153/60
f 146/154/61 144/152/59 143/153/60 145/155/62
f 148/156/63 146/154/61 145/155/62 147/157/64
f 150/158/65 148/159/63 147/160/64 149/161/66
f 152/162/67 150/158/65 149/161/66 151/163/68
f 154/164/69 152/162/67 151/163/68 153/165/70
f 156/166/71 154/164/69 153/165/70 155/167/72
f 158/168/73 156/166/71 155/167/72 157/169/74
f 137/145/52 158/168/73 157/169/74 138/146/53
f 114/170/75 111/171/76 112/172/77 113/173/78
f 116/174/79 114/170/75 113/173/78 115/175/80
f 118/176/81 116/174/79 115/175/80 117/177/82
f 120/178/83 118/176/81 117/177/82 119/179/84
f 122/180/85 120/178/83 119/179/84 121/181/86
f 124/182/87 122/180/85 121/181/86 123/183/88
f 126/184/89 124/185/87 123/186/88 125/187/90
f 128/188/91 126/184/89 125/187/90 127/189/92
f 130/190/93 128/188/91 127/189/92 129/191/94
f 132/192/95 130/190/93 129/191/94 131/193/96
f 134/194/97 132/192/95 131/193/96 133/195/98
f 111/171/76 134/194/97 133/195/98 112/172/77
f 113/173/78 112/172/77 88/108/99 87/107/100
f 111/171/76 114/170/75 135/147/54 138/146/53
f 112/172/77 133/195/98 98/130/101 88/108/99
f 134/194/97 111/171/76 138/146/53 157/169/74
f 114/170/75 116/174/79 139/149/56 135/147/54
f 115/175/80 113/173/78 87/107/100 89/110/102
f 116/174/79 118/176/81 141/151/58 139/149/56
f 117/177/82 115/175/80 89/110/102 90/112/103
f 118/176/81 120/178/83 143/153/60 141/151/58
f 119/179/84 117/177/82 90/112/103 91/114/104
f 120/178/83 122/180/85 145/155/62 143/153/60
f 121/181/86 119/179/84 91/114/104 92/116/105
f 122/180/85 124/182/87 147/157/64 145/155/62
f 123/183/88 121/181/86 92/116/105 93/118/106
f 124/185/87 126/184/89 149/161/66 147/160/64
f 125/187/90 123/186/88 93/122/106 94/121/107
f 127/189/92 125/187/90 94/121/107 95/124/108
f 126/184/89 128/188/91 151/163/68 149/161/66
f 128/188/91 130/190/93 153/165/70 151/163/68
f 129/191/94 127/189/92 95/124/108 96/126/109
f 130/190/93 132/192/95 155/167/72 153/165/70
f 131/193/96 129/191/94 96/126/109 97/128/110
f 132/192/95 134/194/97 157/169/74 155/167/72
f 133/195/98 131/193/96 97/128/110 98/130/101
f 17/32/14 136/144/51 140/148/55 20/35/19
f 14/31/13 137/145/52 136/144/51 17/32/14
f 47/55/46 158/168/73 137/145/52 14/31/13
f 20/35/19 140/148/55 142/150/57 23/37/22
f 23/37/22 142/150/57 144/152/59 26/39/25
f 26/39/25 144/152/59 146/154/61 29/41/28
f 29/41/28 146/154/61 148/156/63 32/43/31
f 32/45/31 148/159/63 150/158/65 35/46/34
f 35/46/34 150/158/65 152/162/67 38/49/37
f 38/49/37 152/162/67 154/164/69 41/51/40
f 41/51/40 154/164/69 156/166/71 44/53/43
f 44/53/43 156/166/71 158/168/73 47/55/46
