{
	"asset":{
		"generator":"Khronos glTF Blender I/O v4.5.47",
		"version":"2.0"
	},
	"scene":0,
	"scenes":[
		{
			"name":"Scene",
			"nodes":[
				0
			]
		}
	],
	"nodes":[
		{
			"mesh":0,
			"name":"GEO_FeudalJapaneseHouse_Scroll_A"
		}
	],
	"meshes":[
		{
			"name":"GEO_FeudalJapaneseHouse_Scroll_A",
			"primitives":[
				{
					"attributes":{
						"POSITION":0,
						"NORMAL":1,
						"TEXCOORD_0":2
					},
					"indices":3
				}
			]
		}
	],
	"accessors":[
		{
			"bufferView":0,
			"componentType":5126,
			"count":1845,
			"max":[
				0.15909968316555023,
				0.033611927181482315,
				0.031658291816711426
			],
			"min":[
				-0.156758114695549,
				-0.03165825456380844,
				-0.038763951510190964
			],
			"type":"VEC3"
		},
		{
			"bufferView":1,
			"componentType":5126,
			"count":1845,
			"type":"VEC3"
		},
		{
			"bufferView":2,
			"componentType":5126,
			"count":1845,
			"type":"VEC2"
		},
		{
			"bufferView":3,
			"componentType":5123,
			"count":9012,
			"type":"SCALAR"
		}
	],
	"bufferViews":[
		{
			"buffer":0,
			"byteLength":22140,
			"byteOffset":0,
			"target":34962
		},
		{
			"buffer":0,
			"byteLength":22140,
			"byteOffset":22140,
			"target":34962
		},
		{
			"buffer":0,
			"byteLength":14760,
			"byteOffset":44280,
			"target":34962
		},
		{
			"buffer":0,
			"byteLength":18024,
			"byteOffset":59040,
			"target":34963
		}
	],
	"buffers":[
		{
			"byteLength":77064,
			"uri":"GEO_FeudalJapaneseHouse_Scroll_A.bin"
		}
	]
}
