{
	"asset":{
		"generator":"Khronos glTF Blender I/O v4.5.47",
		"version":"2.0"
	},
	"scene":0,
	"scenes":[
		{
			"name":"Scene",
			"nodes":[
				0
			]
		}
	],
	"nodes":[
		{
			"mesh":0,
			"name":"GEO_FeudalJapaneseHouse_SingleRoof"
		}
	],
	"meshes":[
		{
			"name":"GEO_FeudalJapaneseHouse_SingleRoof",
			"primitives":[
				{
					"attributes":{
						"POSITION":0,
						"NORMAL":1,
						"TEXCOORD_0":2
					},
					"indices":3
				}
			]
		}
	],
	"accessors":[
		{
			"bufferView":0,
			"componentType":5126,
			"count":4750,
			"max":[
				1.0664786100387573,
				1.3066236972808838,
				1.3424533605575562
			],
			"min":[
				-1.0593986511230469,
				-0.21154245734214783,
				-1.3424535989761353
			],
			"type":"VEC3"
		},
		{
			"bufferView":1,
			"componentType":5126,
			"count":4750,
			"type":"VEC3"
		},
		{
			"bufferView":2,
			"componentType":5126,
			"count":4750,
			"type":"VEC2"
		},
		{
			"bufferView":3,
			"componentType":5123,
			"count":7260,
			"type":"SCALAR"
		}
	],
	"bufferViews":[
		{
			"buffer":0,
			"byteLength":57000,
			"byteOffset":0,
			"target":34962
		},
		{
			"buffer":0,
			"byteLength":57000,
			"byteOffset":57000,
			"target":34962
		},
		{
			"buffer":0,
			"byteLength":38000,
			"byteOffset":114000,
			"target":34962
		},
		{
			"buffer":0,
			"byteLength":14520,
			"byteOffset":152000,
			"target":34963
		}
	],
	"buffers":[
		{
			"byteLength":166520,
			"uri":"GEO_FeudalJapaneseHouse_SingleRoof.bin"
		}
	]
}
