{
	"asset":{
		"generator":"Khronos glTF Blender I/O v4.5.47",
		"version":"2.0"
	},
	"scene":0,
	"scenes":[
		{
			"name":"Scene",
			"nodes":[
				0
			]
		}
	],
	"nodes":[
		{
			"mesh":0,
			"name":"GEO_FeudalJapaneseHouse_OuterWallCorner"
		}
	],
	"meshes":[
		{
			"name":"GEO_FeudalJapaneseHouse_OuterWallCorner",
			"primitives":[
				{
					"attributes":{
						"POSITION":0,
						"NORMAL":1,
						"TEXCOORD_0":2
					},
					"indices":3
				}
			]
		}
	],
	"accessors":[
		{
			"bufferView":0,
			"componentType":5126,
			"count":1980,
			"max":[
				2.0754799842834473,
				3.3431038856506348,
				2.0746493339538574
			],
			"min":[
				-0.4644947350025177,
				0,
				-0.5378884673118591
			],
			"type":"VEC3"
		},
		{
			"bufferView":1,
			"componentType":5126,
			"count":1980,
			"type":"VEC3"
		},
		{
			"bufferView":2,
			"componentType":5126,
			"count":1980,
			"type":"VEC2"
		},
		{
			"bufferView":3,
			"componentType":5123,
			"count":2958,
			"type":"SCALAR"
		}
	],
	"bufferViews":[
		{
			"buffer":0,
			"byteLength":23760,
			"byteOffset":0,
			"target":34962
		},
		{
			"buffer":0,
			"byteLength":23760,
			"byteOffset":23760,
			"target":34962
		},
		{
			"buffer":0,
			"byteLength":15840,
			"byteOffset":47520,
			"target":34962
		},
		{
			"buffer":0,
			"byteLength":5916,
			"byteOffset":63360,
			"target":34963
		}
	],
	"buffers":[
		{
			"byteLength":69276,
			"uri":"GEO_FeudalJapaneseHouse_OuterWallCorner.bin"
		}
	]
}
