{
	"asset":{
		"generator":"Khronos glTF Blender I/O v4.5.47",
		"version":"2.0"
	},
	"scene":0,
	"scenes":[
		{
			"name":"Scene",
			"nodes":[
				0
			]
		}
	],
	"nodes":[
		{
			"mesh":0,
			"name":"GEO_FeudalJapaneseHouse_Pillow"
		}
	],
	"meshes":[
		{
			"name":"GEO_FeudalJapaneseHouse_Pillow",
			"primitives":[
				{
					"attributes":{
						"POSITION":0,
						"NORMAL":1,
						"TEXCOORD_0":2
					},
					"indices":3
				}
			]
		}
	],
	"accessors":[
		{
			"bufferView":0,
			"componentType":5126,
			"count":1052,
			"max":[
				0.3519161641597748,
				0.0678395926952362,
				0.25760504603385925
			],
			"min":[
				-0.35258281230926514,
				-0.09055434167385101,
				-0.2567482590675354
			],
			"type":"VEC3"
		},
		{
			"bufferView":1,
			"componentType":5126,
			"count":1052,
			"type":"VEC3"
		},
		{
			"bufferView":2,
			"componentType":5126,
			"count":1052,
			"type":"VEC2"
		},
		{
			"bufferView":3,
			"componentType":5123,
			"count":5796,
			"type":"SCALAR"
		}
	],
	"bufferViews":[
		{
			"buffer":0,
			"byteLength":12624,
			"byteOffset":0,
			"target":34962
		},
		{
			"buffer":0,
			"byteLength":12624,
			"byteOffset":12624,
			"target":34962
		},
		{
			"buffer":0,
			"byteLength":8416,
			"byteOffset":25248,
			"target":34962
		},
		{
			"buffer":0,
			"byteLength":11592,
			"byteOffset":33664,
			"target":34963
		}
	],
	"buffers":[
		{
			"byteLength":45256,
			"uri":"GEO_FeudalJapaneseHouse_Pillow.bin"
		}
	]
}
