{
	"asset":{
		"generator":"Khronos glTF Blender I/O v4.5.47",
		"version":"2.0"
	},
	"scene":0,
	"scenes":[
		{
			"name":"Scene",
			"nodes":[
				0
			]
		}
	],
	"nodes":[
		{
			"mesh":0,
			"name":"GEO_FeudalJapaneseHouse_RoofEdge"
		}
	],
	"meshes":[
		{
			"name":"GEO_FeudalJapaneseHouse_RoofEdge",
			"primitives":[
				{
					"attributes":{
						"POSITION":0,
						"NORMAL":1,
						"TEXCOORD_0":2
					},
					"indices":3
				}
			]
		}
	],
	"accessors":[
		{
			"bufferView":0,
			"componentType":5126,
			"count":1132,
			"max":[
				2.3632049560546875,
				1.6369822025299072,
				0.05513608828186989
			],
			"min":[
				-2.3920300006866455,
				-0.14394021034240723,
				-0.5556034445762634
			],
			"type":"VEC3"
		},
		{
			"bufferView":1,
			"componentType":5126,
			"count":1132,
			"type":"VEC3"
		},
		{
			"bufferView":2,
			"componentType":5126,
			"count":1132,
			"type":"VEC2"
		},
		{
			"bufferView":3,
			"componentType":5123,
			"count":1920,
			"type":"SCALAR"
		}
	],
	"bufferViews":[
		{
			"buffer":0,
			"byteLength":13584,
			"byteOffset":0,
			"target":34962
		},
		{
			"buffer":0,
			"byteLength":13584,
			"byteOffset":13584,
			"target":34962
		},
		{
			"buffer":0,
			"byteLength":9056,
			"byteOffset":27168,
			"target":34962
		},
		{
			"buffer":0,
			"byteLength":3840,
			"byteOffset":36224,
			"target":34963
		}
	],
	"buffers":[
		{
			"byteLength":40064,
			"uri":"GEO_FeudalJapaneseHouse_RoofEdge.bin"
		}
	]
}
