{
	"asset":{
		"generator":"Khronos glTF Blender I/O v4.5.47",
		"version":"2.0"
	},
	"scene":0,
	"scenes":[
		{
			"name":"Scene",
			"nodes":[
				0
			]
		}
	],
	"nodes":[
		{
			"mesh":0,
			"name":"GEO_FeudalJapaneseHouse_RoofCorner"
		}
	],
	"meshes":[
		{
			"name":"GEO_FeudalJapaneseHouse_RoofCorner",
			"primitives":[
				{
					"attributes":{
						"POSITION":0,
						"NORMAL":1,
						"TEXCOORD_0":2
					},
					"indices":3
				}
			]
		}
	],
	"accessors":[
		{
			"bufferView":0,
			"componentType":5126,
			"count":3504,
			"max":[
				0.40829747915267944,
				1.349206566810608,
				1.971247673034668
			],
			"min":[
				-2.0470213890075684,
				-0.16606676578521729,
				-0.40080028772354126
			],
			"type":"VEC3"
		},
		{
			"bufferView":1,
			"componentType":5126,
			"count":3504,
			"type":"VEC3"
		},
		{
			"bufferView":2,
			"componentType":5126,
			"count":3504,
			"type":"VEC2"
		},
		{
			"bufferView":3,
			"componentType":5123,
			"count":5394,
			"type":"SCALAR"
		}
	],
	"bufferViews":[
		{
			"buffer":0,
			"byteLength":42048,
			"byteOffset":0,
			"target":34962
		},
		{
			"buffer":0,
			"byteLength":42048,
			"byteOffset":42048,
			"target":34962
		},
		{
			"buffer":0,
			"byteLength":28032,
			"byteOffset":84096,
			"target":34962
		},
		{
			"buffer":0,
			"byteLength":10788,
			"byteOffset":112128,
			"target":34963
		}
	],
	"buffers":[
		{
			"byteLength":122916,
			"uri":"GEO_FeudalJapaneseHouse_RoofCorner.bin"
		}
	]
}
