{
	"asset":{
		"generator":"Khronos glTF Blender I/O v4.5.47",
		"version":"2.0"
	},
	"scene":0,
	"scenes":[
		{
			"name":"Scene",
			"nodes":[
				0
			]
		}
	],
	"nodes":[
		{
			"mesh":0,
			"name":"GEO_FeudalJapaneseHouse_WoodenFloor_B",
			"scale":[
				2,
				1,
				2
			]
		}
	],
	"meshes":[
		{
			"name":"GEO_FeudalJapaneseHouse_WoodenFloor_B",
			"primitives":[
				{
					"attributes":{
						"POSITION":0,
						"NORMAL":1,
						"TEXCOORD_0":2
					},
					"indices":3
				}
			]
		}
	],
	"accessors":[
		{
			"bufferView":0,
			"componentType":5126,
			"count":128,
			"max":[
				0.5008572936058044,
				0,
				0.5008569955825806
			],
			"min":[
				-0.5008570551872253,
				-0.07694997638463974,
				-0.5008572340011597
			],
			"type":"VEC3"
		},
		{
			"bufferView":1,
			"componentType":5126,
			"count":128,
			"type":"VEC3"
		},
		{
			"bufferView":2,
			"componentType":5126,
			"count":128,
			"type":"VEC2"
		},
		{
			"bufferView":3,
			"componentType":5123,
			"count":192,
			"type":"SCALAR"
		}
	],
	"bufferViews":[
		{
			"buffer":0,
			"byteLength":1536,
			"byteOffset":0,
			"target":34962
		},
		{
			"buffer":0,
			"byteLength":1536,
			"byteOffset":1536,
			"target":34962
		},
		{
			"buffer":0,
			"byteLength":1024,
			"byteOffset":3072,
			"target":34962
		},
		{
			"buffer":0,
			"byteLength":384,
			"byteOffset":4096,
			"target":34963
		}
	],
	"buffers":[
		{
			"byteLength":4480,
			"uri":"GEO_FeudalJapaneseHouse_WoodenFloor_B.bin"
		}
	]
}
