{
	"asset":{
		"generator":"Khronos glTF Blender I/O v4.5.47",
		"version":"2.0"
	},
	"scene":0,
	"scenes":[
		{
			"name":"Scene",
			"nodes":[
				0
			]
		}
	],
	"nodes":[
		{
			"mesh":0,
			"name":"GEO_FeudalJapaneseHouse_Teapot"
		}
	],
	"meshes":[
		{
			"name":"GEO_FeudalJapaneseHouse_Teapot",
			"primitives":[
				{
					"attributes":{
						"POSITION":0,
						"NORMAL":1,
						"TEXCOORD_0":2
					},
					"indices":3
				}
			]
		}
	],
	"accessors":[
		{
			"bufferView":0,
			"componentType":5126,
			"count":595,
			"max":[
				0.10240572690963745,
				0.2820989787578583,
				0.10240572690963745
			],
			"min":[
				-0.10240572690963745,
				-0.002415478229522705,
				-0.1841898411512375
			],
			"type":"VEC3"
		},
		{
			"bufferView":1,
			"componentType":5126,
			"count":595,
			"type":"VEC3"
		},
		{
			"bufferView":2,
			"componentType":5126,
			"count":595,
			"type":"VEC2"
		},
		{
			"bufferView":3,
			"componentType":5123,
			"count":2544,
			"type":"SCALAR"
		}
	],
	"bufferViews":[
		{
			"buffer":0,
			"byteLength":7140,
			"byteOffset":0,
			"target":34962
		},
		{
			"buffer":0,
			"byteLength":7140,
			"byteOffset":7140,
			"target":34962
		},
		{
			"buffer":0,
			"byteLength":4760,
			"byteOffset":14280,
			"target":34962
		},
		{
			"buffer":0,
			"byteLength":5088,
			"byteOffset":19040,
			"target":34963
		}
	],
	"buffers":[
		{
			"byteLength":24128,
			"uri":"GEO_FeudalJapaneseHouse_Teapot.bin"
		}
	]
}
