{
	"asset":{
		"generator":"Khronos glTF Blender I/O v4.5.47",
		"version":"2.0"
	},
	"scene":0,
	"scenes":[
		{
			"name":"Scene",
			"nodes":[
				0
			]
		}
	],
	"nodes":[
		{
			"mesh":0,
			"name":"GEO_FeudalJapaneseHouse_Roof"
		}
	],
	"meshes":[
		{
			"name":"GEO_FeudalJapaneseHouse_Roof",
			"primitives":[
				{
					"attributes":{
						"POSITION":0,
						"NORMAL":1,
						"TEXCOORD_0":2
					},
					"indices":3
				}
			]
		}
	],
	"accessors":[
		{
			"bufferView":0,
			"componentType":5126,
			"count":3026,
			"max":[
				1.0494883060455322,
				1.3593450784683228,
				2.0347769260406494
			],
			"min":[
				-1.0324361324310303,
				-0.14394044876098633,
				-0.36320555210113525
			],
			"type":"VEC3"
		},
		{
			"bufferView":1,
			"componentType":5126,
			"count":3026,
			"type":"VEC3"
		},
		{
			"bufferView":2,
			"componentType":5126,
			"count":3026,
			"type":"VEC2"
		},
		{
			"bufferView":3,
			"componentType":5123,
			"count":4614,
			"type":"SCALAR"
		}
	],
	"bufferViews":[
		{
			"buffer":0,
			"byteLength":36312,
			"byteOffset":0,
			"target":34962
		},
		{
			"buffer":0,
			"byteLength":36312,
			"byteOffset":36312,
			"target":34962
		},
		{
			"buffer":0,
			"byteLength":24208,
			"byteOffset":72624,
			"target":34962
		},
		{
			"buffer":0,
			"byteLength":9228,
			"byteOffset":96832,
			"target":34963
		}
	],
	"buffers":[
		{
			"byteLength":106060,
			"uri":"GEO_FeudalJapaneseHouse_Roof.bin"
		}
	]
}
