{
	"asset":{
		"generator":"Khronos glTF Blender I/O v4.5.47",
		"version":"2.0"
	},
	"scene":0,
	"scenes":[
		{
			"name":"Scene",
			"nodes":[
				0
			]
		}
	],
	"nodes":[
		{
			"mesh":0,
			"name":"GEO_FeudalJapaneseHouse_Window_A"
		}
	],
	"meshes":[
		{
			"name":"GEO_FeudalJapaneseHouse_Window_A",
			"primitives":[
				{
					"attributes":{
						"POSITION":0,
						"NORMAL":1,
						"TEXCOORD_0":2
					},
					"indices":3
				}
			]
		}
	],
	"accessors":[
		{
			"bufferView":0,
			"componentType":5126,
			"count":340,
			"max":[
				1.0200001001358032,
				3,
				0.08098377287387848
			],
			"min":[
				-1.0200001001358032,
				0,
				-0.0809837132692337
			],
			"type":"VEC3"
		},
		{
			"bufferView":1,
			"componentType":5126,
			"count":340,
			"type":"VEC3"
		},
		{
			"bufferView":2,
			"componentType":5126,
			"count":340,
			"type":"VEC2"
		},
		{
			"bufferView":3,
			"componentType":5123,
			"count":540,
			"type":"SCALAR"
		}
	],
	"bufferViews":[
		{
			"buffer":0,
			"byteLength":4080,
			"byteOffset":0,
			"target":34962
		},
		{
			"buffer":0,
			"byteLength":4080,
			"byteOffset":4080,
			"target":34962
		},
		{
			"buffer":0,
			"byteLength":2720,
			"byteOffset":8160,
			"target":34962
		},
		{
			"buffer":0,
			"byteLength":1080,
			"byteOffset":10880,
			"target":34963
		}
	],
	"buffers":[
		{
			"byteLength":11960,
			"uri":"GEO_FeudalJapaneseHouse_Window_A.bin"
		}
	]
}
