{
	"asset":{
		"generator":"Khronos glTF Blender I/O v4.5.47",
		"version":"2.0"
	},
	"scene":0,
	"scenes":[
		{
			"name":"Scene",
			"nodes":[
				0
			]
		}
	],
	"nodes":[
		{
			"mesh":0,
			"name":"GEO_FeudalJapaneseHouse_Scroll_B"
		}
	],
	"meshes":[
		{
			"name":"GEO_FeudalJapaneseHouse_Scroll_B",
			"primitives":[
				{
					"attributes":{
						"POSITION":0,
						"NORMAL":1,
						"TEXCOORD_0":2
					},
					"indices":3
				}
			]
		}
	],
	"accessors":[
		{
			"bufferView":0,
			"componentType":5126,
			"count":1573,
			"max":[
				0.12750717997550964,
				0.032534752041101456,
				0.03256054222583771
			],
			"min":[
				-0.1275070458650589,
				-0.0321832038462162,
				-0.03199363127350807
			],
			"type":"VEC3"
		},
		{
			"bufferView":1,
			"componentType":5126,
			"count":1573,
			"type":"VEC3"
		},
		{
			"bufferView":2,
			"componentType":5126,
			"count":1573,
			"type":"VEC2"
		},
		{
			"bufferView":3,
			"componentType":5123,
			"count":7812,
			"type":"SCALAR"
		}
	],
	"bufferViews":[
		{
			"buffer":0,
			"byteLength":18876,
			"byteOffset":0,
			"target":34962
		},
		{
			"buffer":0,
			"byteLength":18876,
			"byteOffset":18876,
			"target":34962
		},
		{
			"buffer":0,
			"byteLength":12584,
			"byteOffset":37752,
			"target":34962
		},
		{
			"buffer":0,
			"byteLength":15624,
			"byteOffset":50336,
			"target":34963
		}
	],
	"buffers":[
		{
			"byteLength":65960,
			"uri":"GEO_FeudalJapaneseHouse_Scroll_B.bin"
		}
	]
}
