{
	"asset":{
		"generator":"Khronos glTF Blender I/O v4.5.47",
		"version":"2.0"
	},
	"scene":0,
	"scenes":[
		{
			"name":"Scene",
			"nodes":[
				0
			]
		}
	],
	"nodes":[
		{
			"mesh":0,
			"name":"GEO_FeudalJapaneseHouse_LargeBarrel"
		}
	],
	"meshes":[
		{
			"name":"GEO_FeudalJapaneseHouse_LargeBarrel",
			"primitives":[
				{
					"attributes":{
						"POSITION":0,
						"NORMAL":1,
						"TEXCOORD_0":2
					},
					"indices":3
				}
			]
		}
	],
	"accessors":[
		{
			"bufferView":0,
			"componentType":5126,
			"count":1548,
			"max":[
				0.5240175127983093,
				0.7471065521240234,
				0.5240175724029541
			],
			"min":[
				-0.5240175724029541,
				-0.002299666404724121,
				-0.5240175127983093
			],
			"type":"VEC3"
		},
		{
			"bufferView":1,
			"componentType":5126,
			"count":1548,
			"type":"VEC3"
		},
		{
			"bufferView":2,
			"componentType":5126,
			"count":1548,
			"type":"VEC2"
		},
		{
			"bufferView":3,
			"componentType":5123,
			"count":4800,
			"type":"SCALAR"
		}
	],
	"bufferViews":[
		{
			"buffer":0,
			"byteLength":18576,
			"byteOffset":0,
			"target":34962
		},
		{
			"buffer":0,
			"byteLength":18576,
			"byteOffset":18576,
			"target":34962
		},
		{
			"buffer":0,
			"byteLength":12384,
			"byteOffset":37152,
			"target":34962
		},
		{
			"buffer":0,
			"byteLength":9600,
			"byteOffset":49536,
			"target":34963
		}
	],
	"buffers":[
		{
			"byteLength":59136,
			"uri":"GEO_FeudalJapaneseHouse_LargeBarrel.bin"
		}
	]
}
