{
	"asset":{
		"generator":"Khronos glTF Blender I/O v4.5.47",
		"version":"2.0"
	},
	"scene":0,
	"scenes":[
		{
			"name":"Scene",
			"nodes":[
				0
			]
		}
	],
	"nodes":[
		{
			"mesh":0,
			"name":"GEO_FeudalJapaneseHouse_Gate"
		}
	],
	"meshes":[
		{
			"name":"GEO_FeudalJapaneseHouse_Gate",
			"primitives":[
				{
					"attributes":{
						"POSITION":0,
						"NORMAL":1,
						"TEXCOORD_0":2
					},
					"indices":3
				}
			]
		}
	],
	"accessors":[
		{
			"bufferView":0,
			"componentType":5126,
			"count":6200,
			"max":[
				2.1809635162353516,
				5.018877029418945,
				1.3015868663787842
			],
			"min":[
				-2.2021989822387695,
				-0.028847694396972656,
				-1.284310221672058
			],
			"type":"VEC3"
		},
		{
			"bufferView":1,
			"componentType":5126,
			"count":6200,
			"type":"VEC3"
		},
		{
			"bufferView":2,
			"componentType":5126,
			"count":6200,
			"type":"VEC2"
		},
		{
			"bufferView":3,
			"componentType":5123,
			"count":9450,
			"type":"SCALAR"
		}
	],
	"bufferViews":[
		{
			"buffer":0,
			"byteLength":74400,
			"byteOffset":0,
			"target":34962
		},
		{
			"buffer":0,
			"byteLength":74400,
			"byteOffset":74400,
			"target":34962
		},
		{
			"buffer":0,
			"byteLength":49600,
			"byteOffset":148800,
			"target":34962
		},
		{
			"buffer":0,
			"byteLength":18900,
			"byteOffset":198400,
			"target":34963
		}
	],
	"buffers":[
		{
			"byteLength":217300,
			"uri":"GEO_FeudalJapaneseHouse_Gate.bin"
		}
	]
}
