{
	"asset":{
		"generator":"Khronos glTF Blender I/O v4.5.47",
		"version":"2.0"
	},
	"scene":0,
	"scenes":[
		{
			"name":"Scene",
			"nodes":[
				0
			]
		}
	],
	"nodes":[
		{
			"mesh":0,
			"name":"GEO_FeudalJapaneseHouse_OuterWall"
		}
	],
	"meshes":[
		{
			"name":"GEO_FeudalJapaneseHouse_OuterWall",
			"primitives":[
				{
					"attributes":{
						"POSITION":0,
						"NORMAL":1,
						"TEXCOORD_0":2
					},
					"indices":3
				}
			]
		}
	],
	"accessors":[
		{
			"bufferView":0,
			"componentType":5126,
			"count":862,
			"max":[
				1.0711512565612793,
				3.341174364089966,
				0.4639108180999756
			],
			"min":[
				-1.0572590827941895,
				-4.5299530029296875e-06,
				-0.4696502387523651
			],
			"type":"VEC3"
		},
		{
			"bufferView":1,
			"componentType":5126,
			"count":862,
			"type":"VEC3"
		},
		{
			"bufferView":2,
			"componentType":5126,
			"count":862,
			"type":"VEC2"
		},
		{
			"bufferView":3,
			"componentType":5123,
			"count":1740,
			"type":"SCALAR"
		}
	],
	"bufferViews":[
		{
			"buffer":0,
			"byteLength":10344,
			"byteOffset":0,
			"target":34962
		},
		{
			"buffer":0,
			"byteLength":10344,
			"byteOffset":10344,
			"target":34962
		},
		{
			"buffer":0,
			"byteLength":6896,
			"byteOffset":20688,
			"target":34962
		},
		{
			"buffer":0,
			"byteLength":3480,
			"byteOffset":27584,
			"target":34963
		}
	],
	"buffers":[
		{
			"byteLength":31064,
			"uri":"GEO_FeudalJapaneseHouse_OuterWall.bin"
		}
	]
}
