{
	"asset":{
		"generator":"Khronos glTF Blender I/O v4.5.47",
		"version":"2.0"
	},
	"scene":0,
	"scenes":[
		{
			"name":"Scene",
			"nodes":[
				0
			]
		}
	],
	"nodes":[
		{
			"mesh":0,
			"name":"GEO_FeudalJapaneseHouse_Scroll_C"
		}
	],
	"meshes":[
		{
			"name":"GEO_FeudalJapaneseHouse_Scroll_C",
			"primitives":[
				{
					"attributes":{
						"POSITION":0,
						"NORMAL":1,
						"TEXCOORD_0":2
					},
					"indices":3
				}
			]
		}
	],
	"accessors":[
		{
			"bufferView":0,
			"componentType":5126,
			"count":1712,
			"max":[
				0.14811496436595917,
				0.023666994646191597,
				0.026568416506052017
			],
			"min":[
				-0.1481151431798935,
				-0.031682126224040985,
				-0.13355201482772827
			],
			"type":"VEC3"
		},
		{
			"bufferView":1,
			"componentType":5126,
			"count":1712,
			"type":"VEC3"
		},
		{
			"bufferView":2,
			"componentType":5126,
			"count":1712,
			"type":"VEC2"
		},
		{
			"bufferView":3,
			"componentType":5123,
			"count":6576,
			"type":"SCALAR"
		}
	],
	"bufferViews":[
		{
			"buffer":0,
			"byteLength":20544,
			"byteOffset":0,
			"target":34962
		},
		{
			"buffer":0,
			"byteLength":20544,
			"byteOffset":20544,
			"target":34962
		},
		{
			"buffer":0,
			"byteLength":13696,
			"byteOffset":41088,
			"target":34962
		},
		{
			"buffer":0,
			"byteLength":13152,
			"byteOffset":54784,
			"target":34963
		}
	],
	"buffers":[
		{
			"byteLength":67936,
			"uri":"GEO_FeudalJapaneseHouse_Scroll_C.bin"
		}
	]
}
