{
	"asset":{
		"generator":"Khronos glTF Blender I/O v4.5.47",
		"version":"2.0"
	},
	"scene":0,
	"scenes":[
		{
			"name":"Scene",
			"nodes":[
				0
			]
		}
	],
	"nodes":[
		{
			"mesh":0,
			"name":"GEO_FeudalJapaneseHouse_Barrel"
		}
	],
	"meshes":[
		{
			"name":"GEO_FeudalJapaneseHouse_Barrel",
			"primitives":[
				{
					"attributes":{
						"POSITION":0,
						"NORMAL":1,
						"TEXCOORD_0":2
					},
					"indices":3
				}
			]
		}
	],
	"accessors":[
		{
			"bufferView":0,
			"componentType":5126,
			"count":782,
			"max":[
				0.24304437637329102,
				0.48825904726982117,
				0.24304400384426117
			],
			"min":[
				-0.2430444210767746,
				-0.00825902633368969,
				-0.24304404854774475
			],
			"type":"VEC3"
		},
		{
			"bufferView":1,
			"componentType":5126,
			"count":782,
			"type":"VEC3"
		},
		{
			"bufferView":2,
			"componentType":5126,
			"count":782,
			"type":"VEC2"
		},
		{
			"bufferView":3,
			"componentType":5123,
			"count":1992,
			"type":"SCALAR"
		}
	],
	"bufferViews":[
		{
			"buffer":0,
			"byteLength":9384,
			"byteOffset":0,
			"target":34962
		},
		{
			"buffer":0,
			"byteLength":9384,
			"byteOffset":9384,
			"target":34962
		},
		{
			"buffer":0,
			"byteLength":6256,
			"byteOffset":18768,
			"target":34962
		},
		{
			"buffer":0,
			"byteLength":3984,
			"byteOffset":25024,
			"target":34963
		}
	],
	"buffers":[
		{
			"byteLength":29008,
			"uri":"GEO_FeudalJapaneseHouse_Barrel.bin"
		}
	]
}
